<?xml version="1.0" encoding="UTF-8"?>
<svg xmlns="http://www.w3.org/2000/svg" xmlns:xlink="http://www.w3.org/1999/xlink" width="216.447pt" height="156.459pt" viewBox="0 0 216.447 156.459" version="1.1">
<defs>
<g>
<symbol overflow="visible" id="glyph0-0">
<path style="stroke:none;" d=""/>
</symbol>
<symbol overflow="visible" id="glyph0-1">
<path style="stroke:none;" d="M 3.328125 -3.015625 C 3.390625 -3.265625 3.625 -4.1875 4.3125 -4.1875 C 4.359375 -4.1875 4.609375 -4.1875 4.8125 -4.0625 C 4.53125 -4 4.34375 -3.765625 4.34375 -3.515625 C 4.34375 -3.359375 4.453125 -3.171875 4.71875 -3.171875 C 4.9375 -3.171875 5.25 -3.34375 5.25 -3.75 C 5.25 -4.265625 4.671875 -4.40625 4.328125 -4.40625 C 3.75 -4.40625 3.40625 -3.875 3.28125 -3.65625 C 3.03125 -4.3125 2.5 -4.40625 2.203125 -4.40625 C 1.171875 -4.40625 0.59375 -3.125 0.59375 -2.875 C 0.59375 -2.765625 0.703125 -2.765625 0.71875 -2.765625 C 0.796875 -2.765625 0.828125 -2.796875 0.84375 -2.875 C 1.1875 -3.9375 1.84375 -4.1875 2.1875 -4.1875 C 2.375 -4.1875 2.71875 -4.09375 2.71875 -3.515625 C 2.71875 -3.203125 2.546875 -2.546875 2.1875 -1.140625 C 2.03125 -0.53125 1.671875 -0.109375 1.234375 -0.109375 C 1.171875 -0.109375 0.953125 -0.109375 0.734375 -0.234375 C 0.984375 -0.296875 1.203125 -0.5 1.203125 -0.78125 C 1.203125 -1.046875 0.984375 -1.125 0.84375 -1.125 C 0.53125 -1.125 0.296875 -0.875 0.296875 -0.546875 C 0.296875 -0.09375 0.78125 0.109375 1.21875 0.109375 C 1.890625 0.109375 2.25 -0.59375 2.265625 -0.640625 C 2.390625 -0.28125 2.75 0.109375 3.34375 0.109375 C 4.375 0.109375 4.9375 -1.171875 4.9375 -1.421875 C 4.9375 -1.53125 4.859375 -1.53125 4.828125 -1.53125 C 4.734375 -1.53125 4.71875 -1.484375 4.6875 -1.421875 C 4.359375 -0.34375 3.6875 -0.109375 3.375 -0.109375 C 2.984375 -0.109375 2.828125 -0.421875 2.828125 -0.765625 C 2.828125 -0.984375 2.875 -1.203125 2.984375 -1.640625 Z M 3.328125 -3.015625 "/>
</symbol>
<symbol overflow="visible" id="glyph0-2">
<path style="stroke:none;" d="M 4.84375 -3.796875 C 4.890625 -3.9375 4.890625 -3.953125 4.890625 -4.03125 C 4.890625 -4.203125 4.75 -4.296875 4.59375 -4.296875 C 4.5 -4.296875 4.34375 -4.234375 4.25 -4.09375 C 4.234375 -4.03125 4.140625 -3.734375 4.109375 -3.546875 C 4.03125 -3.296875 3.96875 -3.015625 3.90625 -2.75 L 3.453125 -0.953125 C 3.421875 -0.8125 2.984375 -0.109375 2.328125 -0.109375 C 1.828125 -0.109375 1.71875 -0.546875 1.71875 -0.921875 C 1.71875 -1.375 1.890625 -2 2.21875 -2.875 C 2.375 -3.28125 2.421875 -3.390625 2.421875 -3.59375 C 2.421875 -4.03125 2.109375 -4.40625 1.609375 -4.40625 C 0.65625 -4.40625 0.296875 -2.953125 0.296875 -2.875 C 0.296875 -2.765625 0.390625 -2.765625 0.40625 -2.765625 C 0.515625 -2.765625 0.515625 -2.796875 0.5625 -2.953125 C 0.84375 -3.890625 1.234375 -4.1875 1.578125 -4.1875 C 1.65625 -4.1875 1.828125 -4.1875 1.828125 -3.875 C 1.828125 -3.625 1.71875 -3.359375 1.65625 -3.171875 C 1.25 -2.109375 1.078125 -1.546875 1.078125 -1.078125 C 1.078125 -0.1875 1.703125 0.109375 2.296875 0.109375 C 2.6875 0.109375 3.015625 -0.0625 3.296875 -0.34375 C 3.171875 0.171875 3.046875 0.671875 2.65625 1.203125 C 2.390625 1.53125 2.015625 1.828125 1.5625 1.828125 C 1.421875 1.828125 0.96875 1.796875 0.796875 1.40625 C 0.953125 1.40625 1.09375 1.40625 1.21875 1.28125 C 1.328125 1.203125 1.421875 1.0625 1.421875 0.875 C 1.421875 0.5625 1.15625 0.53125 1.0625 0.53125 C 0.828125 0.53125 0.5 0.6875 0.5 1.171875 C 0.5 1.671875 0.9375 2.046875 1.5625 2.046875 C 2.578125 2.046875 3.609375 1.140625 3.890625 0.015625 Z M 4.84375 -3.796875 "/>
</symbol>
<symbol overflow="visible" id="glyph0-3">
<path style="stroke:none;" d="M 1.328125 -0.828125 C 1.859375 -1.40625 2.15625 -1.65625 2.515625 -1.96875 C 2.515625 -1.96875 3.125 -2.5 3.484375 -2.859375 C 4.4375 -3.78125 4.65625 -4.265625 4.65625 -4.3125 C 4.65625 -4.40625 4.5625 -4.40625 4.546875 -4.40625 C 4.46875 -4.40625 4.453125 -4.390625 4.390625 -4.296875 C 4.09375 -3.8125 3.890625 -3.65625 3.65625 -3.65625 C 3.40625 -3.65625 3.296875 -3.8125 3.140625 -3.984375 C 2.953125 -4.203125 2.78125 -4.40625 2.453125 -4.40625 C 1.703125 -4.40625 1.25 -3.484375 1.25 -3.265625 C 1.25 -3.21875 1.28125 -3.15625 1.359375 -3.15625 C 1.453125 -3.15625 1.46875 -3.203125 1.5 -3.265625 C 1.6875 -3.734375 2.265625 -3.734375 2.34375 -3.734375 C 2.546875 -3.734375 2.734375 -3.671875 2.96875 -3.59375 C 3.375 -3.4375 3.484375 -3.4375 3.734375 -3.4375 C 3.375 -3.015625 2.546875 -2.296875 2.359375 -2.140625 L 1.453125 -1.296875 C 0.78125 -0.625 0.421875 -0.0625 0.421875 0.015625 C 0.421875 0.109375 0.53125 0.109375 0.546875 0.109375 C 0.625 0.109375 0.640625 0.09375 0.703125 -0.015625 C 0.9375 -0.375 1.234375 -0.640625 1.5625 -0.640625 C 1.78125 -0.640625 1.890625 -0.546875 2.140625 -0.265625 C 2.296875 -0.046875 2.484375 0.109375 2.765625 0.109375 C 3.765625 0.109375 4.34375 -1.15625 4.34375 -1.421875 C 4.34375 -1.46875 4.296875 -1.53125 4.21875 -1.53125 C 4.125 -1.53125 4.109375 -1.46875 4.078125 -1.390625 C 3.84375 -0.75 3.203125 -0.5625 2.875 -0.5625 C 2.6875 -0.5625 2.5 -0.625 2.296875 -0.6875 C 1.953125 -0.8125 1.796875 -0.859375 1.59375 -0.859375 C 1.578125 -0.859375 1.421875 -0.859375 1.328125 -0.828125 Z M 1.328125 -0.828125 "/>
</symbol>
<symbol overflow="visible" id="glyph0-4">
<path style="stroke:none;" d="M 4.53125 -4.984375 C 4.53125 -5.640625 4.359375 -7.03125 3.34375 -7.03125 C 1.953125 -7.03125 0.421875 -4.21875 0.421875 -1.9375 C 0.421875 -1 0.703125 0.109375 1.609375 0.109375 C 3.015625 0.109375 4.53125 -2.75 4.53125 -4.984375 Z M 1.46875 -3.625 C 1.640625 -4.25 1.84375 -5.046875 2.25 -5.765625 C 2.515625 -6.25 2.875 -6.8125 3.328125 -6.8125 C 3.8125 -6.8125 3.875 -6.171875 3.875 -5.609375 C 3.875 -5.109375 3.796875 -4.609375 3.5625 -3.625 Z M 3.46875 -3.296875 C 3.359375 -2.84375 3.15625 -2 2.765625 -1.28125 C 2.421875 -0.59375 2.046875 -0.109375 1.609375 -0.109375 C 1.28125 -0.109375 1.078125 -0.40625 1.078125 -1.328125 C 1.078125 -1.75 1.140625 -2.328125 1.390625 -3.296875 Z M 3.46875 -3.296875 "/>
</symbol>
<symbol overflow="visible" id="glyph0-5">
<path style="stroke:none;" d="M 4.671875 -3.703125 C 4.671875 -4.25 4.40625 -4.40625 4.234375 -4.40625 C 3.984375 -4.40625 3.734375 -4.140625 3.734375 -3.921875 C 3.734375 -3.796875 3.78125 -3.734375 3.890625 -3.625 C 4.109375 -3.421875 4.234375 -3.171875 4.234375 -2.8125 C 4.234375 -2.390625 3.625 -0.109375 2.46875 -0.109375 C 1.953125 -0.109375 1.71875 -0.453125 1.71875 -0.984375 C 1.71875 -1.53125 2 -2.265625 2.296875 -3.09375 C 2.375 -3.265625 2.421875 -3.40625 2.421875 -3.59375 C 2.421875 -4.03125 2.109375 -4.40625 1.609375 -4.40625 C 0.671875 -4.40625 0.296875 -2.953125 0.296875 -2.875 C 0.296875 -2.765625 0.390625 -2.765625 0.40625 -2.765625 C 0.515625 -2.765625 0.515625 -2.796875 0.5625 -2.953125 C 0.859375 -3.953125 1.28125 -4.1875 1.578125 -4.1875 C 1.65625 -4.1875 1.828125 -4.1875 1.828125 -3.875 C 1.828125 -3.625 1.71875 -3.34375 1.65625 -3.171875 C 1.21875 -2.015625 1.09375 -1.5625 1.09375 -1.125 C 1.09375 -0.046875 1.96875 0.109375 2.421875 0.109375 C 4.09375 0.109375 4.671875 -3.1875 4.671875 -3.703125 Z M 4.671875 -3.703125 "/>
</symbol>
<symbol overflow="visible" id="glyph1-0">
<path style="stroke:none;" d=""/>
</symbol>
<symbol overflow="visible" id="glyph1-1">
<path style="stroke:none;" d="M 1.578125 -7.125 C 1.578125 -7.296875 1.578125 -7.484375 1.390625 -7.484375 C 1.1875 -7.484375 1.1875 -7.296875 1.1875 -7.125 L 1.1875 2.140625 C 1.1875 2.3125 1.1875 2.5 1.390625 2.5 C 1.578125 2.5 1.578125 2.3125 1.578125 2.140625 Z M 1.578125 -7.125 "/>
</symbol>
<symbol overflow="visible" id="glyph2-0">
<path style="stroke:none;" d=""/>
</symbol>
<symbol overflow="visible" id="glyph2-1">
<path style="stroke:none;" d="M 5.046875 -3.75 C 5.109375 -3.890625 5.140625 -3.953125 5.78125 -3.953125 L 5.78125 -4.421875 C 5.53125 -4.40625 5.25 -4.390625 5 -4.390625 C 4.75 -4.390625 4.296875 -4.421875 4.09375 -4.421875 L 4.09375 -3.953125 C 4.28125 -3.953125 4.5625 -3.921875 4.5625 -3.84375 C 4.5625 -3.84375 4.5625 -3.8125 4.515625 -3.734375 L 3.359375 -1.234375 L 2.09375 -3.953125 L 2.625 -3.953125 L 2.625 -4.421875 C 2.296875 -4.40625 1.40625 -4.390625 1.390625 -4.390625 C 1.109375 -4.390625 0.671875 -4.421875 0.265625 -4.421875 L 0.265625 -3.953125 L 0.890625 -3.953125 L 2.640625 -0.203125 C 2.765625 0.046875 2.890625 0.046875 3.015625 0.046875 C 3.1875 0.046875 3.296875 0.015625 3.390625 -0.203125 Z M 5.046875 -3.75 "/>
</symbol>
<symbol overflow="visible" id="glyph3-0">
<path style="stroke:none;" d=""/>
</symbol>
<symbol overflow="visible" id="glyph3-1">
<path style="stroke:none;" d="M 1.734375 -0.734375 C 1.671875 -0.5 1.4375 -0.125 1.078125 -0.125 C 1.0625 -0.125 0.84375 -0.125 0.703125 -0.21875 C 0.984375 -0.3125 1.015625 -0.5625 1.015625 -0.609375 C 1.015625 -0.765625 0.890625 -0.859375 0.734375 -0.859375 C 0.53125 -0.859375 0.328125 -0.703125 0.328125 -0.4375 C 0.328125 -0.09375 0.71875 0.0625 1.0625 0.0625 C 1.390625 0.0625 1.671875 -0.125 1.84375 -0.421875 C 2.015625 -0.0625 2.390625 0.0625 2.671875 0.0625 C 3.484375 0.0625 3.90625 -0.796875 3.90625 -1 C 3.90625 -1.09375 3.8125 -1.09375 3.796875 -1.09375 C 3.6875 -1.09375 3.6875 -1.046875 3.65625 -0.96875 C 3.515625 -0.484375 3.09375 -0.125 2.703125 -0.125 C 2.421875 -0.125 2.28125 -0.3125 2.28125 -0.578125 C 2.28125 -0.765625 2.453125 -1.390625 2.640625 -2.171875 C 2.78125 -2.703125 3.09375 -2.875 3.328125 -2.875 C 3.34375 -2.875 3.546875 -2.875 3.703125 -2.78125 C 3.484375 -2.71875 3.390625 -2.515625 3.390625 -2.390625 C 3.390625 -2.25 3.515625 -2.140625 3.671875 -2.140625 C 3.828125 -2.140625 4.0625 -2.265625 4.0625 -2.5625 C 4.0625 -2.953125 3.609375 -3.078125 3.34375 -3.078125 C 2.984375 -3.078125 2.703125 -2.84375 2.5625 -2.578125 C 2.4375 -2.859375 2.109375 -3.078125 1.71875 -3.078125 C 0.9375 -3.078125 0.5 -2.21875 0.5 -2 C 0.5 -1.921875 0.59375 -1.921875 0.609375 -1.921875 C 0.703125 -1.921875 0.703125 -1.9375 0.75 -2.03125 C 0.921875 -2.578125 1.359375 -2.875 1.703125 -2.875 C 1.9375 -2.875 2.125 -2.75 2.125 -2.421875 C 2.125 -2.28125 2.03125 -1.9375 1.96875 -1.6875 Z M 1.734375 -0.734375 "/>
</symbol>
<symbol overflow="visible" id="glyph4-0">
<path style="stroke:none;" d=""/>
</symbol>
<symbol overflow="visible" id="glyph4-1">
<path style="stroke:none;" d="M 12.015625 11.578125 L 6.4375 6.1875 L 6.046875 8.296875 L 6.25 8.328125 L 6.4375 7.296875 L 12.4375 13.09375 C 12.71875 12.921875 12.71875 12.921875 12.671875 12.6875 L 8.765625 -5.0625 C 8.734375 -5.21875 8.71875 -5.234375 8.71875 -5.25 C 8.65625 -5.34375 8.53125 -5.40625 8.4375 -5.34375 C 8.296875 -5.265625 8.34375 -5.125 8.375 -4.984375 Z M 12.015625 11.578125 "/>
</symbol>
<symbol overflow="visible" id="glyph5-0">
<path style="stroke:none;" d=""/>
</symbol>
<symbol overflow="visible" id="glyph5-1">
<path style="stroke:none;" d="M 2.203125 -5.53125 C 1.921875 -6.015625 1.609375 -6.015625 1.46875 -5.921875 C 1.25 -5.796875 1.171875 -5.4375 1.28125 -5.25 C 1.34375 -5.140625 1.421875 -5.125 1.5625 -5.078125 C 1.859375 -5.015625 2.09375 -4.859375 2.265625 -4.546875 C 2.484375 -4.171875 3.09375 -1.90625 2.09375 -1.328125 C 1.640625 -1.0625 1.265625 -1.25 1 -1.71875 C 0.71875 -2.1875 0.609375 -2.96875 0.4375 -3.8125 C 0.4375 -4.015625 0.390625 -4.15625 0.296875 -4.3125 C 0.078125 -4.6875 -0.375 -4.859375 -0.8125 -4.609375 C -1.625 -4.140625 -1.21875 -2.703125 -1.1875 -2.625 C -1.125 -2.53125 -1.03125 -2.578125 -1.015625 -2.59375 C -0.921875 -2.640625 -0.9375 -2.671875 -0.984375 -2.84375 C -1.21875 -3.84375 -0.984375 -4.265625 -0.734375 -4.40625 C -0.65625 -4.453125 -0.515625 -4.53125 -0.359375 -4.265625 C -0.234375 -4.046875 -0.1875 -3.75 -0.140625 -3.578125 C 0.0625 -2.359375 0.171875 -1.90625 0.390625 -1.515625 C 0.9375 -0.59375 1.75 -0.890625 2.140625 -1.109375 C 3.59375 -1.953125 2.453125 -5.09375 2.203125 -5.53125 Z M 2.203125 -5.53125 "/>
</symbol>
<symbol overflow="visible" id="glyph6-0">
<path style="stroke:none;" d=""/>
</symbol>
<symbol overflow="visible" id="glyph6-1">
<path style="stroke:none;" d="M 2.421875 -2.84375 L 2.21875 -2.734375 C 2.28125 -2.578125 2.421875 -2.203125 2.359375 -2.109375 C 2.34375 -2.03125 1.875 -1.765625 1.78125 -1.71875 L 0.671875 -1.078125 C 1 -1.984375 1.109375 -2.296875 1.296875 -2.78125 C 1.546875 -3.390625 1.75 -4.015625 1.421875 -4.578125 C 1 -5.3125 0.09375 -5.390625 -0.671875 -4.9375 C -1.421875 -4.515625 -1.625 -3.703125 -1.3125 -3.140625 C -1.140625 -2.84375 -0.84375 -2.9375 -0.78125 -2.984375 C -0.640625 -3.0625 -0.53125 -3.265625 -0.65625 -3.484375 C -0.71875 -3.59375 -0.890625 -3.796875 -1.203125 -3.609375 C -1.25 -4.140625 -0.921875 -4.5 -0.640625 -4.671875 C -0.03125 -5.015625 0.5625 -4.734375 0.84375 -4.25 C 1.140625 -3.71875 0.984375 -3.09375 0.921875 -2.765625 L 0.328125 -0.484375 C 0.28125 -0.390625 0.28125 -0.375 0.375 -0.21875 L 2.875 -1.65625 Z M 2.421875 -2.84375 "/>
</symbol>
<symbol overflow="visible" id="glyph7-0">
<path style="stroke:none;" d=""/>
</symbol>
<symbol overflow="visible" id="glyph7-1">
<path style="stroke:none;" d="M 2.046875 -4.203125 C 2.03125 -4.3125 2.03125 -4.328125 2 -4.359375 C 1.9375 -4.484375 1.78125 -4.484375 1.6875 -4.421875 C 1.609375 -4.390625 1.515625 -4.3125 1.515625 -4.15625 C 1.515625 -4.09375 1.59375 -3.890625 1.625 -3.75 L 1.78125 -3.171875 C 1.828125 -3.015625 2.078125 -2.140625 2.109375 -2.0625 C 2.109375 -2.0625 2.125 -1.375 1.671875 -1.109375 C 1.25 -0.859375 1.03125 -1.25 0.96875 -1.359375 C 0.78125 -1.6875 0.703125 -2.140625 0.609375 -2.71875 C 0.5625 -2.953125 0.5625 -3.046875 0.5 -3.15625 C 0.328125 -3.4375 -0.046875 -3.53125 -0.375 -3.34375 C -0.96875 -2.984375 -0.78125 -2 -0.71875 -1.890625 C -0.671875 -1.828125 -0.59375 -1.875 -0.5625 -1.890625 C -0.484375 -1.9375 -0.5 -1.953125 -0.515625 -2.046875 C -0.640625 -2.640625 -0.53125 -3 -0.28125 -3.140625 C -0.1875 -3.203125 -0.09375 -3.171875 -0.015625 -3.03125 C 0.0625 -2.890625 0.09375 -2.734375 0.109375 -2.640625 C 0.234375 -1.71875 0.296875 -1.46875 0.453125 -1.203125 C 0.515625 -1.109375 0.671875 -0.828125 1.03125 -0.75 C 1.296875 -0.703125 1.578125 -0.84375 1.734375 -0.9375 C 1.984375 -1.078125 2.15625 -1.28125 2.234375 -1.578125 C 2.34375 -1.1875 2.4375 -0.90625 2.359375 -0.453125 C 2.296875 -0.171875 2.171875 0.171875 1.84375 0.359375 C 1.796875 0.375 1.515625 0.546875 1.28125 0.40625 C 1.578125 0.1875 1.421875 -0.09375 1.40625 -0.109375 C 1.296875 -0.296875 1.109375 -0.234375 1.046875 -0.203125 C 0.90625 -0.125 0.765625 0.125 0.9375 0.40625 C 1.109375 0.703125 1.515625 0.765625 1.953125 0.515625 C 2.5625 0.171875 3.03125 -0.75 2.78125 -1.609375 Z M 2.046875 -4.203125 "/>
</symbol>
<symbol overflow="visible" id="glyph7-2">
<path style="stroke:none;" d="M 0.71875 -1.109375 C 0.78125 -1.359375 0.828125 -1.53125 1.078125 -2.25 C 1.171875 -2.421875 1.40625 -3.03125 1.484375 -3.3125 C 1.640625 -3.875 1.6875 -4.328125 1.65625 -4.390625 C 1.609375 -4.484375 1.546875 -4.4375 1.515625 -4.421875 C 1.453125 -4.390625 1.4375 -4.359375 1.4375 -4.28125 C 1.40625 -3.90625 1.34375 -3.75 1.1875 -3.65625 C 1.125 -3.625 1.03125 -3.5625 0.75 -3.640625 C 0.421875 -3.734375 0.265625 -3.703125 0.140625 -3.625 C -0.359375 -3.34375 -0.375 -2.625 -0.265625 -2.453125 C -0.234375 -2.375 -0.171875 -2.390625 -0.125 -2.421875 C -0.046875 -2.46875 -0.046875 -2.484375 -0.0625 -2.578125 C -0.09375 -2.828125 0.21875 -3.046875 0.3125 -3.09375 C 0.46875 -3.1875 0.640625 -3.234375 0.734375 -3.265625 C 1.109375 -3.390625 1.15625 -3.40625 1.296875 -3.5 C 1.25 -3.234375 1.203125 -3.0625 0.890625 -2.296875 C 0.625 -1.625 0.546875 -1.390625 0.515625 -1.203125 C 0.359375 -0.65625 0.328125 -0.265625 0.359375 -0.21875 C 0.390625 -0.15625 0.484375 -0.203125 0.5 -0.21875 C 0.5625 -0.25 0.578125 -0.265625 0.5625 -0.328125 C 0.609375 -0.65625 0.71875 -0.890625 0.921875 -1 C 1 -1.046875 1.078125 -1.09375 1.328125 -1.046875 C 1.625 -0.96875 1.796875 -0.96875 2 -1.078125 C 2.625 -1.453125 2.609375 -2.40625 2.5 -2.609375 C 2.453125 -2.6875 2.390625 -2.640625 2.359375 -2.625 C 2.28125 -2.578125 2.28125 -2.546875 2.296875 -2.46875 C 2.359375 -2.109375 2.09375 -1.75 1.796875 -1.578125 C 1.65625 -1.5 1.484375 -1.453125 1.3125 -1.375 C 1 -1.296875 0.953125 -1.265625 0.84375 -1.203125 C 0.828125 -1.203125 0.75 -1.15625 0.71875 -1.109375 Z M 0.71875 -1.109375 "/>
</symbol>
<symbol overflow="visible" id="glyph8-0">
<path style="stroke:none;" d=""/>
</symbol>
<symbol overflow="visible" id="glyph8-1">
<path style="stroke:none;" d="M 2.390625 -4.015625 L 4.796875 -5.40625 C 4.921875 -5.484375 5.078125 -5.578125 4.96875 -5.765625 C 4.875 -5.921875 4.71875 -5.828125 4.59375 -5.75 L 2.1875 -4.359375 L 0.796875 -6.78125 C 0.71875 -6.90625 0.625 -7.0625 0.453125 -6.96875 C 0.28125 -6.859375 0.375 -6.703125 0.453125 -6.578125 L 1.84375 -4.15625 L -0.578125 -2.765625 C -0.6875 -2.703125 -0.859375 -2.609375 -0.765625 -2.453125 C -0.65625 -2.265625 -0.484375 -2.359375 -0.375 -2.421875 L 2.046875 -3.8125 L 3.4375 -1.390625 C 3.5 -1.265625 3.59375 -1.109375 3.765625 -1.21875 C 3.9375 -1.3125 3.84375 -1.46875 3.78125 -1.59375 Z M 2.390625 -4.015625 "/>
</symbol>
</g>
</defs>
<g id="surface1">
<path style="fill:none;stroke-width:0.99628;stroke-linecap:butt;stroke-linejoin:miter;stroke:rgb(0%,0%,100%);stroke-opacity:1;stroke-miterlimit:10;" d="M -0.000375 0.0004375 L 47.6715 -27.523 " transform="matrix(1,0,0,-1,88.391,99.977)"/>
<path style="fill-rule:nonzero;fill:rgb(0%,0%,100%);fill-opacity:1;stroke-width:0.99628;stroke-linecap:butt;stroke-linejoin:miter;stroke:rgb(0%,0%,100%);stroke-opacity:1;stroke-miterlimit:10;" d="M -6.505742 2.91903 L 0.37588 -0.000193623 L -6.503536 -2.920962 Z M -6.505742 2.91903 " transform="matrix(0.86601,0.49998,0.49998,-0.86601,136.0613,127.4994)"/>
<path style="fill:none;stroke-width:0.3985;stroke-linecap:butt;stroke-linejoin:miter;stroke:rgb(0%,0%,0%);stroke-opacity:1;stroke-miterlimit:10;" d="M -0.000375 0.0004375 L 112.39025 0.0004375 " transform="matrix(1,0,0,-1,88.391,99.977)"/>
<path style="fill-rule:nonzero;fill:rgb(0%,0%,0%);fill-opacity:1;stroke-width:0.3985;stroke-linecap:butt;stroke-linejoin:round;stroke:rgb(0%,0%,0%);stroke-opacity:1;stroke-miterlimit:10;" d="M 0.796145 0.0004375 C -0.199949 0.199656 -1.196043 0.598094 -2.391355 1.293406 C -1.196043 0.398875 -1.196043 -0.398 -2.391355 -1.296437 C -1.196043 -0.597219 -0.199949 -0.198781 0.796145 0.0004375 Z M 0.796145 0.0004375 " transform="matrix(1,0,0,-1,200.78198,99.977)"/>
<g style="fill:rgb(0%,0%,0%);fill-opacity:1;">
  <use xlink:href="#glyph0-1" x="204.599" y="102.121"/>
</g>
<path style="fill:none;stroke-width:0.3985;stroke-linecap:butt;stroke-linejoin:miter;stroke:rgb(0%,0%,0%);stroke-opacity:1;stroke-miterlimit:10;" d="M -0.000375 0.0004375 L -0.000375 84.043406 " transform="matrix(1,0,0,-1,88.391,99.977)"/>
<path style="fill-rule:nonzero;fill:rgb(0%,0%,0%);fill-opacity:1;stroke-width:0.3985;stroke-linecap:butt;stroke-linejoin:round;stroke:rgb(0%,0%,0%);stroke-opacity:1;stroke-miterlimit:10;" d="M 0.796121 0.000375 C -0.199973 0.199594 -1.196066 0.598031 -2.391379 1.293344 C -1.196066 0.398813 -1.196066 -0.398062 -2.391379 -1.2965 C -1.196066 -0.597281 -0.199973 -0.198844 0.796121 0.000375 Z M 0.796121 0.000375 " transform="matrix(0,-1,-1,0,88.391,15.93284)"/>
<g style="fill:rgb(0%,0%,0%);fill-opacity:1;">
  <use xlink:href="#glyph0-2" x="85.77" y="10.444"/>
</g>
<path style="fill:none;stroke-width:0.3985;stroke-linecap:butt;stroke-linejoin:miter;stroke:rgb(0%,0%,0%);stroke-opacity:1;stroke-miterlimit:10;" d="M -0.000375 0.0004375 L -72.785531 -42.023 " transform="matrix(1,0,0,-1,88.391,99.977)"/>
<path style="fill-rule:nonzero;fill:rgb(0%,0%,0%);fill-opacity:1;stroke-width:0.3985;stroke-linecap:butt;stroke-linejoin:round;stroke:rgb(0%,0%,0%);stroke-opacity:1;stroke-miterlimit:10;" d="M 0.795905 0.00164081 C -0.200379 0.19794 -1.19673 0.597256 -2.390409 1.295433 C -1.19471 0.397622 -1.195348 -0.400391 -2.391734 -1.292903 C -1.196711 -0.598071 -0.199722 -0.199375 0.795905 0.00164081 Z M 0.795905 0.00164081 " transform="matrix(-0.86601,0.49998,0.49998,0.86601,15.60641,141.99908)"/>
<g style="fill:rgb(0%,0%,0%);fill-opacity:1;">
  <use xlink:href="#glyph0-3" x="6.154" y="150.305"/>
</g>
<path style="fill:none;stroke-width:0.19925;stroke-linecap:butt;stroke-linejoin:miter;stroke:rgb(0%,0%,100%);stroke-opacity:1;stroke-miterlimit:10;" d="M 49.097281 -28.347219 L -48.699594 -28.347219 L -41.60975 -28.347219 L -35.473031 -24.80425 L -42.558969 -24.80425 " transform="matrix(1,0,0,-1,88.391,99.977)"/>
<path style="fill:none;stroke-width:0.3985;stroke-linecap:butt;stroke-linejoin:miter;stroke:rgb(0%,0%,100%);stroke-opacity:1;stroke-miterlimit:10;" d="M 12.273062 -7.0855 C 8.359 -13.86675 -0.308969 -16.187062 -7.086313 -12.273 C -9.242563 -11.030812 -11.031625 -9.24175 -11.0785 -9.155812 " transform="matrix(1,0,0,-1,88.391,99.977)"/>
<path style=" stroke:none;fill-rule:nonzero;fill:rgb(0%,0%,100%);fill-opacity:1;" d="M 76.117188 107.0625 C 76.441406 108.027344 76.992188 109.777344 76.816406 111.261719 C 77.265625 109.851562 77.957031 109.453125 79.402344 109.769531 C 78.027344 109.179688 76.789062 107.828125 76.117188 107.0625 Z M 76.117188 107.0625 "/>
<g style="fill:rgb(0%,0%,0%);fill-opacity:1;">
  <use xlink:href="#glyph0-4" x="84.438" y="111.811"/>
</g>
<g style="fill:rgb(0%,0%,100%);fill-opacity:1;">
  <use xlink:href="#glyph1-1" x="116.459" y="108.14"/>
</g>
<g style="fill:rgb(0%,0%,100%);fill-opacity:1;">
  <use xlink:href="#glyph2-1" x="119.226" y="108.14"/>
</g>
<g style="fill:rgb(0%,0%,100%);fill-opacity:1;">
  <use xlink:href="#glyph1-1" x="125.432" y="108.14"/>
</g>
<g style="fill:rgb(0%,0%,100%);fill-opacity:1;">
  <use xlink:href="#glyph0-5" x="82.96" y="136.131"/>
</g>
<g style="fill:rgb(0%,0%,100%);fill-opacity:1;">
  <use xlink:href="#glyph3-1" x="87.789" y="137.626"/>
</g>
<g style="fill:rgb(0%,0%,100%);fill-opacity:1;">
  <use xlink:href="#glyph4-1" x="35.3665" y="106.279938"/>
</g>
<path style="fill:none;stroke-width:0.398;stroke-linecap:butt;stroke-linejoin:miter;stroke:rgb(0%,0%,100%);stroke-opacity:1;stroke-miterlimit:10;" d="M -0.0000793054 0.00131392 L 31.486996 -0.000245054 " transform="matrix(0.86603,-0.5,-0.5,-0.86603,43.895257,101.126098)"/>
<g style="fill:rgb(0%,0%,100%);fill-opacity:1;">
  <use xlink:href="#glyph5-1" x="49.391257" y="110.6455"/>
</g>
<g style="fill:rgb(0%,0%,100%);fill-opacity:1;">
  <use xlink:href="#glyph6-1" x="52.443488" y="105.560066"/>
</g>
<g style="fill:rgb(0%,0%,100%);fill-opacity:1;">
  <use xlink:href="#glyph7-1" x="54.804816" y="110.364032"/>
</g>
<g style="fill:rgb(0%,0%,100%);fill-opacity:1;">
  <use xlink:href="#glyph8-1" x="59.671033" y="104.7105"/>
</g>
<g style="fill:rgb(0%,0%,100%);fill-opacity:1;">
  <use xlink:href="#glyph5-1" x="68.298424" y="99.7295"/>
</g>
<g style="fill:rgb(0%,0%,100%);fill-opacity:1;">
  <use xlink:href="#glyph6-1" x="71.351521" y="94.643566"/>
</g>
<g style="fill:rgb(0%,0%,100%);fill-opacity:1;">
  <use xlink:href="#glyph7-2" x="73.711983" y="99.448032"/>
</g>
</g>
</svg>
