<?xml version="1.0" encoding="UTF-8"?>
<svg xmlns="http://www.w3.org/2000/svg" xmlns:xlink="http://www.w3.org/1999/xlink" width="534.56" height="261.999" viewBox="0 0 534.56 261.999">
<defs>
<g>
<g id="glyph-0-0">
<path d="M 3.3125 2.484375 C 3.203125 2.328125 3.046875 2.203125 2.9375 2.046875 C 1.90625 0.796875 1.578125 -0.859375 1.578125 -2.453125 C 1.578125 -4.0625 1.890625 -5.765625 2.9375 -7.0625 C 3.046875 -7.203125 3.203125 -7.34375 3.3125 -7.484375 L 2.8125 -7.484375 C 2.609375 -7.484375 2.421875 -7.203125 2.28125 -7.0625 C 1.203125 -5.859375 0.8125 -4.140625 0.8125 -2.546875 C 0.8125 -0.8125 1.21875 1.125 2.5625 2.34375 C 2.640625 2.40625 2.65625 2.484375 2.8125 2.484375 Z M 3.3125 2.484375 "/>
</g>
<g id="glyph-0-1">
<path d="M 0.109375 -2.515625 L 0.109375 -1.9375 L 2.765625 -1.9375 L 2.765625 -2.515625 Z M 0.109375 -2.515625 "/>
</g>
<g id="glyph-0-2">
<path d="M 0.890625 -5.515625 C 1.34375 -5.578125 1.78125 -5.546875 2.1875 -5.765625 L 2.1875 -0.59375 L 0.953125 -0.59375 L 0.953125 -0.015625 L 4.234375 -0.015625 L 4.234375 -0.59375 L 2.984375 -0.59375 L 2.984375 -6.765625 L 2.875 -6.765625 C 2.71875 -6.765625 2.515625 -6.53125 2.359375 -6.4375 C 1.96875 -6.203125 1.5 -6.109375 1.0625 -6.109375 L 1 -6.109375 C 0.921875 -6.109375 0.890625 -6.078125 0.890625 -5.984375 Z M 0.890625 -5.515625 "/>
</g>
<g id="glyph-0-3">
<path d="M 0.96875 -0.84375 L 0.96875 -0.015625 L 1.21875 -0.015625 L 0.953125 1.234375 L 1.390625 1.234375 L 1.796875 0 L 1.796875 -0.84375 Z M 0.96875 -0.84375 "/>
</g>
<g id="glyph-0-4">
<path d="M 0.546875 -7.484375 C 0.671875 -7.34375 0.8125 -7.203125 0.9375 -7.0625 C 2 -5.75 2.28125 -4.0625 2.28125 -2.453125 C 2.28125 -0.859375 1.953125 0.796875 0.9375 2.046875 C 0.8125 2.203125 0.671875 2.328125 0.546875 2.484375 L 1.0625 2.484375 C 1.25 2.484375 1.453125 2.203125 1.578125 2.046875 C 2.65625 0.859375 3.0625 -0.859375 3.0625 -2.46875 C 3.0625 -4.1875 2.640625 -6.125 1.3125 -7.34375 C 1.21875 -7.40625 1.203125 -7.484375 1.0625 -7.484375 Z M 0.546875 -7.484375 "/>
</g>
<g id="glyph-1-0">
<path d="M 3.328125 -3.015625 C 3.390625 -3.265625 3.625 -4.1875 4.3125 -4.1875 C 4.359375 -4.1875 4.609375 -4.1875 4.8125 -4.0625 C 4.53125 -4 4.34375 -3.765625 4.34375 -3.515625 C 4.34375 -3.359375 4.453125 -3.171875 4.71875 -3.171875 C 4.9375 -3.171875 5.25 -3.34375 5.25 -3.75 C 5.25 -4.265625 4.671875 -4.40625 4.328125 -4.40625 C 3.75 -4.40625 3.40625 -3.875 3.28125 -3.65625 C 3.03125 -4.3125 2.5 -4.40625 2.203125 -4.40625 C 1.171875 -4.40625 0.59375 -3.125 0.59375 -2.875 C 0.59375 -2.765625 0.703125 -2.765625 0.71875 -2.765625 C 0.796875 -2.765625 0.828125 -2.796875 0.84375 -2.875 C 1.1875 -3.9375 1.84375 -4.1875 2.1875 -4.1875 C 2.375 -4.1875 2.71875 -4.09375 2.71875 -3.515625 C 2.71875 -3.203125 2.546875 -2.546875 2.1875 -1.140625 C 2.03125 -0.53125 1.671875 -0.109375 1.234375 -0.109375 C 1.171875 -0.109375 0.953125 -0.109375 0.734375 -0.234375 C 0.984375 -0.296875 1.203125 -0.5 1.203125 -0.78125 C 1.203125 -1.046875 0.984375 -1.125 0.84375 -1.125 C 0.53125 -1.125 0.296875 -0.875 0.296875 -0.546875 C 0.296875 -0.09375 0.78125 0.109375 1.21875 0.109375 C 1.890625 0.109375 2.25 -0.59375 2.265625 -0.640625 C 2.390625 -0.28125 2.75 0.109375 3.34375 0.109375 C 4.375 0.109375 4.9375 -1.171875 4.9375 -1.421875 C 4.9375 -1.53125 4.859375 -1.53125 4.828125 -1.53125 C 4.734375 -1.53125 4.71875 -1.484375 4.6875 -1.421875 C 4.359375 -0.34375 3.6875 -0.109375 3.375 -0.109375 C 2.984375 -0.109375 2.828125 -0.421875 2.828125 -0.765625 C 2.828125 -0.984375 2.875 -1.203125 2.984375 -1.640625 Z M 3.328125 -3.015625 "/>
</g>
<g id="glyph-1-1">
<path d="M 4.84375 -3.796875 C 4.890625 -3.9375 4.890625 -3.953125 4.890625 -4.03125 C 4.890625 -4.203125 4.75 -4.296875 4.59375 -4.296875 C 4.5 -4.296875 4.34375 -4.234375 4.25 -4.09375 C 4.234375 -4.03125 4.140625 -3.734375 4.109375 -3.546875 C 4.03125 -3.296875 3.96875 -3.015625 3.90625 -2.75 L 3.453125 -0.953125 C 3.421875 -0.8125 2.984375 -0.109375 2.328125 -0.109375 C 1.828125 -0.109375 1.71875 -0.546875 1.71875 -0.921875 C 1.71875 -1.375 1.890625 -2 2.21875 -2.875 C 2.375 -3.28125 2.421875 -3.390625 2.421875 -3.59375 C 2.421875 -4.03125 2.109375 -4.40625 1.609375 -4.40625 C 0.65625 -4.40625 0.296875 -2.953125 0.296875 -2.875 C 0.296875 -2.765625 0.390625 -2.765625 0.40625 -2.765625 C 0.515625 -2.765625 0.515625 -2.796875 0.5625 -2.953125 C 0.84375 -3.890625 1.234375 -4.1875 1.578125 -4.1875 C 1.65625 -4.1875 1.828125 -4.1875 1.828125 -3.875 C 1.828125 -3.625 1.71875 -3.359375 1.65625 -3.171875 C 1.25 -2.109375 1.078125 -1.546875 1.078125 -1.078125 C 1.078125 -0.1875 1.703125 0.109375 2.296875 0.109375 C 2.6875 0.109375 3.015625 -0.0625 3.296875 -0.34375 C 3.171875 0.171875 3.046875 0.671875 2.65625 1.203125 C 2.390625 1.53125 2.015625 1.828125 1.5625 1.828125 C 1.421875 1.828125 0.96875 1.796875 0.796875 1.40625 C 0.953125 1.40625 1.09375 1.40625 1.21875 1.28125 C 1.328125 1.203125 1.421875 1.0625 1.421875 0.875 C 1.421875 0.5625 1.15625 0.53125 1.0625 0.53125 C 0.828125 0.53125 0.5 0.6875 0.5 1.171875 C 0.5 1.671875 0.9375 2.046875 1.5625 2.046875 C 2.578125 2.046875 3.609375 1.140625 3.890625 0.015625 Z M 4.84375 -3.796875 "/>
</g>
<g id="glyph-1-2">
<path d="M 1.328125 -0.828125 C 1.859375 -1.40625 2.15625 -1.65625 2.515625 -1.96875 C 2.515625 -1.96875 3.125 -2.5 3.484375 -2.859375 C 4.4375 -3.78125 4.65625 -4.265625 4.65625 -4.3125 C 4.65625 -4.40625 4.5625 -4.40625 4.546875 -4.40625 C 4.46875 -4.40625 4.453125 -4.390625 4.390625 -4.296875 C 4.09375 -3.8125 3.890625 -3.65625 3.65625 -3.65625 C 3.40625 -3.65625 3.296875 -3.8125 3.140625 -3.984375 C 2.953125 -4.203125 2.78125 -4.40625 2.453125 -4.40625 C 1.703125 -4.40625 1.25 -3.484375 1.25 -3.265625 C 1.25 -3.21875 1.28125 -3.15625 1.359375 -3.15625 C 1.453125 -3.15625 1.46875 -3.203125 1.5 -3.265625 C 1.6875 -3.734375 2.265625 -3.734375 2.34375 -3.734375 C 2.546875 -3.734375 2.734375 -3.671875 2.96875 -3.59375 C 3.375 -3.4375 3.484375 -3.4375 3.734375 -3.4375 C 3.375 -3.015625 2.546875 -2.296875 2.359375 -2.140625 L 1.453125 -1.296875 C 0.78125 -0.625 0.421875 -0.0625 0.421875 0.015625 C 0.421875 0.109375 0.53125 0.109375 0.546875 0.109375 C 0.625 0.109375 0.640625 0.09375 0.703125 -0.015625 C 0.9375 -0.375 1.234375 -0.640625 1.5625 -0.640625 C 1.78125 -0.640625 1.890625 -0.546875 2.140625 -0.265625 C 2.296875 -0.046875 2.484375 0.109375 2.765625 0.109375 C 3.765625 0.109375 4.34375 -1.15625 4.34375 -1.421875 C 4.34375 -1.46875 4.296875 -1.53125 4.21875 -1.53125 C 4.125 -1.53125 4.109375 -1.46875 4.078125 -1.390625 C 3.84375 -0.75 3.203125 -0.5625 2.875 -0.5625 C 2.6875 -0.5625 2.5 -0.625 2.296875 -0.6875 C 1.953125 -0.8125 1.796875 -0.859375 1.59375 -0.859375 C 1.578125 -0.859375 1.421875 -0.859375 1.328125 -0.828125 Z M 1.328125 -0.828125 "/>
</g>
<g id="glyph-2-0">
<path d="M 2.8125 1.984375 C 2.71875 1.859375 2.5625 1.734375 2.46875 1.609375 C 1.640625 0.625 1.375 -0.6875 1.375 -1.953125 C 1.375 -3.234375 1.625 -4.59375 2.453125 -5.609375 L 2.6875 -5.859375 C 2.734375 -5.90625 2.78125 -5.9375 2.8125 -5.984375 L 2.375 -5.984375 C 2.203125 -5.984375 2.03125 -5.75 1.890625 -5.609375 C 0.984375 -4.609375 0.671875 -3.265625 0.671875 -1.9375 C 0.671875 -0.5625 1.09375 0.921875 2.171875 1.875 C 2.234375 1.921875 2.25 1.984375 2.375 1.984375 Z M 2.8125 1.984375 "/>
</g>
<g id="glyph-2-1">
<path d="M 0.09375 -2.03125 L 0.09375 -1.53125 L 2.34375 -1.53125 L 2.34375 -2.03125 Z M 0.09375 -2.03125 "/>
</g>
<g id="glyph-2-2">
<path d="M 0.734375 -4.875 L 0.734375 -4.375 C 1.109375 -4.375 1.5 -4.421875 1.84375 -4.5625 L 1.84375 -0.515625 L 0.78125 -0.515625 L 0.78125 -0.015625 L 3.625 -0.015625 L 3.625 -0.515625 L 2.5625 -0.515625 L 2.5625 -5.40625 L 2.46875 -5.40625 C 2.34375 -5.40625 2.296875 -5.328125 2.203125 -5.265625 C 1.78125 -4.953125 1.25 -4.875 0.734375 -4.875 Z M 0.734375 -4.875 "/>
</g>
<g id="glyph-2-3">
<path d="M 0.8125 -0.734375 L 0.8125 -0.015625 L 1.03125 -0.015625 L 0.8125 1.015625 L 1.171875 1.015625 L 1.53125 0 L 1.53125 -0.734375 Z M 0.8125 -0.734375 "/>
</g>
<g id="glyph-2-4">
<path d="M 0.46875 -5.984375 C 0.5 -5.9375 0.546875 -5.90625 0.59375 -5.859375 L 0.828125 -5.609375 C 1.671875 -4.59375 1.90625 -3.21875 1.90625 -1.953125 C 1.90625 -0.59375 1.59375 0.859375 0.59375 1.859375 C 0.546875 1.90625 0.5 1.9375 0.46875 1.984375 L 0.90625 1.984375 C 1.0625 1.984375 1.21875 1.796875 1.328125 1.6875 C 2.25 0.71875 2.609375 -0.671875 2.609375 -1.9375 C 2.609375 -3.375 2.234375 -4.859375 1.125 -5.859375 C 1.0625 -5.921875 1.03125 -5.984375 0.90625 -5.984375 Z M 0.46875 -5.984375 "/>
</g>
</g>
</defs>
<g fill="rgb(0%, 0%, 0%)" fill-opacity="1">
<use xlink:href="#glyph-0-0" x="138.619" y="148.72"/>
<use xlink:href="#glyph-0-1" x="142.492459" y="148.72"/>
<use xlink:href="#glyph-0-2" x="145.812993" y="148.72"/>
<use xlink:href="#glyph-0-3" x="150.793297" y="148.72"/>
<use xlink:href="#glyph-0-1" x="153.559911" y="148.72"/>
<use xlink:href="#glyph-0-2" x="156.880446" y="148.72"/>
<use xlink:href="#glyph-0-3" x="161.86075" y="148.72"/>
<use xlink:href="#glyph-0-1" x="164.627364" y="148.72"/>
<use xlink:href="#glyph-0-2" x="167.947898" y="148.72"/>
<use xlink:href="#glyph-0-4" x="172.928202" y="148.72"/>
</g>
<path fill="none" stroke-width="0.3985" stroke-linecap="butt" stroke-linejoin="miter" stroke="rgb(0%, 0%, 0%)" stroke-opacity="1" stroke-miterlimit="10" d="M -85.24075 -44.457406 L -5.326687 -73.543344 L 85.239719 -40.582406 L 5.325656 -11.496469 L -85.24075 -44.457406 M -85.24075 -44.457406 L -85.24075 40.581656 L 5.325656 73.5465 L 5.325656 -11.496469 M 85.239719 -40.582406 L 85.239719 44.460562 L 5.325656 73.5465 M -5.326687 -73.543344 L 5.325656 -11.496469 M 85.239719 -40.582406 L 5.325656 73.5465 M 5.325656 -11.496469 L -85.24075 40.581656 " transform="matrix(1, 0, 0, -1, 129.772, 143.234)"/>
<path fill="none" stroke-width="0.99628" stroke-linecap="butt" stroke-linejoin="miter" stroke="rgb(100%, 0%, 0%)" stroke-opacity="1" stroke-miterlimit="10" d="M 0.0014375 -0.000375 L 25.083469 -9.129281 " transform="matrix(1, 0, 0, -1, 129.772, 143.234)"/>
<path fill-rule="nonzero" fill="rgb(100%, 0%, 0%)" fill-opacity="1" stroke-width="0.99628" stroke-linecap="butt" stroke-linejoin="round" stroke="rgb(100%, 0%, 0%)" stroke-opacity="1" stroke-miterlimit="10" d="M 1.155372 0.00110595 C -0.288475 0.290342 -1.732746 0.866259 -3.468172 1.876615 C -1.732323 0.579577 -1.735299 -0.577165 -3.465667 -1.876285 C -1.73354 -0.867518 -0.289964 -0.288029 1.155372 0.00110595 Z M 1.155372 0.00110595 " transform="matrix(0.93967, 0.34203, 0.34203, -0.93967, 154.85536, 152.36368)"/>
<g fill="rgb(100%, 0%, 0%)" fill-opacity="1">
<use xlink:href="#glyph-1-0" x="158.889" y="157.012"/>
</g>
<path fill="none" stroke-width="0.99628" stroke-linecap="butt" stroke-linejoin="miter" stroke="rgb(0%, 79.998779%, 0%)" stroke-opacity="1" stroke-miterlimit="10" d="M 0.0014375 -0.000375 L 0.0014375 26.691031 " transform="matrix(1, 0, 0, -1, 129.772, 143.234)"/>
<path fill-rule="nonzero" fill="rgb(0%, 79.998779%, 0%)" fill-opacity="1" stroke-width="0.99628" stroke-linecap="butt" stroke-linejoin="round" stroke="rgb(0%, 79.998779%, 0%)" stroke-opacity="1" stroke-miterlimit="10" d="M 1.154301 -0.0014375 C -0.287105 0.287625 -1.732418 0.86575 -3.466793 1.877469 C -1.732418 0.576687 -1.732418 -0.579563 -3.466793 -1.876438 C -1.732418 -0.868625 -0.287105 -0.2905 1.154301 -0.0014375 Z M 1.154301 -0.0014375 " transform="matrix(0, -1, -1, 0, 129.772, 116.54102)"/>
<g fill="rgb(0%, 79.998779%, 0%)" fill-opacity="1">
<use xlink:href="#glyph-1-1" x="127.151" y="110.394"/>
</g>
<path fill="none" stroke-width="0.99628" stroke-linecap="butt" stroke-linejoin="miter" stroke="rgb(0%, 0%, 100%)" stroke-opacity="1" stroke-miterlimit="10" d="M 0.0014375 -0.000375 L -25.0845 -9.129281 " transform="matrix(1, 0, 0, -1, 129.772, 143.234)"/>
<path fill-rule="nonzero" fill="rgb(0%, 0%, 100%)" fill-opacity="1" stroke-width="0.99628" stroke-linecap="butt" stroke-linejoin="round" stroke="rgb(0%, 0%, 100%)" stroke-opacity="1" stroke-miterlimit="10" d="M 1.156341 -0.00145868 C -0.288995 0.287677 -1.732571 0.867165 -3.468368 1.877268 C -1.73433 0.576812 -1.735024 -0.578594 -3.467203 -1.876967 C -1.731777 -0.866612 -0.287506 -0.290694 1.156341 -0.00145868 Z M 1.156341 -0.00145868 " transform="matrix(-0.93967, 0.34203, 0.34203, 0.93967, 104.68864, 152.36368)"/>
<g fill="rgb(0%, 0%, 100%)" fill-opacity="1">
<use xlink:href="#glyph-1-2" x="95.272" y="157.012"/>
</g>
<path fill-rule="nonzero" fill="rgb(100%, 100%, 100%)" fill-opacity="0.5" d="M 44.53125 187.691406 L 124.445312 216.777344 L 215.011719 183.816406 L 215.011719 98.773438 L 135.097656 69.6875 L 44.53125 102.652344 L 44.53125 187.691406 "/>
<path fill="none" stroke-width="0.3985" stroke-linecap="butt" stroke-linejoin="miter" stroke="rgb(0%, 0%, 0%)" stroke-opacity="1" stroke-miterlimit="10" d="M -5.326687 -73.543344 L -5.326687 11.495719 L -85.24075 40.581656 M -5.326687 11.495719 L 85.239719 44.460562 M -85.24075 -44.457406 L -5.326687 11.495719 M -5.326687 -73.543344 L 85.239719 44.460562 M -85.24075 40.581656 L 85.239719 44.460562 " transform="matrix(1, 0, 0, -1, 129.772, 143.234)"/>
<g fill="rgb(0%, 0%, 0%)" fill-opacity="1">
<use xlink:href="#glyph-0-0" x="6.154" y="198.647"/>
<use xlink:href="#glyph-0-1" x="10.027459" y="198.647"/>
<use xlink:href="#glyph-0-2" x="13.347993" y="198.647"/>
<use xlink:href="#glyph-0-3" x="18.328297" y="198.647"/>
<use xlink:href="#glyph-0-1" x="21.094911" y="198.647"/>
<use xlink:href="#glyph-0-2" x="24.415446" y="198.647"/>
<use xlink:href="#glyph-0-3" x="29.39575" y="198.647"/>
<use xlink:href="#glyph-0-2" x="32.162364" y="198.647"/>
<use xlink:href="#glyph-0-4" x="37.142667" y="198.647"/>
</g>
<g fill="rgb(0%, 0%, 0%)" fill-opacity="1">
<use xlink:href="#glyph-0-0" x="108.675" y="227.732"/>
<use xlink:href="#glyph-0-2" x="112.548459" y="227.732"/>
<use xlink:href="#glyph-0-3" x="117.528763" y="227.732"/>
<use xlink:href="#glyph-0-1" x="120.295377" y="227.732"/>
<use xlink:href="#glyph-0-2" x="123.615911" y="227.732"/>
<use xlink:href="#glyph-0-3" x="128.596215" y="227.732"/>
<use xlink:href="#glyph-0-2" x="131.362829" y="227.732"/>
<use xlink:href="#glyph-0-4" x="136.343133" y="227.732"/>
</g>
<g fill="rgb(0%, 0%, 0%)" fill-opacity="1">
<use xlink:href="#glyph-0-0" x="218.53" y="186.287"/>
<use xlink:href="#glyph-0-2" x="222.403459" y="186.287"/>
<use xlink:href="#glyph-0-3" x="227.383763" y="186.287"/>
<use xlink:href="#glyph-0-1" x="230.150377" y="186.287"/>
<use xlink:href="#glyph-0-2" x="233.470911" y="186.287"/>
<use xlink:href="#glyph-0-3" x="238.451215" y="186.287"/>
<use xlink:href="#glyph-0-1" x="241.217829" y="186.287"/>
<use xlink:href="#glyph-0-2" x="244.538364" y="186.287"/>
<use xlink:href="#glyph-0-4" x="249.518667" y="186.287"/>
</g>
<g fill="rgb(0%, 0%, 0%)" fill-opacity="1">
<use xlink:href="#glyph-0-0" x="9.474" y="105.126"/>
<use xlink:href="#glyph-0-1" x="13.347459" y="105.126"/>
<use xlink:href="#glyph-0-2" x="16.667993" y="105.126"/>
<use xlink:href="#glyph-0-3" x="21.648297" y="105.126"/>
<use xlink:href="#glyph-0-2" x="24.414911" y="105.126"/>
<use xlink:href="#glyph-0-3" x="29.395215" y="105.126"/>
<use xlink:href="#glyph-0-2" x="32.161829" y="105.126"/>
<use xlink:href="#glyph-0-4" x="37.142133" y="105.126"/>
</g>
<g fill="rgb(0%, 0%, 0%)" fill-opacity="1">
<use xlink:href="#glyph-0-0" x="92.706" y="142.693"/>
<use xlink:href="#glyph-0-2" x="96.579459" y="142.693"/>
<use xlink:href="#glyph-0-3" x="101.559763" y="142.693"/>
<use xlink:href="#glyph-0-2" x="104.326377" y="142.693"/>
<use xlink:href="#glyph-0-3" x="109.30668" y="142.693"/>
<use xlink:href="#glyph-0-2" x="112.073294" y="142.693"/>
<use xlink:href="#glyph-0-4" x="117.053598" y="142.693"/>
</g>
<g fill="rgb(0%, 0%, 0%)" fill-opacity="1">
<use xlink:href="#glyph-0-0" x="218.53" y="101.248"/>
<use xlink:href="#glyph-0-2" x="222.403459" y="101.248"/>
<use xlink:href="#glyph-0-3" x="227.383763" y="101.248"/>
<use xlink:href="#glyph-0-2" x="230.150377" y="101.248"/>
<use xlink:href="#glyph-0-3" x="235.13068" y="101.248"/>
<use xlink:href="#glyph-0-1" x="237.897294" y="101.248"/>
<use xlink:href="#glyph-0-2" x="241.217829" y="101.248"/>
<use xlink:href="#glyph-0-4" x="246.198133" y="101.248"/>
</g>
<g fill="rgb(0%, 0%, 0%)" fill-opacity="1">
<use xlink:href="#glyph-0-0" x="117.669" y="63.681"/>
<use xlink:href="#glyph-0-1" x="121.542459" y="63.681"/>
<use xlink:href="#glyph-0-2" x="124.862993" y="63.681"/>
<use xlink:href="#glyph-0-3" x="129.843297" y="63.681"/>
<use xlink:href="#glyph-0-2" x="132.609911" y="63.681"/>
<use xlink:href="#glyph-0-3" x="137.590215" y="63.681"/>
<use xlink:href="#glyph-0-1" x="140.356829" y="63.681"/>
<use xlink:href="#glyph-0-2" x="143.677364" y="63.681"/>
<use xlink:href="#glyph-0-4" x="148.657667" y="63.681"/>
</g>
<path fill="none" stroke-width="0.3985" stroke-linecap="butt" stroke-linejoin="miter" stroke="rgb(0%, 0%, 0%)" stroke-opacity="1" stroke-miterlimit="10" d="M 198.228 -44.457406 L 368.310031 -44.457406 L 368.310031 12.234 L 198.228 12.234 L 198.228 -44.457406 M 254.923313 -101.152719 L 311.614719 -101.152719 L 311.614719 125.620719 L 254.923313 125.620719 L 254.923313 -101.152719 M 254.923313 68.929312 L 311.614719 68.929312 M 311.614719 -44.457406 L 254.923313 12.234 M 311.614719 12.234 L 254.923313 68.929312 M 254.923313 68.929312 L 311.614719 125.620719 M 311.614719 -44.457406 L 368.310031 12.234 M 198.228 -44.457406 L 254.923313 12.234 M 254.923313 -44.457406 L 311.614719 -101.152719 " transform="matrix(1, 0, 0, -1, 129.772, 143.234)"/>
<g fill="rgb(0%, 0%, 0%)" fill-opacity="1">
<use xlink:href="#glyph-2-0" x="351.541" y="197.16"/>
<use xlink:href="#glyph-2-1" x="354.833448" y="197.16"/>
<use xlink:href="#glyph-2-2" x="357.655661" y="197.16"/>
<use xlink:href="#glyph-2-3" x="361.888581" y="197.16"/>
<use xlink:href="#glyph-2-1" x="364.240557" y="197.16"/>
<use xlink:href="#glyph-2-2" x="367.06277" y="197.16"/>
<use xlink:href="#glyph-2-3" x="371.29569" y="197.16"/>
<use xlink:href="#glyph-2-2" x="373.647666" y="197.16"/>
<use xlink:href="#glyph-2-4" x="377.880586" y="197.16"/>
</g>
<g fill="rgb(0%, 0%, 0%)" fill-opacity="1">
<use xlink:href="#glyph-2-0" x="444.903" y="197.16"/>
<use xlink:href="#glyph-2-2" x="448.195448" y="197.16"/>
<use xlink:href="#glyph-2-3" x="452.428368" y="197.16"/>
<use xlink:href="#glyph-2-1" x="454.780345" y="197.16"/>
<use xlink:href="#glyph-2-2" x="457.602557" y="197.16"/>
<use xlink:href="#glyph-2-3" x="461.835477" y="197.16"/>
<use xlink:href="#glyph-2-2" x="464.187454" y="197.16"/>
<use xlink:href="#glyph-2-4" x="468.420374" y="197.16"/>
</g>
<g fill="rgb(0%, 0%, 0%)" fill-opacity="1">
<use xlink:href="#glyph-2-0" x="444.903" y="125.488"/>
<use xlink:href="#glyph-2-2" x="448.195448" y="125.488"/>
<use xlink:href="#glyph-2-3" x="452.428368" y="125.488"/>
<use xlink:href="#glyph-2-1" x="454.780345" y="125.488"/>
<use xlink:href="#glyph-2-2" x="457.602557" y="125.488"/>
<use xlink:href="#glyph-2-3" x="461.835477" y="125.488"/>
<use xlink:href="#glyph-2-1" x="464.187454" y="125.488"/>
<use xlink:href="#glyph-2-2" x="467.009666" y="125.488"/>
<use xlink:href="#glyph-2-4" x="471.242586" y="125.488"/>
</g>
<g fill="rgb(0%, 0%, 0%)" fill-opacity="1">
<use xlink:href="#glyph-2-0" x="348.719" y="125.488"/>
<use xlink:href="#glyph-2-1" x="352.011448" y="125.488"/>
<use xlink:href="#glyph-2-2" x="354.833661" y="125.488"/>
<use xlink:href="#glyph-2-3" x="359.066581" y="125.488"/>
<use xlink:href="#glyph-2-1" x="361.418557" y="125.488"/>
<use xlink:href="#glyph-2-2" x="364.24077" y="125.488"/>
<use xlink:href="#glyph-2-3" x="368.47369" y="125.488"/>
<use xlink:href="#glyph-2-1" x="370.825666" y="125.488"/>
<use xlink:href="#glyph-2-2" x="373.647879" y="125.488"/>
<use xlink:href="#glyph-2-4" x="377.880799" y="125.488"/>
</g>
<g fill="rgb(0%, 0%, 0%)" fill-opacity="1">
<use xlink:href="#glyph-2-0" x="371.287" y="253.853"/>
<use xlink:href="#glyph-2-1" x="374.579448" y="253.853"/>
<use xlink:href="#glyph-2-2" x="377.401661" y="253.853"/>
<use xlink:href="#glyph-2-3" x="381.634581" y="253.853"/>
<use xlink:href="#glyph-2-2" x="383.986557" y="253.853"/>
<use xlink:href="#glyph-2-3" x="388.219477" y="253.853"/>
<use xlink:href="#glyph-2-2" x="390.571454" y="253.853"/>
<use xlink:href="#glyph-2-4" x="394.804374" y="253.853"/>
</g>
<g fill="rgb(0%, 0%, 0%)" fill-opacity="1">
<use xlink:href="#glyph-2-0" x="429.39" y="253.853"/>
<use xlink:href="#glyph-2-2" x="432.682448" y="253.853"/>
<use xlink:href="#glyph-2-3" x="436.915368" y="253.853"/>
<use xlink:href="#glyph-2-2" x="439.267345" y="253.853"/>
<use xlink:href="#glyph-2-3" x="443.500265" y="253.853"/>
<use xlink:href="#glyph-2-2" x="445.852242" y="253.853"/>
<use xlink:href="#glyph-2-4" x="450.085162" y="253.853"/>
</g>
<g fill="rgb(0%, 0%, 0%)" fill-opacity="1">
<use xlink:href="#glyph-2-0" x="297.67" y="189.671"/>
<use xlink:href="#glyph-2-1" x="300.962448" y="189.671"/>
<use xlink:href="#glyph-2-2" x="303.784661" y="189.671"/>
<use xlink:href="#glyph-2-3" x="308.017581" y="189.671"/>
<use xlink:href="#glyph-2-2" x="310.369557" y="189.671"/>
<use xlink:href="#glyph-2-3" x="314.602477" y="189.671"/>
<use xlink:href="#glyph-2-2" x="316.954454" y="189.671"/>
<use xlink:href="#glyph-2-4" x="321.187374" y="189.671"/>
</g>
<g fill="rgb(0%, 0%, 0%)" fill-opacity="1">
<use xlink:href="#glyph-2-0" x="294.848" y="132.978"/>
<use xlink:href="#glyph-2-1" x="298.140448" y="132.978"/>
<use xlink:href="#glyph-2-2" x="300.962661" y="132.978"/>
<use xlink:href="#glyph-2-3" x="305.195581" y="132.978"/>
<use xlink:href="#glyph-2-2" x="307.547557" y="132.978"/>
<use xlink:href="#glyph-2-3" x="311.780477" y="132.978"/>
<use xlink:href="#glyph-2-1" x="314.132454" y="132.978"/>
<use xlink:href="#glyph-2-2" x="316.954666" y="132.978"/>
<use xlink:href="#glyph-2-4" x="321.187586" y="132.978"/>
</g>
<g fill="rgb(0%, 0%, 0%)" fill-opacity="1">
<use xlink:href="#glyph-2-0" x="501.596" y="189.671"/>
<use xlink:href="#glyph-2-2" x="504.888448" y="189.671"/>
<use xlink:href="#glyph-2-3" x="509.121368" y="189.671"/>
<use xlink:href="#glyph-2-2" x="511.473345" y="189.671"/>
<use xlink:href="#glyph-2-3" x="515.706265" y="189.671"/>
<use xlink:href="#glyph-2-1" x="518.058242" y="189.671"/>
<use xlink:href="#glyph-2-2" x="520.880454" y="189.671"/>
<use xlink:href="#glyph-2-4" x="525.113374" y="189.671"/>
</g>
<g fill="rgb(0%, 0%, 0%)" fill-opacity="1">
<use xlink:href="#glyph-2-0" x="501.596" y="132.978"/>
<use xlink:href="#glyph-2-2" x="504.888448" y="132.978"/>
<use xlink:href="#glyph-2-3" x="509.121368" y="132.978"/>
<use xlink:href="#glyph-2-2" x="511.473345" y="132.978"/>
<use xlink:href="#glyph-2-3" x="515.706265" y="132.978"/>
<use xlink:href="#glyph-2-2" x="518.058242" y="132.978"/>
<use xlink:href="#glyph-2-4" x="522.291162" y="132.978"/>
</g>
<g fill="rgb(0%, 0%, 0%)" fill-opacity="1">
<use xlink:href="#glyph-2-0" x="351.541" y="76.285"/>
<use xlink:href="#glyph-2-1" x="354.833448" y="76.285"/>
<use xlink:href="#glyph-2-2" x="357.655661" y="76.285"/>
<use xlink:href="#glyph-2-3" x="361.888581" y="76.285"/>
<use xlink:href="#glyph-2-2" x="364.240557" y="76.285"/>
<use xlink:href="#glyph-2-3" x="368.473477" y="76.285"/>
<use xlink:href="#glyph-2-1" x="370.825454" y="76.285"/>
<use xlink:href="#glyph-2-2" x="373.647666" y="76.285"/>
<use xlink:href="#glyph-2-4" x="377.880586" y="76.285"/>
</g>
<g fill="rgb(0%, 0%, 0%)" fill-opacity="1">
<use xlink:href="#glyph-2-0" x="444.903" y="76.285"/>
<use xlink:href="#glyph-2-2" x="448.195448" y="76.285"/>
<use xlink:href="#glyph-2-3" x="452.428368" y="76.285"/>
<use xlink:href="#glyph-2-2" x="454.780345" y="76.285"/>
<use xlink:href="#glyph-2-3" x="459.013265" y="76.285"/>
<use xlink:href="#glyph-2-1" x="461.365242" y="76.285"/>
<use xlink:href="#glyph-2-2" x="464.187454" y="76.285"/>
<use xlink:href="#glyph-2-4" x="468.420374" y="76.285"/>
</g>
<g fill="rgb(0%, 0%, 0%)" fill-opacity="1">
<use xlink:href="#glyph-2-0" x="429.39" y="12.103"/>
<use xlink:href="#glyph-2-2" x="432.682448" y="12.103"/>
<use xlink:href="#glyph-2-3" x="436.915368" y="12.103"/>
<use xlink:href="#glyph-2-2" x="439.267345" y="12.103"/>
<use xlink:href="#glyph-2-3" x="443.500265" y="12.103"/>
<use xlink:href="#glyph-2-2" x="445.852242" y="12.103"/>
<use xlink:href="#glyph-2-4" x="450.085162" y="12.103"/>
</g>
<g fill="rgb(0%, 0%, 0%)" fill-opacity="1">
<use xlink:href="#glyph-2-0" x="371.287" y="12.103"/>
<use xlink:href="#glyph-2-1" x="374.579448" y="12.103"/>
<use xlink:href="#glyph-2-2" x="377.401661" y="12.103"/>
<use xlink:href="#glyph-2-3" x="381.634581" y="12.103"/>
<use xlink:href="#glyph-2-2" x="383.986557" y="12.103"/>
<use xlink:href="#glyph-2-3" x="388.219477" y="12.103"/>
<use xlink:href="#glyph-2-2" x="390.571454" y="12.103"/>
<use xlink:href="#glyph-2-4" x="394.804374" y="12.103"/>
</g>
</svg>
