<?xml version="1.0" encoding="UTF-8"?>
<svg xmlns="http://www.w3.org/2000/svg" xmlns:xlink="http://www.w3.org/1999/xlink" width="136.832pt" height="136.622pt" viewBox="0 0 136.832 136.622" version="1.1">
<defs>
<g>
<symbol overflow="visible" id="glyph0-0">
<path style="stroke:none;" d=""/>
</symbol>
<symbol overflow="visible" id="glyph0-1">
<path style="stroke:none;" d="M 3.328125 -3.015625 C 3.390625 -3.265625 3.625 -4.1875 4.3125 -4.1875 C 4.359375 -4.1875 4.609375 -4.1875 4.8125 -4.0625 C 4.53125 -4 4.34375 -3.765625 4.34375 -3.515625 C 4.34375 -3.359375 4.453125 -3.171875 4.71875 -3.171875 C 4.9375 -3.171875 5.25 -3.34375 5.25 -3.75 C 5.25 -4.265625 4.671875 -4.40625 4.328125 -4.40625 C 3.75 -4.40625 3.40625 -3.875 3.28125 -3.65625 C 3.03125 -4.3125 2.5 -4.40625 2.203125 -4.40625 C 1.171875 -4.40625 0.59375 -3.125 0.59375 -2.875 C 0.59375 -2.765625 0.703125 -2.765625 0.71875 -2.765625 C 0.796875 -2.765625 0.828125 -2.796875 0.84375 -2.875 C 1.1875 -3.9375 1.84375 -4.1875 2.1875 -4.1875 C 2.375 -4.1875 2.71875 -4.09375 2.71875 -3.515625 C 2.71875 -3.203125 2.546875 -2.546875 2.1875 -1.140625 C 2.03125 -0.53125 1.671875 -0.109375 1.234375 -0.109375 C 1.171875 -0.109375 0.953125 -0.109375 0.734375 -0.234375 C 0.984375 -0.296875 1.203125 -0.5 1.203125 -0.78125 C 1.203125 -1.046875 0.984375 -1.125 0.84375 -1.125 C 0.53125 -1.125 0.296875 -0.875 0.296875 -0.546875 C 0.296875 -0.09375 0.78125 0.109375 1.21875 0.109375 C 1.890625 0.109375 2.25 -0.59375 2.265625 -0.640625 C 2.390625 -0.28125 2.75 0.109375 3.34375 0.109375 C 4.375 0.109375 4.9375 -1.171875 4.9375 -1.421875 C 4.9375 -1.53125 4.859375 -1.53125 4.828125 -1.53125 C 4.734375 -1.53125 4.71875 -1.484375 4.6875 -1.421875 C 4.359375 -0.34375 3.6875 -0.109375 3.375 -0.109375 C 2.984375 -0.109375 2.828125 -0.421875 2.828125 -0.765625 C 2.828125 -0.984375 2.875 -1.203125 2.984375 -1.640625 Z M 3.328125 -3.015625 "/>
</symbol>
<symbol overflow="visible" id="glyph0-2">
<path style="stroke:none;" d="M 4.84375 -3.796875 C 4.890625 -3.9375 4.890625 -3.953125 4.890625 -4.03125 C 4.890625 -4.203125 4.75 -4.296875 4.59375 -4.296875 C 4.5 -4.296875 4.34375 -4.234375 4.25 -4.09375 C 4.234375 -4.03125 4.140625 -3.734375 4.109375 -3.546875 C 4.03125 -3.296875 3.96875 -3.015625 3.90625 -2.75 L 3.453125 -0.953125 C 3.421875 -0.8125 2.984375 -0.109375 2.328125 -0.109375 C 1.828125 -0.109375 1.71875 -0.546875 1.71875 -0.921875 C 1.71875 -1.375 1.890625 -2 2.21875 -2.875 C 2.375 -3.28125 2.421875 -3.390625 2.421875 -3.59375 C 2.421875 -4.03125 2.109375 -4.40625 1.609375 -4.40625 C 0.65625 -4.40625 0.296875 -2.953125 0.296875 -2.875 C 0.296875 -2.765625 0.390625 -2.765625 0.40625 -2.765625 C 0.515625 -2.765625 0.515625 -2.796875 0.5625 -2.953125 C 0.84375 -3.890625 1.234375 -4.1875 1.578125 -4.1875 C 1.65625 -4.1875 1.828125 -4.1875 1.828125 -3.875 C 1.828125 -3.625 1.71875 -3.359375 1.65625 -3.171875 C 1.25 -2.109375 1.078125 -1.546875 1.078125 -1.078125 C 1.078125 -0.1875 1.703125 0.109375 2.296875 0.109375 C 2.6875 0.109375 3.015625 -0.0625 3.296875 -0.34375 C 3.171875 0.171875 3.046875 0.671875 2.65625 1.203125 C 2.390625 1.53125 2.015625 1.828125 1.5625 1.828125 C 1.421875 1.828125 0.96875 1.796875 0.796875 1.40625 C 0.953125 1.40625 1.09375 1.40625 1.21875 1.28125 C 1.328125 1.203125 1.421875 1.0625 1.421875 0.875 C 1.421875 0.5625 1.15625 0.53125 1.0625 0.53125 C 0.828125 0.53125 0.5 0.6875 0.5 1.171875 C 0.5 1.671875 0.9375 2.046875 1.5625 2.046875 C 2.578125 2.046875 3.609375 1.140625 3.890625 0.015625 Z M 4.84375 -3.796875 "/>
</symbol>
</g>
</defs>
<g id="surface1">
<path style="fill:none;stroke-width:0.3985;stroke-linecap:butt;stroke-linejoin:miter;stroke:rgb(0%,0%,0%);stroke-opacity:1;stroke-miterlimit:10;" d="M -0.0015625 -0.00121875 L 112.389062 -0.00121875 " transform="matrix(1,0,0,-1,8.775,128.323)"/>
<path style="fill-rule:nonzero;fill:rgb(0%,0%,0%);fill-opacity:1;stroke-width:0.3985;stroke-linecap:butt;stroke-linejoin:round;stroke:rgb(0%,0%,0%);stroke-opacity:1;stroke-miterlimit:10;" d="M 0.798864 -0.00121875 C -0.201136 0.198 -1.19723 0.596438 -2.392543 1.295656 C -1.19723 0.397219 -1.19723 -0.399656 -2.392543 -1.294187 C -1.19723 -0.598875 -0.201136 -0.200437 0.798864 -0.00121875 Z M 0.798864 -0.00121875 " transform="matrix(1,0,0,-1,121.16598,128.323)"/>
<g style="fill:rgb(0%,0%,0%);fill-opacity:1;">
  <use xlink:href="#glyph0-1" x="124.983" y="130.468"/>
</g>
<path style="fill:none;stroke-width:0.3985;stroke-linecap:butt;stroke-linejoin:miter;stroke:rgb(0%,0%,0%);stroke-opacity:1;stroke-miterlimit:10;" d="M -0.0015625 -0.00121875 L -0.0015625 112.389406 " transform="matrix(1,0,0,-1,8.775,128.323)"/>
<path style="fill-rule:nonzero;fill:rgb(0%,0%,0%);fill-opacity:1;stroke-width:0.3985;stroke-linecap:butt;stroke-linejoin:round;stroke:rgb(0%,0%,0%);stroke-opacity:1;stroke-miterlimit:10;" d="M 0.795301 0.0015625 C -0.200792 0.200781 -1.196886 0.599219 -2.392199 1.294531 C -1.196886 0.4 -1.196886 -0.396875 -2.392199 -1.295312 C -1.196886 -0.596094 -0.200792 -0.197656 0.795301 0.0015625 Z M 0.795301 0.0015625 " transform="matrix(0,-1,-1,0,8.775,15.93202)"/>
<g style="fill:rgb(0%,0%,0%);fill-opacity:1;">
  <use xlink:href="#glyph0-2" x="6.154" y="10.444"/>
</g>
<path style="fill:none;stroke-width:0.3985;stroke-linecap:butt;stroke-linejoin:miter;stroke:rgb(0%,0%,100%);stroke-opacity:1;stroke-miterlimit:10;" d="M 28.346094 28.346438 L 85.041406 28.346438 L 56.69375 85.04175 Z M 28.346094 28.346438 " transform="matrix(1,0,0,-1,8.775,128.323)"/>
<path style="fill:none;stroke-width:0.3985;stroke-linecap:butt;stroke-linejoin:miter;stroke:rgb(100%,0%,0%);stroke-opacity:1;stroke-miterlimit:10;" d="M 50.002344 13.834719 L 90.115625 53.91675 L 29.963281 73.955813 Z M 50.002344 13.834719 " transform="matrix(1,0,0,-1,8.775,128.323)"/>
<path style=" stroke:none;fill-rule:nonzero;fill:rgb(0%,0%,100%);fill-opacity:1;" d="M 39.234375 99.976562 C 39.234375 98.808594 38.289062 97.863281 37.121094 97.863281 C 35.953125 97.863281 35.007812 98.808594 35.007812 99.976562 C 35.007812 101.144531 35.953125 102.089844 37.121094 102.089844 C 38.289062 102.089844 39.234375 101.144531 39.234375 99.976562 Z M 39.234375 99.976562 "/>
<path style=" stroke:none;fill-rule:nonzero;fill:rgb(0%,0%,100%);fill-opacity:1;" d="M 95.929688 99.976562 C 95.929688 98.808594 94.984375 97.863281 93.816406 97.863281 C 92.648438 97.863281 91.703125 98.808594 91.703125 99.976562 C 91.703125 101.144531 92.648438 102.089844 93.816406 102.089844 C 94.984375 102.089844 95.929688 101.144531 95.929688 99.976562 Z M 95.929688 99.976562 "/>
<path style=" stroke:none;fill-rule:nonzero;fill:rgb(0%,0%,100%);fill-opacity:1;" d="M 67.582031 43.28125 C 67.582031 42.117188 66.636719 41.167969 65.46875 41.167969 C 64.300781 41.167969 63.355469 42.117188 63.355469 43.28125 C 63.355469 44.449219 64.300781 45.394531 65.46875 45.394531 C 66.636719 45.394531 67.582031 44.449219 67.582031 43.28125 Z M 67.582031 43.28125 "/>
<path style=" stroke:none;fill-rule:nonzero;fill:rgb(100%,0%,0%);fill-opacity:1;" d="M 60.890625 114.488281 C 60.890625 113.324219 59.945312 112.375 58.777344 112.375 C 57.613281 112.375 56.664062 113.324219 56.664062 114.488281 C 56.664062 115.65625 57.613281 116.601562 58.777344 116.601562 C 59.945312 116.601562 60.890625 115.65625 60.890625 114.488281 Z M 60.890625 114.488281 "/>
<path style=" stroke:none;fill-rule:nonzero;fill:rgb(100%,0%,0%);fill-opacity:1;" d="M 101.003906 74.40625 C 101.003906 73.242188 100.058594 72.292969 98.890625 72.292969 C 97.722656 72.292969 96.777344 73.242188 96.777344 74.40625 C 96.777344 75.574219 97.722656 76.519531 98.890625 76.519531 C 100.058594 76.519531 101.003906 75.574219 101.003906 74.40625 Z M 101.003906 74.40625 "/>
<path style=" stroke:none;fill-rule:nonzero;fill:rgb(100%,0%,0%);fill-opacity:1;" d="M 40.851562 54.367188 C 40.851562 53.199219 39.90625 52.253906 38.738281 52.253906 C 37.570312 52.253906 36.625 53.199219 36.625 54.367188 C 36.625 55.535156 37.570312 56.480469 38.738281 56.480469 C 39.90625 56.480469 40.851562 55.535156 40.851562 54.367188 Z M 40.851562 54.367188 "/>
</g>
</svg>
