<?xml version="1.0" encoding="UTF-8"?>
<svg xmlns="http://www.w3.org/2000/svg" xmlns:xlink="http://www.w3.org/1999/xlink" width="353.853pt" height="158.56pt" viewBox="0 0 353.853 158.56" version="1.1">
<defs>
<g>
<symbol overflow="visible" id="glyph0-0">
<path style="stroke:none;" d=""/>
</symbol>
<symbol overflow="visible" id="glyph0-1">
<path style="stroke:none;" d="M 3.328125 -3.015625 C 3.390625 -3.265625 3.625 -4.1875 4.3125 -4.1875 C 4.359375 -4.1875 4.609375 -4.1875 4.8125 -4.0625 C 4.53125 -4 4.34375 -3.765625 4.34375 -3.515625 C 4.34375 -3.359375 4.453125 -3.171875 4.71875 -3.171875 C 4.9375 -3.171875 5.25 -3.34375 5.25 -3.75 C 5.25 -4.265625 4.671875 -4.40625 4.328125 -4.40625 C 3.75 -4.40625 3.40625 -3.875 3.28125 -3.65625 C 3.03125 -4.3125 2.5 -4.40625 2.203125 -4.40625 C 1.171875 -4.40625 0.59375 -3.125 0.59375 -2.875 C 0.59375 -2.765625 0.703125 -2.765625 0.71875 -2.765625 C 0.796875 -2.765625 0.828125 -2.796875 0.84375 -2.875 C 1.1875 -3.9375 1.84375 -4.1875 2.1875 -4.1875 C 2.375 -4.1875 2.71875 -4.09375 2.71875 -3.515625 C 2.71875 -3.203125 2.546875 -2.546875 2.1875 -1.140625 C 2.03125 -0.53125 1.671875 -0.109375 1.234375 -0.109375 C 1.171875 -0.109375 0.953125 -0.109375 0.734375 -0.234375 C 0.984375 -0.296875 1.203125 -0.5 1.203125 -0.78125 C 1.203125 -1.046875 0.984375 -1.125 0.84375 -1.125 C 0.53125 -1.125 0.296875 -0.875 0.296875 -0.546875 C 0.296875 -0.09375 0.78125 0.109375 1.21875 0.109375 C 1.890625 0.109375 2.25 -0.59375 2.265625 -0.640625 C 2.390625 -0.28125 2.75 0.109375 3.34375 0.109375 C 4.375 0.109375 4.9375 -1.171875 4.9375 -1.421875 C 4.9375 -1.53125 4.859375 -1.53125 4.828125 -1.53125 C 4.734375 -1.53125 4.71875 -1.484375 4.6875 -1.421875 C 4.359375 -0.34375 3.6875 -0.109375 3.375 -0.109375 C 2.984375 -0.109375 2.828125 -0.421875 2.828125 -0.765625 C 2.828125 -0.984375 2.875 -1.203125 2.984375 -1.640625 Z M 3.328125 -3.015625 "/>
</symbol>
<symbol overflow="visible" id="glyph0-2">
<path style="stroke:none;" d="M 4.84375 -3.796875 C 4.890625 -3.9375 4.890625 -3.953125 4.890625 -4.03125 C 4.890625 -4.203125 4.75 -4.296875 4.59375 -4.296875 C 4.5 -4.296875 4.34375 -4.234375 4.25 -4.09375 C 4.234375 -4.03125 4.140625 -3.734375 4.109375 -3.546875 C 4.03125 -3.296875 3.96875 -3.015625 3.90625 -2.75 L 3.453125 -0.953125 C 3.421875 -0.8125 2.984375 -0.109375 2.328125 -0.109375 C 1.828125 -0.109375 1.71875 -0.546875 1.71875 -0.921875 C 1.71875 -1.375 1.890625 -2 2.21875 -2.875 C 2.375 -3.28125 2.421875 -3.390625 2.421875 -3.59375 C 2.421875 -4.03125 2.109375 -4.40625 1.609375 -4.40625 C 0.65625 -4.40625 0.296875 -2.953125 0.296875 -2.875 C 0.296875 -2.765625 0.390625 -2.765625 0.40625 -2.765625 C 0.515625 -2.765625 0.515625 -2.796875 0.5625 -2.953125 C 0.84375 -3.890625 1.234375 -4.1875 1.578125 -4.1875 C 1.65625 -4.1875 1.828125 -4.1875 1.828125 -3.875 C 1.828125 -3.625 1.71875 -3.359375 1.65625 -3.171875 C 1.25 -2.109375 1.078125 -1.546875 1.078125 -1.078125 C 1.078125 -0.1875 1.703125 0.109375 2.296875 0.109375 C 2.6875 0.109375 3.015625 -0.0625 3.296875 -0.34375 C 3.171875 0.171875 3.046875 0.671875 2.65625 1.203125 C 2.390625 1.53125 2.015625 1.828125 1.5625 1.828125 C 1.421875 1.828125 0.96875 1.796875 0.796875 1.40625 C 0.953125 1.40625 1.09375 1.40625 1.21875 1.28125 C 1.328125 1.203125 1.421875 1.0625 1.421875 0.875 C 1.421875 0.5625 1.15625 0.53125 1.0625 0.53125 C 0.828125 0.53125 0.5 0.6875 0.5 1.171875 C 0.5 1.671875 0.9375 2.046875 1.5625 2.046875 C 2.578125 2.046875 3.609375 1.140625 3.890625 0.015625 Z M 4.84375 -3.796875 "/>
</symbol>
<symbol overflow="visible" id="glyph0-3">
<path style="stroke:none;" d="M 1.328125 -0.828125 C 1.859375 -1.40625 2.15625 -1.65625 2.515625 -1.96875 C 2.515625 -1.96875 3.125 -2.5 3.484375 -2.859375 C 4.4375 -3.78125 4.65625 -4.265625 4.65625 -4.3125 C 4.65625 -4.40625 4.5625 -4.40625 4.546875 -4.40625 C 4.46875 -4.40625 4.453125 -4.390625 4.390625 -4.296875 C 4.09375 -3.8125 3.890625 -3.65625 3.65625 -3.65625 C 3.40625 -3.65625 3.296875 -3.8125 3.140625 -3.984375 C 2.953125 -4.203125 2.78125 -4.40625 2.453125 -4.40625 C 1.703125 -4.40625 1.25 -3.484375 1.25 -3.265625 C 1.25 -3.21875 1.28125 -3.15625 1.359375 -3.15625 C 1.453125 -3.15625 1.46875 -3.203125 1.5 -3.265625 C 1.6875 -3.734375 2.265625 -3.734375 2.34375 -3.734375 C 2.546875 -3.734375 2.734375 -3.671875 2.96875 -3.59375 C 3.375 -3.4375 3.484375 -3.4375 3.734375 -3.4375 C 3.375 -3.015625 2.546875 -2.296875 2.359375 -2.140625 L 1.453125 -1.296875 C 0.78125 -0.625 0.421875 -0.0625 0.421875 0.015625 C 0.421875 0.109375 0.53125 0.109375 0.546875 0.109375 C 0.625 0.109375 0.640625 0.09375 0.703125 -0.015625 C 0.9375 -0.375 1.234375 -0.640625 1.5625 -0.640625 C 1.78125 -0.640625 1.890625 -0.546875 2.140625 -0.265625 C 2.296875 -0.046875 2.484375 0.109375 2.765625 0.109375 C 3.765625 0.109375 4.34375 -1.15625 4.34375 -1.421875 C 4.34375 -1.46875 4.296875 -1.53125 4.21875 -1.53125 C 4.125 -1.53125 4.109375 -1.46875 4.078125 -1.390625 C 3.84375 -0.75 3.203125 -0.5625 2.875 -0.5625 C 2.6875 -0.5625 2.5 -0.625 2.296875 -0.6875 C 1.953125 -0.8125 1.796875 -0.859375 1.59375 -0.859375 C 1.578125 -0.859375 1.421875 -0.859375 1.328125 -0.828125 Z M 1.328125 -0.828125 "/>
</symbol>
<symbol overflow="visible" id="glyph1-0">
<path style="stroke:none;" d=""/>
</symbol>
<symbol overflow="visible" id="glyph1-1">
<path style="stroke:none;" d="M 3.65625 -3.734375 C 3.65625 -3.703125 3.640625 -3.671875 3.640625 -3.65625 C 3.640625 -3.359375 3.875 -3.203125 4.09375 -3.203125 C 4.296875 -3.203125 4.46875 -3.3125 4.53125 -3.578125 C 4.53125 -4.34375 3.703125 -4.390625 3.109375 -4.390625 C 2.28125 -4.390625 1.59375 -4.140625 1.109375 -3.421875 C 0.859375 -3.046875 0.734375 -2.609375 0.734375 -2.15625 C 0.734375 -1.109375 1.53125 0.046875 2.90625 0.046875 C 3.59375 0.046875 4.265625 -0.203125 4.578125 -0.875 C 4.609375 -0.9375 4.640625 -1.03125 4.640625 -1.109375 C 4.640625 -1.28125 4.5 -1.375 4.3125 -1.375 L 4.21875 -1.375 C 4 -1.375 3.953125 -1.171875 3.890625 -1.03125 C 3.734375 -0.703125 3.34375 -0.5625 3 -0.5625 C 2.109375 -0.5625 1.421875 -1.3125 1.421875 -2.15625 C 1.421875 -3.015625 2.046875 -3.78125 3.015625 -3.78125 C 3.234375 -3.78125 3.4375 -3.765625 3.65625 -3.734375 Z M 3.65625 -3.734375 "/>
</symbol>
<symbol overflow="visible" id="glyph1-2">
<path style="stroke:none;" d="M 1.6875 -3.734375 C 1.859375 -3.765625 2.0625 -3.78125 2.25 -3.78125 C 2.84375 -3.78125 3.53125 -3.5625 3.53125 -2.765625 C 2.328125 -2.765625 0.546875 -2.484375 0.546875 -1.28125 C 0.546875 -0.34375 1.46875 0.046875 2.21875 0.046875 C 2.6875 0.046875 3.15625 -0.046875 3.53125 -0.265625 C 3.5625 -0.28125 3.578125 -0.296875 3.609375 -0.296875 L 3.625 -0.296875 C 3.671875 -0.296875 3.8125 -0.15625 3.953125 -0.09375 C 4.234375 0 4.59375 0 4.890625 0 C 5.125 0 5.21875 -0.15625 5.21875 -0.328125 L 5.21875 -0.359375 C 5.21875 -0.53125 5.078125 -0.625 4.90625 -0.625 L 4.609375 -0.625 C 4.421875 -0.625 4.21875 -0.640625 4.21875 -0.828125 C 4.21875 -0.875 4.234375 -0.921875 4.234375 -0.953125 L 4.234375 -2.765625 C 4.234375 -3.71875 3.5 -4.328125 2.515625 -4.390625 L 2.15625 -4.390625 C 1.640625 -4.390625 0.8125 -4.328125 0.8125 -3.65625 C 0.8125 -3.375 1.03125 -3.203125 1.25 -3.203125 C 1.5 -3.203125 1.6875 -3.40625 1.6875 -3.640625 C 1.6875 -3.671875 1.6875 -3.703125 1.6875 -3.734375 Z M 3.53125 -2.171875 L 3.53125 -1.328125 C 3.53125 -0.671875 2.796875 -0.5625 2.296875 -0.5625 C 1.875 -0.5625 1.25 -0.75 1.25 -1.28125 C 1.25 -1.84375 2.15625 -2.03125 2.5625 -2.09375 C 2.875 -2.140625 3.203125 -2.171875 3.53125 -2.171875 Z M 3.53125 -2.171875 "/>
</symbol>
<symbol overflow="visible" id="glyph1-3">
<path style="stroke:none;" d="M 1.078125 -3.984375 C 1.078125 -4.25 0.875 -4.3125 0.671875 -4.3125 C 0.59375 -4.3125 0.5 -4.296875 0.421875 -4.296875 L 0.3125 -4.296875 C 0.125 -4.296875 -0.046875 -4.234375 -0.046875 -4 C -0.046875 -3.84375 0.046875 -3.703125 0.203125 -3.6875 L 0.515625 -3.6875 L 0.515625 -0.625 C 0.453125 -0.625 0.40625 -0.625 0.328125 -0.625 C 0.125 -0.625 -0.046875 -0.53125 -0.046875 -0.3125 C -0.046875 -0.125 0.09375 -0.015625 0.296875 -0.015625 L 1.28125 -0.015625 C 1.484375 -0.015625 1.640625 -0.09375 1.640625 -0.3125 C 1.640625 -0.53125 1.46875 -0.625 1.265625 -0.625 C 1.203125 -0.625 1.140625 -0.625 1.078125 -0.625 L 1.078125 -2.1875 C 1.078125 -2.765625 1.15625 -3.5625 1.78125 -3.71875 C 1.828125 -3.734375 1.890625 -3.75 1.9375 -3.75 C 2.328125 -3.75 2.328125 -3.1875 2.328125 -2.875 L 2.328125 -0.625 L 2.1875 -0.625 C 1.96875 -0.625 1.828125 -0.53125 1.828125 -0.3125 C 1.828125 -0.125 1.9375 -0.015625 2.171875 -0.015625 L 3.109375 -0.015625 C 3.3125 -0.015625 3.453125 -0.125 3.453125 -0.3125 C 3.453125 -0.53125 3.28125 -0.625 3.078125 -0.625 C 3.015625 -0.625 2.953125 -0.625 2.890625 -0.625 L 2.890625 -2.1875 C 2.890625 -2.765625 2.96875 -3.5625 3.59375 -3.71875 C 3.640625 -3.734375 3.703125 -3.75 3.75 -3.75 C 4.140625 -3.75 4.140625 -3.1875 4.140625 -2.875 L 4.140625 -0.625 L 4 -0.625 C 3.78125 -0.625 3.640625 -0.53125 3.640625 -0.3125 C 3.640625 -0.125 3.765625 -0.015625 3.984375 -0.015625 L 4.921875 -0.015625 C 5.140625 -0.015625 5.28125 -0.125 5.28125 -0.3125 C 5.28125 -0.53125 5.09375 -0.625 4.890625 -0.625 C 4.828125 -0.625 4.765625 -0.625 4.703125 -0.625 L 4.703125 -2.9375 C 4.703125 -3.484375 4.609375 -4.359375 3.78125 -4.359375 C 3.375 -4.359375 2.9375 -4.109375 2.765625 -3.8125 C 2.59375 -4.140625 2.34375 -4.359375 1.96875 -4.359375 C 1.640625 -4.359375 1.3125 -4.203125 1.078125 -3.984375 Z M 1.078125 -3.984375 "/>
</symbol>
<symbol overflow="visible" id="glyph1-4">
<path style="stroke:none;" d="M 1.265625 -1.90625 L 4.234375 -1.90625 C 4.453125 -1.90625 4.625 -1.96875 4.625 -2.265625 C 4.625 -2.796875 4.46875 -3.375 4.140625 -3.765625 C 3.78125 -4.1875 3.25 -4.390625 2.71875 -4.390625 C 1.578125 -4.390625 0.546875 -3.484375 0.546875 -2.140625 L 0.546875 -2.046875 C 0.59375 -0.875 1.65625 0.046875 2.84375 0.046875 L 2.953125 0.046875 C 3.5 0.03125 4.09375 -0.171875 4.421875 -0.640625 C 4.5 -0.75 4.625 -0.9375 4.625 -1.09375 C 4.625 -1.3125 4.453125 -1.375 4.265625 -1.375 C 3.96875 -1.375 3.953125 -1.1875 3.859375 -1.015625 C 3.65625 -0.703125 3.265625 -0.5625 2.90625 -0.5625 C 2.09375 -0.5625 1.46875 -1.109375 1.265625 -1.90625 Z M 1.28125 -2.515625 C 1.46875 -3.15625 1.890625 -3.78125 2.71875 -3.78125 C 3.4375 -3.78125 3.875 -3.203125 3.90625 -2.515625 Z M 1.28125 -2.515625 "/>
</symbol>
<symbol overflow="visible" id="glyph1-5">
<path style="stroke:none;" d="M 2.21875 -3.5625 L 2.21875 -3.921875 C 2.21875 -4.171875 2.109375 -4.296875 1.859375 -4.296875 L 0.640625 -4.296875 C 0.453125 -4.296875 0.3125 -4.203125 0.3125 -4 C 0.3125 -3.78125 0.4375 -3.6875 0.671875 -3.6875 L 1.515625 -3.6875 L 1.515625 -0.625 L 0.65625 -0.625 C 0.421875 -0.625 0.3125 -0.5 0.3125 -0.3125 C 0.3125 -0.15625 0.421875 0 0.640625 0 C 0.6875 0 0.75 -0.015625 0.796875 -0.015625 L 2.765625 -0.015625 C 2.90625 -0.015625 3.078125 0 3.234375 0 C 3.53125 0 3.71875 -0.046875 3.71875 -0.3125 C 3.71875 -0.5 3.609375 -0.625 3.359375 -0.625 L 2.21875 -0.625 L 2.21875 -1.765625 C 2.21875 -2.65625 2.703125 -3.765625 3.921875 -3.765625 C 4.0625 -3.765625 4.046875 -3.3125 4.4375 -3.3125 C 4.65625 -3.3125 4.859375 -3.484375 4.859375 -3.734375 C 4.859375 -4.21875 4.28125 -4.359375 3.90625 -4.359375 C 3.234375 -4.359375 2.65625 -4.03125 2.21875 -3.5625 Z M 2.21875 -3.5625 "/>
</symbol>
<symbol overflow="visible" id="glyph1-6">
<path style="stroke:none;" d="M 1.515625 -4.296875 L 0.609375 -4.296875 C 0.375 -4.296875 0.25 -4.171875 0.25 -3.984375 C 0.25 -3.78125 0.40625 -3.6875 0.59375 -3.6875 L 1.515625 -3.6875 L 1.515625 -1.09375 C 1.578125 -0.375 2.15625 0.046875 2.9375 0.046875 C 3.671875 0.046875 4.46875 -0.40625 4.46875 -1.21875 L 4.46875 -1.34375 C 4.46875 -1.609375 4.296875 -1.65625 4.109375 -1.65625 C 3.890625 -1.65625 3.78125 -1.53125 3.78125 -1.3125 L 3.78125 -1.234375 C 3.78125 -0.78125 3.328125 -0.5625 2.96875 -0.5625 C 2.40625 -0.5625 2.21875 -0.890625 2.21875 -1.359375 L 2.21875 -3.6875 L 3.859375 -3.6875 C 4.03125 -3.6875 4.25 -3.71875 4.25 -3.984375 C 4.25 -4.171875 4.140625 -4.296875 3.921875 -4.296875 L 2.21875 -4.296875 L 2.21875 -5.171875 C 2.21875 -5.46875 2.046875 -5.515625 1.859375 -5.515625 C 1.671875 -5.515625 1.515625 -5.453125 1.515625 -5.15625 Z M 1.515625 -4.296875 "/>
</symbol>
<symbol overflow="visible" id="glyph1-7">
<path style="stroke:none;" d="M 3.296875 -4.0625 L 3.28125 -4.0625 C 3.046875 -4.28125 2.640625 -4.359375 2.328125 -4.359375 C 1.5 -4.359375 0.671875 -3.734375 0.671875 -2.78125 C 0.671875 -2.5 0.734375 -2.203125 0.890625 -1.96875 C 0.90625 -1.921875 0.953125 -1.875 0.96875 -1.828125 L 0.96875 -1.8125 C 0.96875 -1.703125 0.78125 -1.390625 0.78125 -1.171875 C 0.78125 -0.875 0.890625 -0.6875 1.015625 -0.421875 C 0.625 -0.234375 0.296875 0.296875 0.296875 0.796875 C 0.296875 1.828125 1.625 2.265625 2.578125 2.265625 C 3.046875 2.265625 3.53125 2.21875 3.96875 2.015625 C 4.421875 1.796875 4.890625 1.453125 4.9375 0.90625 L 4.9375 0.828125 C 4.9375 -0.421875 3.625 -0.625 2.59375 -0.625 L 1.984375 -0.625 C 1.9375 -0.625 1.890625 -0.640625 1.84375 -0.640625 L 1.75 -0.640625 C 1.5 -0.640625 1.375 -0.90625 1.375 -1.109375 C 1.375 -1.21875 1.390625 -1.3125 1.421875 -1.421875 C 1.671875 -1.28125 1.9375 -1.1875 2.21875 -1.171875 L 2.328125 -1.171875 C 3.171875 -1.171875 3.984375 -1.8125 3.984375 -2.765625 C 3.984375 -3.015625 3.90625 -3.265625 3.78125 -3.5 C 3.765625 -3.515625 3.734375 -3.5625 3.734375 -3.609375 C 3.734375 -3.703125 4.109375 -3.765625 4.28125 -3.796875 C 4.328125 -3.609375 4.453125 -3.453125 4.671875 -3.453125 C 4.859375 -3.453125 5.046875 -3.59375 5.078125 -3.8125 L 5.078125 -3.859375 C 5.078125 -4.234375 4.671875 -4.421875 4.328125 -4.421875 C 3.953125 -4.421875 3.484375 -4.25 3.296875 -4.0625 Z M 0.875 0.859375 C 0.875 0.828125 0.875 0.8125 0.875 0.78125 C 0.875 0.234375 1.453125 -0.0625 1.90625 -0.0625 C 2.015625 -0.0625 2.125 -0.046875 2.21875 -0.046875 L 2.734375 -0.046875 C 3.34375 -0.046875 4.28125 0 4.34375 0.734375 L 4.34375 0.796875 C 4.34375 1.15625 3.921875 1.390625 3.625 1.5 C 3.296875 1.640625 2.9375 1.671875 2.59375 1.671875 C 2.21875 1.671875 1.859375 1.609375 1.5 1.46875 C 1.25 1.359375 0.90625 1.171875 0.875 0.859375 Z M 1.359375 -2.6875 L 1.359375 -2.765625 C 1.359375 -3.28125 1.796875 -3.765625 2.328125 -3.765625 L 2.359375 -3.765625 C 2.828125 -3.734375 3.21875 -3.34375 3.28125 -2.84375 L 3.28125 -2.765625 C 3.28125 -2.25 2.84375 -1.765625 2.328125 -1.765625 L 2.296875 -1.765625 C 1.8125 -1.796875 1.421875 -2.171875 1.359375 -2.6875 Z M 1.359375 -2.6875 "/>
</symbol>
<symbol overflow="visible" id="glyph1-8">
<path style="stroke:none;" d="M 0.859375 -5.5 L 0.859375 -0.625 L 0.5625 -0.625 C 0.3125 -0.625 0.203125 -0.484375 0.203125 -0.3125 C 0.203125 -0.109375 0.34375 0 0.578125 0 C 0.640625 0 0.734375 -0.015625 0.78125 -0.015625 L 1.640625 -0.015625 C 1.703125 -0.015625 1.78125 0 1.84375 0 C 2.0625 0 2.21875 -0.125 2.21875 -0.3125 C 2.21875 -0.515625 2.0625 -0.625 1.84375 -0.625 L 1.5625 -0.625 L 1.5625 -2.75 L 2.5 -2.75 C 2.953125 -2.6875 3.34375 -2.40625 3.34375 -1.828125 L 3.34375 -1.390625 C 3.34375 -0.8125 3.421875 0.09375 4.34375 0.09375 C 4.8125 0.09375 5.203125 -0.359375 5.203125 -0.9375 C 5.203125 -1.203125 5.03125 -1.25 4.859375 -1.25 C 4.671875 -1.25 4.5 -1.203125 4.5 -0.90625 C 4.5 -0.765625 4.46875 -0.515625 4.3125 -0.515625 C 4.078125 -0.515625 4.046875 -0.953125 4.046875 -1.203125 L 4.046875 -2.03125 C 4.03125 -2.46875 3.78125 -2.765625 3.46875 -3.046875 C 3.96875 -3.265625 4.28125 -3.859375 4.3125 -4.34375 L 4.3125 -4.421875 C 4.3125 -5.15625 3.75 -5.796875 3.046875 -6.015625 C 2.734375 -6.09375 2.421875 -6.09375 2.09375 -6.09375 L 0.53125 -6.09375 C 0.328125 -6.09375 0.203125 -5.984375 0.203125 -5.796875 C 0.203125 -5.59375 0.34375 -5.5 0.5625 -5.5 Z M 1.5625 -3.359375 L 1.5625 -5.5 C 1.734375 -5.5 1.90625 -5.5 2.09375 -5.5 C 2.609375 -5.5 3.375 -5.390625 3.578125 -4.6875 C 3.59375 -4.609375 3.625 -4.53125 3.625 -4.453125 L 3.625 -4.421875 C 3.625 -3.96875 3.265625 -3.625 2.859375 -3.453125 C 2.625 -3.375 2.375 -3.359375 2.125 -3.359375 Z M 1.5625 -3.359375 "/>
</symbol>
<symbol overflow="visible" id="glyph1-9">
<path style="stroke:none;" d="M 2.390625 -3.6875 L 2.390625 -0.625 L 1.15625 -0.625 C 0.90625 -0.625 0.78125 -0.515625 0.78125 -0.3125 C 0.78125 -0.171875 0.875 -0.03125 1.03125 -0.015625 L 4.203125 -0.015625 C 4.421875 -0.015625 4.53125 -0.125 4.53125 -0.3125 C 4.53125 -0.515625 4.40625 -0.625 4.171875 -0.625 C 4.09375 -0.625 4.015625 -0.625 3.953125 -0.625 L 3.09375 -0.625 L 3.09375 -3.953125 C 3.09375 -4.25 2.90625 -4.296875 2.71875 -4.296875 L 1.234375 -4.296875 C 1.0625 -4.296875 0.859375 -4.25 0.859375 -3.984375 C 0.859375 -3.765625 1 -3.6875 1.25 -3.6875 Z M 2.515625 -6.09375 C 2.25 -6.0625 2.09375 -5.828125 2.09375 -5.609375 C 2.09375 -5.390625 2.265625 -5.109375 2.5625 -5.109375 C 2.875 -5.109375 3.09375 -5.359375 3.09375 -5.609375 C 3.09375 -5.828125 2.90625 -6.109375 2.609375 -6.109375 C 2.578125 -6.109375 2.546875 -6.09375 2.515625 -6.09375 Z M 2.515625 -6.09375 "/>
</symbol>
<symbol overflow="visible" id="glyph1-10">
<path style="stroke:none;" d="M 0.953125 -5.5 L 0.953125 -0.625 L 0.4375 -0.625 C 0.234375 -0.625 0.109375 -0.484375 0.109375 -0.3125 C 0.109375 -0.109375 0.265625 -0.015625 0.484375 -0.015625 L 2.109375 -0.015625 C 2.34375 -0.015625 2.5 -0.09375 2.5 -0.3125 C 2.5 -0.515625 2.359375 -0.625 2.171875 -0.625 L 1.65625 -0.625 L 1.65625 -2.28125 C 1.65625 -3.0625 2.109375 -3.75 2.921875 -3.75 C 3.4375 -3.75 3.5625 -3.359375 3.5625 -2.921875 L 3.5625 -0.625 L 3.09375 -0.625 C 2.875 -0.625 2.765625 -0.46875 2.765625 -0.3125 C 2.765625 -0.078125 2.953125 -0.015625 3.15625 -0.015625 L 4.75 -0.015625 C 4.96875 -0.015625 5.109375 -0.109375 5.109375 -0.3125 C 5.109375 -0.484375 4.984375 -0.625 4.78125 -0.625 L 4.265625 -0.625 L 4.265625 -2.796875 C 4.265625 -3.484375 4.09375 -4.359375 2.96875 -4.359375 C 2.5 -4.359375 2 -4.171875 1.65625 -3.84375 L 1.65625 -5.71875 C 1.65625 -6.0625 1.484375 -6.09375 1.28125 -6.09375 L 0.359375 -6.09375 C 0.21875 -6.078125 0.109375 -5.953125 0.109375 -5.796875 C 0.109375 -5.609375 0.234375 -5.5 0.421875 -5.5 Z M 0.953125 -5.5 "/>
</symbol>
<symbol overflow="visible" id="glyph1-11">
<path style="stroke:none;" d="M 0.734375 -5.5 L 0.734375 -2.75 C 0.734375 -2.5625 0.734375 -2.375 0.734375 -2.1875 C 0.734375 -1.203125 1.21875 0.015625 2.515625 0.09375 L 2.625 0.09375 C 3.40625 0.09375 4.0625 -0.46875 4.34375 -1.1875 C 4.46875 -1.53125 4.5 -1.90625 4.5 -2.28125 C 4.5 -2.46875 4.484375 -2.65625 4.484375 -2.84375 L 4.484375 -5.5 L 4.8125 -5.5 C 5.03125 -5.5 5.1875 -5.578125 5.1875 -5.796875 C 5.1875 -5.984375 5.046875 -6.09375 4.828125 -6.09375 L 3.453125 -6.09375 C 3.203125 -6.09375 3.078125 -5.984375 3.078125 -5.796875 C 3.078125 -5.578125 3.234375 -5.5 3.453125 -5.5 L 3.78125 -5.5 L 3.78125 -2.28125 C 3.78125 -2.046875 3.78125 -1.828125 3.734375 -1.609375 C 3.625 -1.078125 3.203125 -0.515625 2.609375 -0.515625 C 2.03125 -0.515625 1.609375 -1.078125 1.484375 -1.609375 C 1.4375 -1.828125 1.4375 -2.046875 1.4375 -2.28125 L 1.4375 -5.5 L 1.765625 -5.5 C 1.984375 -5.5 2.140625 -5.578125 2.140625 -5.796875 C 2.140625 -5.984375 2 -6.09375 1.78125 -6.09375 L 0.40625 -6.09375 C 0.15625 -6.09375 0.03125 -5.984375 0.03125 -5.796875 C 0.03125 -5.578125 0.171875 -5.5 0.40625 -5.5 Z M 0.734375 -5.5 "/>
</symbol>
<symbol overflow="visible" id="glyph1-12">
<path style="stroke:none;" d="M 1.65625 -3.875 L 1.65625 -3.953125 C 1.65625 -4.28125 1.453125 -4.296875 1.265625 -4.296875 L 0.484375 -4.296875 C 0.28125 -4.296875 0.109375 -4.21875 0.109375 -3.984375 C 0.109375 -3.78125 0.265625 -3.6875 0.453125 -3.6875 L 0.953125 -3.6875 L 0.953125 1.59375 L 0.4375 1.59375 C 0.234375 1.59375 0.109375 1.71875 0.109375 1.890625 C 0.109375 2.109375 0.265625 2.203125 0.484375 2.203125 L 2.109375 2.203125 C 2.34375 2.203125 2.5 2.125 2.5 1.90625 C 2.5 1.703125 2.359375 1.59375 2.171875 1.59375 L 1.65625 1.59375 L 1.65625 -0.453125 C 2 -0.125 2.375 0.046875 2.828125 0.046875 C 3.984375 0.046875 4.859375 -1 4.859375 -2.15625 C 4.859375 -3.21875 4.125 -4.359375 2.890625 -4.359375 C 2.4375 -4.359375 2 -4.171875 1.65625 -3.875 Z M 4.15625 -2.03125 C 4.09375 -1.296875 3.578125 -0.5625 2.765625 -0.5625 C 2.09375 -0.5625 1.640625 -1.34375 1.640625 -1.90625 C 1.640625 -2.03125 1.65625 -2.15625 1.65625 -2.265625 C 1.65625 -2.375 1.640625 -2.5 1.640625 -2.625 C 1.640625 -3.25 2.28125 -3.75 2.875 -3.75 C 3.71875 -3.75 4.171875 -2.84375 4.171875 -2.171875 C 4.171875 -2.125 4.171875 -2.078125 4.15625 -2.03125 Z M 4.15625 -2.03125 "/>
</symbol>
<symbol overflow="visible" id="glyph1-13">
<path style="stroke:none;" d="M 1.015625 -5.5 L 1.015625 -0.625 L 0.671875 -0.625 C 0.4375 -0.625 0.28125 -0.53125 0.28125 -0.3125 C 0.28125 -0.140625 0.40625 -0.015625 0.59375 -0.015625 L 2.265625 -0.015625 C 2.515625 -0.015625 2.625 -0.125 2.625 -0.3125 C 2.625 -0.515625 2.515625 -0.625 2.296875 -0.625 L 1.71875 -0.625 L 1.71875 -2.75 L 3.0625 -2.75 C 3.0625 -2.6875 3.046875 -2.609375 3.046875 -2.546875 C 3.046875 -2.25 3.234375 -2.1875 3.40625 -2.1875 C 3.59375 -2.1875 3.765625 -2.25 3.765625 -2.515625 L 3.765625 -3.375 C 3.765625 -3.4375 3.765625 -3.515625 3.765625 -3.578125 C 3.765625 -3.875 3.578125 -3.921875 3.40625 -3.921875 C 3.234375 -3.921875 3.046875 -3.875 3.046875 -3.5625 C 3.046875 -3.5 3.0625 -3.421875 3.0625 -3.359375 L 1.71875 -3.359375 L 1.71875 -5.5 L 4.1875 -5.5 L 4.1875 -4.90625 C 4.1875 -4.609375 4.359375 -4.5625 4.546875 -4.5625 C 4.765625 -4.5625 4.890625 -4.671875 4.890625 -4.890625 L 4.890625 -5.859375 C 4.84375 -6.046875 4.6875 -6.109375 4.53125 -6.109375 C 4.46875 -6.109375 4.390625 -6.09375 4.3125 -6.09375 L 0.828125 -6.09375 C 0.765625 -6.09375 0.703125 -6.109375 0.640625 -6.109375 C 0.421875 -6.109375 0.28125 -5.984375 0.28125 -5.796875 C 0.28125 -5.578125 0.4375 -5.5 0.671875 -5.5 Z M 1.015625 -5.5 "/>
</symbol>
<symbol overflow="visible" id="glyph1-14">
<path style="stroke:none;" d="M 2.46875 -4.390625 C 1.28125 -4.28125 0.5625 -3.203125 0.5625 -2.140625 L 0.5625 -2.046875 C 0.609375 -0.953125 1.453125 0.046875 2.625 0.046875 L 2.734375 0.046875 C 3.921875 -0.046875 4.65625 -1.09375 4.65625 -2.15625 L 4.65625 -2.265625 C 4.609375 -3.375 3.765625 -4.390625 2.578125 -4.390625 Z M 1.265625 -2.109375 C 1.265625 -2.140625 1.25 -2.1875 1.25 -2.234375 C 1.25 -2.96875 1.796875 -3.78125 2.625 -3.78125 C 3.40625 -3.78125 3.875 -3.0625 3.953125 -2.359375 L 3.953125 -2.265625 C 3.953125 -1.515625 3.484375 -0.5625 2.609375 -0.5625 L 2.578125 -0.5625 C 1.828125 -0.625 1.34375 -1.3125 1.265625 -2.109375 Z M 1.265625 -2.109375 "/>
</symbol>
<symbol overflow="visible" id="glyph1-15">
<path style="stroke:none;" d="M 0.671875 -3.6875 C 0.703125 -3.40625 0.765625 -3.125 0.8125 -2.828125 L 1.109375 -1.125 C 1.21875 -0.53125 1.21875 0.03125 1.703125 0.03125 C 2.15625 0.03125 2.21875 -0.078125 2.546875 -1.390625 C 2.578125 -1.5625 2.625 -1.71875 2.625 -1.890625 L 2.640625 -1.890625 C 2.640625 -1.421875 2.90625 -0.8125 3.015625 -0.359375 C 3.09375 -0.03125 3.296875 0.03125 3.53125 0.03125 C 4 0.03125 4 -0.578125 4.109375 -1.125 L 4.40625 -2.828125 C 4.453125 -3.125 4.53125 -3.40625 4.5625 -3.6875 L 4.703125 -3.6875 C 4.921875 -3.6875 5.0625 -3.78125 5.0625 -4 C 5.0625 -4.21875 4.890625 -4.296875 4.6875 -4.296875 L 3.421875 -4.296875 C 3.203125 -4.296875 3.078125 -4.171875 3.078125 -3.984375 C 3.078125 -3.796875 3.203125 -3.6875 3.40625 -3.6875 L 3.984375 -3.6875 L 3.484375 -0.703125 C 3.484375 -0.875 3.421875 -1.03125 3.375 -1.171875 C 3.234375 -1.71875 3.1875 -2.59375 2.625 -2.59375 C 2.234375 -2.59375 2.1875 -2.25 2.109375 -1.96875 C 1.984375 -1.5625 1.859375 -1.140625 1.75 -0.703125 L 1.234375 -3.6875 L 1.8125 -3.6875 C 2.03125 -3.6875 2.140625 -3.796875 2.140625 -3.984375 C 2.140625 -4.171875 2.03125 -4.296875 1.796875 -4.296875 L 0.53125 -4.296875 C 0.328125 -4.296875 0.15625 -4.21875 0.15625 -4 C 0.15625 -3.78125 0.3125 -3.6875 0.515625 -3.6875 Z M 0.671875 -3.6875 "/>
</symbol>
<symbol overflow="visible" id="glyph1-16">
<path style="stroke:none;" d="M 3.5625 -5.5 L 3.5625 -3.921875 C 3.25 -4.171875 2.875 -4.359375 2.46875 -4.359375 C 1.234375 -4.359375 0.359375 -3.328125 0.359375 -2.140625 C 0.359375 -1.0625 1.109375 -0.046875 2.203125 0.046875 L 2.296875 0.046875 C 2.78125 0.046875 3.21875 -0.15625 3.5625 -0.5 L 3.5625 -0.34375 C 3.5625 -0.125 3.671875 -0.015625 3.90625 -0.015625 L 4.75 -0.015625 C 4.9375 -0.015625 5.109375 -0.09375 5.109375 -0.3125 C 5.109375 -0.515625 4.96875 -0.625 4.765625 -0.625 L 4.265625 -0.625 L 4.265625 -5.765625 C 4.265625 -5.96875 4.171875 -6.109375 3.921875 -6.109375 C 3.859375 -6.109375 3.796875 -6.09375 3.734375 -6.09375 L 3.078125 -6.09375 C 2.890625 -6.09375 2.71875 -6.015625 2.71875 -5.796875 C 2.71875 -5.625 2.84375 -5.5 3.046875 -5.5 Z M 1.0625 -2.046875 C 1.0625 -2.09375 1.046875 -2.140625 1.046875 -2.1875 C 1.046875 -2.953125 1.640625 -3.75 2.453125 -3.75 L 2.515625 -3.75 C 3.015625 -3.71875 3.5 -3.265625 3.5625 -2.796875 L 3.5625 -2.296875 C 3.5625 -2.1875 3.578125 -2.0625 3.578125 -1.9375 C 3.578125 -1.21875 2.984375 -0.5625 2.34375 -0.5625 C 1.5625 -0.5625 1.125 -1.359375 1.0625 -2.046875 Z M 1.0625 -2.046875 "/>
</symbol>
<symbol overflow="visible" id="glyph1-17">
<path style="stroke:none;" d="M 2.265625 -5.5 L 2.265625 -0.625 L 0.875 -0.625 C 0.6875 -0.625 0.5625 -0.484375 0.5625 -0.3125 C 0.5625 -0.09375 0.734375 -0.015625 0.9375 -0.015625 L 4.421875 -0.015625 C 4.578125 -0.046875 4.65625 -0.171875 4.65625 -0.3125 C 4.65625 -0.484375 4.546875 -0.625 4.359375 -0.625 L 2.953125 -0.625 L 2.953125 -5.71875 C 2.953125 -6.0625 2.796875 -6.09375 2.578125 -6.09375 L 0.953125 -6.09375 C 0.78125 -6.09375 0.5625 -6.078125 0.5625 -5.796875 C 0.5625 -5.625 0.6875 -5.5 0.890625 -5.5 Z M 2.265625 -5.5 "/>
</symbol>
</g>
<clipPath id="clip1">
  <path d="M 225 62 L 253 62 L 253 87 L 225 87 Z M 225 62 "/>
</clipPath>
<clipPath id="clip2">
  <path d="M 246.730469 59.871094 L 222.183594 74.046875 L 231.425781 90.058594 L 255.976562 75.882812 Z M 246.730469 59.871094 "/>
</clipPath>
<clipPath id="clip3">
  <path d="M 222 59 L 256 59 L 256 91 L 222 91 Z M 222 59 "/>
</clipPath>
<clipPath id="clip4">
  <path d="M 246.730469 59.871094 L 222.183594 74.046875 L 231.425781 90.058594 L 255.976562 75.882812 Z M 246.730469 59.871094 "/>
</clipPath>
<clipPath id="clip5">
  <path d="M 91 111 L 130 111 L 130 158.558594 L 91 158.558594 Z M 91 111 "/>
</clipPath>
<clipPath id="clip6">
  <path d="M 118 111 L 157 111 L 157 158.558594 L 118 158.558594 Z M 118 111 "/>
</clipPath>
</defs>
<g id="surface1">
<g clip-path="url(#clip1)" clip-rule="nonzero">
<g clip-path="url(#clip2)" clip-rule="nonzero">
<path style=" stroke:none;fill-rule:nonzero;fill:rgb(50%,50%,50%);fill-opacity:1;" d="M 244.851562 63.09375 L 230.179688 71.566406 C 229.515625 71.949219 229.289062 72.796875 229.671875 73.457031 L 230.75 75.328125 C 231.132812 75.988281 230.84375 76.367188 230.105469 76.167969 L 226.050781 75.082031 C 225.3125 74.882812 225.023438 75.261719 225.40625 75.921875 L 231.410156 86.328125 C 231.792969 86.988281 232.265625 86.929688 232.464844 86.1875 L 233.550781 82.132812 C 233.75 81.394531 234.21875 81.332031 234.601562 81.996094 L 235.679688 83.863281 C 236.0625 84.527344 236.910156 84.753906 237.574219 84.371094 L 252.246094 75.898438 C 252.910156 75.515625 253.136719 74.667969 252.753906 74.007812 L 246.746094 63.601562 C 246.363281 62.9375 245.515625 62.710938 244.851562 63.09375 Z M 244.851562 63.09375 "/>
</g>
</g>
<g clip-path="url(#clip3)" clip-rule="nonzero">
<g clip-path="url(#clip4)" clip-rule="nonzero">
<path style="fill:none;stroke-width:4.98138;stroke-linecap:butt;stroke-linejoin:miter;stroke:rgb(0%,0%,0%);stroke-opacity:1;stroke-miterlimit:10;" d="M 3.988256 -0.00363379 L 52.711337 0.00107382 C 54.915629 -0.000375969 56.698716 1.784945 56.69455 3.979507 L 56.699894 10.189695 C 56.695727 12.384258 57.960462 12.912287 59.512701 11.354568 L 68.049464 2.819858 C 69.601703 1.262139 70.866438 1.790167 70.862271 3.98473 L 70.872515 38.534473 C 70.868348 40.729036 69.606944 41.262734 68.043608 39.700766 L 59.508899 31.164003 C 57.951179 29.611764 56.693888 30.130117 56.695337 32.334408 L 56.695065 38.534867 C 56.696515 40.739158 54.911194 42.522246 52.706903 42.523696 L 3.983821 42.518988 C 1.77953 42.520438 -0.00355798 40.735118 0.000608972 38.540555 L 0.0000938042 3.985195 C -0.00135599 1.780904 1.783965 -0.002184 3.988256 -0.00363379 Z M 3.988256 -0.00363379 " transform="matrix(-0.301145,0.173865,0.173865,0.301145,246.053236,62.401426)"/>
</g>
</g>
<path style="fill:none;stroke-width:0.3985;stroke-linecap:butt;stroke-linejoin:miter;stroke:rgb(100%,0%,0%);stroke-opacity:1;stroke-miterlimit:10;" d="M -0.00165625 -0.000375 L 25.701469 -9.355844 " transform="matrix(1,0,0,-1,40.654,117.484)"/>
<path style="fill-rule:nonzero;fill:rgb(100%,0%,0%);fill-opacity:1;stroke-width:0.3985;stroke-linecap:butt;stroke-linejoin:round;stroke:rgb(100%,0%,0%);stroke-opacity:1;stroke-miterlimit:10;" d="M 0.797607 0.00213946 C -0.201337 0.199735 -1.19467 0.598912 -2.391343 1.294052 C -1.19661 0.398668 -1.197029 -0.399637 -2.392204 -1.2961 C -1.195298 -0.598546 -0.197876 -0.198081 0.797607 0.00213946 Z M 0.797607 0.00213946 " transform="matrix(0.93967,0.34203,0.34203,-0.93967,66.35525,126.83858)"/>
<g style="fill:rgb(100%,0%,0%);fill-opacity:1;">
  <use xlink:href="#glyph0-1" x="69.771" y="131.263"/>
</g>
<path style="fill:none;stroke-width:0.3985;stroke-linecap:butt;stroke-linejoin:miter;stroke:rgb(0%,79.998779%,0%);stroke-opacity:1;stroke-miterlimit:10;" d="M -0.00165625 -0.000375 L -0.00165625 27.351188 " transform="matrix(1,0,0,-1,40.654,117.484)"/>
<path style="fill-rule:nonzero;fill:rgb(0%,79.998779%,0%);fill-opacity:1;stroke-width:0.3985;stroke-linecap:butt;stroke-linejoin:round;stroke:rgb(0%,79.998779%,0%);stroke-opacity:1;stroke-miterlimit:10;" d="M 0.797523 0.00165625 C -0.198571 0.200875 -1.194665 0.599312 -2.389977 1.294625 C -1.194665 0.400094 -1.194665 -0.396781 -2.389977 -1.295219 C -1.194665 -0.596 -0.198571 -0.197563 0.797523 0.00165625 Z M 0.797523 0.00165625 " transform="matrix(0,-1,-1,0,40.654,90.13346)"/>
<g style="fill:rgb(0%,79.998779%,0%);fill-opacity:1;">
  <use xlink:href="#glyph0-2" x="38.033" y="84.645"/>
</g>
<path style="fill:none;stroke-width:0.3985;stroke-linecap:butt;stroke-linejoin:miter;stroke:rgb(0%,0%,100%);stroke-opacity:1;stroke-miterlimit:10;" d="M -0.00165625 -0.000375 L -25.700875 -9.355844 " transform="matrix(1,0,0,-1,40.654,117.484)"/>
<path style="fill-rule:nonzero;fill:rgb(0%,0%,100%);fill-opacity:1;stroke-width:0.3985;stroke-linecap:butt;stroke-linejoin:round;stroke:rgb(0%,0%,100%);stroke-opacity:1;stroke-miterlimit:10;" d="M 0.797049 -0.00193637 C -0.198434 0.198284 -1.195856 0.598749 -2.389091 1.294967 C -1.193916 0.398504 -1.197168 -0.398464 -2.391901 -1.293849 C -1.195228 -0.598709 -0.198224 -0.200868 0.797049 -0.00193637 Z M 0.797049 -0.00193637 " transform="matrix(-0.93967,0.34203,0.34203,0.93967,14.95275,126.83858)"/>
<g style="fill:rgb(0%,0%,100%);fill-opacity:1;">
  <use xlink:href="#glyph0-3" x="6.154" y="131.263"/>
</g>
<path style=" stroke:none;fill-rule:nonzero;fill:rgb(100%,100%,100%);fill-opacity:0.75;" d="M 97.347656 145.832031 L 123.984375 155.527344 L 123.984375 127.179688 L 97.347656 117.484375 Z M 97.347656 145.832031 "/>
<g clip-path="url(#clip5)" clip-rule="nonzero">
<path style="fill:none;stroke-width:0.3985;stroke-linecap:butt;stroke-linejoin:miter;stroke:rgb(0%,0%,0%);stroke-opacity:0.75;stroke-miterlimit:10;" d="M 56.693656 -28.348031 L 83.330375 -38.043344 L 83.330375 -9.695687 L 56.693656 -0.000375 Z M 56.693656 -28.348031 " transform="matrix(1,0,0,-1,40.654,117.484)"/>
</g>
<path style=" stroke:none;fill-rule:nonzero;fill:rgb(100%,100%,100%);fill-opacity:0.75;" d="M 123.984375 155.527344 L 150.621094 145.832031 L 150.621094 117.484375 L 123.984375 127.179688 Z M 123.984375 155.527344 "/>
<g clip-path="url(#clip6)" clip-rule="nonzero">
<path style="fill:none;stroke-width:0.3985;stroke-linecap:butt;stroke-linejoin:miter;stroke:rgb(0%,0%,0%);stroke-opacity:0.75;stroke-miterlimit:10;" d="M 83.330375 -38.043344 L 109.967094 -28.348031 L 109.967094 -0.000375 L 83.330375 -9.695687 Z M 83.330375 -38.043344 " transform="matrix(1,0,0,-1,40.654,117.484)"/>
</g>
<path style="fill-rule:nonzero;fill:rgb(100%,100%,100%);fill-opacity:0.75;stroke-width:0.3985;stroke-linecap:butt;stroke-linejoin:miter;stroke:rgb(0%,0%,0%);stroke-opacity:0.75;stroke-miterlimit:10;" d="M 83.330375 -9.695687 L 109.967094 -0.000375 L 83.330375 9.694938 L 56.693656 -0.000375 Z M 83.330375 -9.695687 " transform="matrix(1,0,0,-1,40.654,117.484)"/>
<path style=" stroke:none;fill-rule:nonzero;fill:rgb(0%,0%,0%);fill-opacity:1;" d="M 241.195312 74.964844 C 241.195312 73.796875 240.25 72.851562 239.082031 72.851562 C 237.914062 72.851562 236.96875 73.796875 236.96875 74.964844 C 236.96875 76.132812 237.914062 77.078125 239.082031 77.078125 C 240.25 77.078125 241.195312 76.132812 241.195312 74.964844 Z M 241.195312 74.964844 "/>
<g style="fill:rgb(0%,0%,0%);fill-opacity:1;">
  <use xlink:href="#glyph1-1" x="242.598" y="88.441"/>
  <use xlink:href="#glyph1-2" x="247.827369" y="88.441"/>
  <use xlink:href="#glyph1-3" x="253.056737" y="88.441"/>
  <use xlink:href="#glyph1-4" x="258.286106" y="88.441"/>
  <use xlink:href="#glyph1-5" x="263.515475" y="88.441"/>
  <use xlink:href="#glyph1-2" x="268.744844" y="88.441"/>
</g>
<path style=" stroke:none;fill-rule:nonzero;fill:rgb(0%,0%,0%);fill-opacity:1;" d="M 192.097656 103.3125 C 192.097656 102.144531 191.152344 101.195312 189.984375 101.195312 C 188.816406 101.195312 187.871094 102.144531 187.871094 103.3125 C 187.871094 104.476562 188.816406 105.425781 189.984375 105.425781 C 191.152344 105.425781 192.097656 104.476562 192.097656 103.3125 Z M 192.097656 103.3125 "/>
<g style="fill:rgb(0%,0%,0%);fill-opacity:1;">
  <use xlink:href="#glyph1-6" x="174.294" y="114.666"/>
  <use xlink:href="#glyph1-2" x="179.523369" y="114.666"/>
  <use xlink:href="#glyph1-5" x="184.752737" y="114.666"/>
  <use xlink:href="#glyph1-7" x="189.982106" y="114.666"/>
  <use xlink:href="#glyph1-4" x="195.211475" y="114.666"/>
  <use xlink:href="#glyph1-6" x="200.440844" y="114.666"/>
</g>
<path style="fill:none;stroke-width:0.99628;stroke-linecap:butt;stroke-linejoin:miter;stroke:rgb(100%,0%,0%);stroke-opacity:1;stroke-miterlimit:10;" d="M 198.428031 42.519156 L 212.404594 80.925406 " transform="matrix(1,0,0,-1,40.654,117.484)"/>
<path style="fill-rule:nonzero;fill:rgb(100%,0%,0%);fill-opacity:1;stroke-width:0.99628;stroke-linecap:butt;stroke-linejoin:miter;stroke:rgb(100%,0%,0%);stroke-opacity:1;stroke-miterlimit:10;" d="M -6.505181 2.917965 L 0.372348 0.000411573 L -6.505159 -2.918456 Z M -6.505181 2.917965 " transform="matrix(0.34201,-0.93968,-0.93968,-0.34201,253.06054,36.55706)"/>
<g style="fill:rgb(100%,0%,0%);fill-opacity:1;">
  <use xlink:href="#glyph1-1" x="257.44" y="36.946"/>
  <use xlink:href="#glyph1-2" x="262.669369" y="36.946"/>
  <use xlink:href="#glyph1-3" x="267.898737" y="36.946"/>
  <use xlink:href="#glyph1-4" x="273.128106" y="36.946"/>
  <use xlink:href="#glyph1-5" x="278.357475" y="36.946"/>
  <use xlink:href="#glyph1-2" x="283.586844" y="36.946"/>
  <use xlink:href="#glyph1-8" x="288.816212" y="36.946"/>
  <use xlink:href="#glyph1-9" x="294.045581" y="36.946"/>
  <use xlink:href="#glyph1-7" x="299.27495" y="36.946"/>
  <use xlink:href="#glyph1-10" x="304.504319" y="36.946"/>
  <use xlink:href="#glyph1-6" x="309.733687" y="36.946"/>
</g>
<path style="fill:none;stroke-width:0.99628;stroke-linecap:butt;stroke-linejoin:miter;stroke:rgb(0%,79.998779%,0%);stroke-opacity:1;stroke-miterlimit:10;" d="M 198.428031 42.519156 L 177.990531 77.917594 " transform="matrix(1,0,0,-1,40.654,117.484)"/>
<path style="fill-rule:nonzero;fill:rgb(0%,79.998779%,0%);fill-opacity:1;stroke-width:0.99628;stroke-linecap:butt;stroke-linejoin:miter;stroke:rgb(0%,79.998779%,0%);stroke-opacity:1;stroke-miterlimit:10;" d="M -6.50457 2.918167 L 0.371343 -0.000738149 L -6.504924 -2.918383 Z M -6.50457 2.918167 " transform="matrix(-0.5,-0.86601,-0.86601,0.5,218.64597,39.56805)"/>
<g style="fill:rgb(0%,79.998779%,0%);fill-opacity:1;">
  <use xlink:href="#glyph1-1" x="172.169" y="40.078"/>
  <use xlink:href="#glyph1-2" x="177.398369" y="40.078"/>
  <use xlink:href="#glyph1-3" x="182.627737" y="40.078"/>
  <use xlink:href="#glyph1-4" x="187.857106" y="40.078"/>
  <use xlink:href="#glyph1-5" x="193.086475" y="40.078"/>
  <use xlink:href="#glyph1-2" x="198.315844" y="40.078"/>
  <use xlink:href="#glyph1-11" x="203.545212" y="40.078"/>
  <use xlink:href="#glyph1-12" x="208.774581" y="40.078"/>
</g>
<path style="fill:none;stroke-width:0.99628;stroke-linecap:butt;stroke-linejoin:miter;stroke:rgb(0%,0%,100%);stroke-opacity:1;stroke-miterlimit:10;" d="M 198.428031 42.519156 L 233.822563 62.956656 " transform="matrix(1,0,0,-1,40.654,117.484)"/>
<path style="fill-rule:nonzero;fill:rgb(0%,0%,100%);fill-opacity:1;stroke-width:0.99628;stroke-linecap:butt;stroke-linejoin:miter;stroke:rgb(0%,0%,100%);stroke-opacity:1;stroke-miterlimit:10;" d="M -6.507064 2.91883 L 0.374186 0.00135487 L -6.504035 -2.919673 Z M -6.507064 2.91883 " transform="matrix(0.86601,-0.5,-0.5,-0.86601,274.47741,54.52811)"/>
<g style="fill:rgb(0%,0%,100%);fill-opacity:1;">
  <use xlink:href="#glyph1-1" x="279.72" y="56.748"/>
  <use xlink:href="#glyph1-2" x="284.949369" y="56.748"/>
  <use xlink:href="#glyph1-3" x="290.178737" y="56.748"/>
  <use xlink:href="#glyph1-4" x="295.408106" y="56.748"/>
  <use xlink:href="#glyph1-5" x="300.637475" y="56.748"/>
  <use xlink:href="#glyph1-2" x="305.866844" y="56.748"/>
  <use xlink:href="#glyph1-13" x="311.096212" y="56.748"/>
  <use xlink:href="#glyph1-14" x="316.325581" y="56.748"/>
  <use xlink:href="#glyph1-5" x="321.55495" y="56.748"/>
  <use xlink:href="#glyph1-15" x="326.784319" y="56.748"/>
  <use xlink:href="#glyph1-2" x="332.013687" y="56.748"/>
  <use xlink:href="#glyph1-5" x="337.243056" y="56.748"/>
  <use xlink:href="#glyph1-16" x="342.472425" y="56.748"/>
</g>
<path style="fill:none;stroke-width:0.99628;stroke-linecap:butt;stroke-linejoin:miter;stroke:rgb(0%,0%,0%);stroke-opacity:1;stroke-miterlimit:10;" d="M 198.428031 42.519156 L 198.428031 97.566031 " transform="matrix(1,0,0,-1,40.654,117.484)"/>
<path style="fill-rule:nonzero;fill:rgb(0%,0%,0%);fill-opacity:1;stroke-width:0.99628;stroke-linecap:butt;stroke-linejoin:miter;stroke:rgb(0%,0%,0%);stroke-opacity:1;stroke-miterlimit:10;" d="M -6.502865 2.921504 L 0.372135 -0.00037125 L -6.502865 -2.91834 Z M -6.502865 2.921504 " transform="matrix(0,-1,-1,0,239.08166,19.91901)"/>
<g style="fill:rgb(0%,0%,0%);fill-opacity:1;">
  <use xlink:href="#glyph1-15" x="220.777" y="12.241"/>
  <use xlink:href="#glyph1-14" x="226.006369" y="12.241"/>
  <use xlink:href="#glyph1-5" x="231.235737" y="12.241"/>
  <use xlink:href="#glyph1-17" x="236.465106" y="12.241"/>
  <use xlink:href="#glyph1-16" x="241.694475" y="12.241"/>
  <use xlink:href="#glyph1-11" x="246.923844" y="12.241"/>
  <use xlink:href="#glyph1-12" x="252.153212" y="12.241"/>
</g>
</g>
</svg>
