<?xml version="1.0" encoding="UTF-8"?>
<svg xmlns="http://www.w3.org/2000/svg" xmlns:xlink="http://www.w3.org/1999/xlink" width="148.409" height="94.459" viewBox="0 0 148.409 94.459">
<defs>
<g>
<g id="glyph-0-0">
<path d="M 3.71875 -3.765625 C 3.53125 -4.140625 3.25 -4.40625 2.796875 -4.40625 C 1.640625 -4.40625 0.40625 -2.9375 0.40625 -1.484375 C 0.40625 -0.546875 0.953125 0.109375 1.71875 0.109375 C 1.921875 0.109375 2.421875 0.0625 3.015625 -0.640625 C 3.09375 -0.21875 3.453125 0.109375 3.921875 0.109375 C 4.28125 0.109375 4.5 -0.125 4.671875 -0.4375 C 4.828125 -0.796875 4.96875 -1.40625 4.96875 -1.421875 C 4.96875 -1.53125 4.875 -1.53125 4.84375 -1.53125 C 4.75 -1.53125 4.734375 -1.484375 4.703125 -1.34375 C 4.53125 -0.703125 4.359375 -0.109375 3.953125 -0.109375 C 3.671875 -0.109375 3.65625 -0.375 3.65625 -0.5625 C 3.65625 -0.78125 3.671875 -0.875 3.78125 -1.3125 C 3.890625 -1.71875 3.90625 -1.828125 4 -2.203125 L 4.359375 -3.59375 C 4.421875 -3.875 4.421875 -3.890625 4.421875 -3.9375 C 4.421875 -4.109375 4.3125 -4.203125 4.140625 -4.203125 C 3.890625 -4.203125 3.75 -3.984375 3.71875 -3.765625 Z M 3.078125 -1.1875 C 3.015625 -1 3.015625 -0.984375 2.875 -0.8125 C 2.4375 -0.265625 2.03125 -0.109375 1.75 -0.109375 C 1.25 -0.109375 1.109375 -0.65625 1.109375 -1.046875 C 1.109375 -1.546875 1.421875 -2.765625 1.65625 -3.234375 C 1.96875 -3.8125 2.40625 -4.1875 2.8125 -4.1875 C 3.453125 -4.1875 3.59375 -3.375 3.59375 -3.3125 C 3.59375 -3.25 3.578125 -3.1875 3.5625 -3.140625 Z M 3.078125 -1.1875 "/>
</g>
<g id="glyph-0-1">
<path d="M 2.375 -6.8125 C 2.375 -6.8125 2.375 -6.921875 2.25 -6.921875 C 2.03125 -6.921875 1.296875 -6.84375 1.03125 -6.8125 C 0.953125 -6.8125 0.84375 -6.796875 0.84375 -6.625 C 0.84375 -6.5 0.9375 -6.5 1.09375 -6.5 C 1.5625 -6.5 1.578125 -6.4375 1.578125 -6.328125 C 1.578125 -6.265625 1.5 -5.921875 1.453125 -5.71875 L 0.625 -2.46875 C 0.515625 -1.96875 0.46875 -1.796875 0.46875 -1.453125 C 0.46875 -0.515625 1 0.109375 1.734375 0.109375 C 2.90625 0.109375 4.140625 -1.375 4.140625 -2.8125 C 4.140625 -3.71875 3.609375 -4.40625 2.8125 -4.40625 C 2.359375 -4.40625 1.9375 -4.109375 1.640625 -3.8125 Z M 1.453125 -3.046875 C 1.5 -3.265625 1.5 -3.28125 1.59375 -3.390625 C 2.078125 -4.03125 2.53125 -4.1875 2.796875 -4.1875 C 3.15625 -4.1875 3.421875 -3.890625 3.421875 -3.25 C 3.421875 -2.65625 3.09375 -1.515625 2.90625 -1.140625 C 2.578125 -0.46875 2.125 -0.109375 1.734375 -0.109375 C 1.390625 -0.109375 1.0625 -0.375 1.0625 -1.109375 C 1.0625 -1.3125 1.0625 -1.5 1.21875 -2.125 Z M 1.453125 -3.046875 "/>
</g>
<g id="glyph-1-0">
<path d="M 4.078125 -2.296875 L 6.859375 -2.296875 C 7 -2.296875 7.1875 -2.296875 7.1875 -2.5 C 7.1875 -2.6875 7 -2.6875 6.859375 -2.6875 L 4.078125 -2.6875 L 4.078125 -5.484375 C 4.078125 -5.625 4.078125 -5.8125 3.875 -5.8125 C 3.671875 -5.8125 3.671875 -5.625 3.671875 -5.484375 L 3.671875 -2.6875 L 0.890625 -2.6875 C 0.75 -2.6875 0.5625 -2.6875 0.5625 -2.5 C 0.5625 -2.296875 0.75 -2.296875 0.890625 -2.296875 L 3.671875 -2.296875 L 3.671875 0.5 C 3.671875 0.640625 3.671875 0.828125 3.875 0.828125 C 4.078125 0.828125 4.078125 0.640625 4.078125 0.5 Z M 4.078125 -2.296875 "/>
</g>
<g id="glyph-2-0">
<path d="M 6.5625 -2.296875 C 6.734375 -2.296875 6.921875 -2.296875 6.921875 -2.5 C 6.921875 -2.6875 6.734375 -2.6875 6.5625 -2.6875 L 1.171875 -2.6875 C 1 -2.6875 0.828125 -2.6875 0.828125 -2.5 C 0.828125 -2.296875 1 -2.296875 1.171875 -2.296875 Z M 6.5625 -2.296875 "/>
</g>
</g>
<clipPath id="clip-0">
<path clip-rule="nonzero" d="M 17 20 L 102 20 L 102 94.460938 L 17 94.460938 Z M 17 20 "/>
</clipPath>
<clipPath id="clip-1">
<path clip-rule="nonzero" d="M 74 18 L 148.410156 18 L 148.410156 74 L 74 74 Z M 74 18 "/>
</clipPath>
<clipPath id="clip-2">
<path clip-rule="nonzero" d="M 120 40 L 148.410156 40 L 148.410156 75 L 120 75 Z M 120 40 "/>
</clipPath>
<clipPath id="clip-3">
<path clip-rule="nonzero" d="M 17 48 L 148.410156 48 L 148.410156 94.460938 L 17 94.460938 Z M 17 48 "/>
</clipPath>
<clipPath id="clip-4">
<path clip-rule="nonzero" d="M 120 46 L 148.410156 46 L 148.410156 81 L 120 81 Z M 120 46 "/>
</clipPath>
</defs>
<g clip-path="url(#clip-0)">
<path fill="none" stroke-width="0.99628" stroke-linecap="butt" stroke-linejoin="miter" stroke="rgb(0%, 0%, 100%)" stroke-opacity="1" stroke-miterlimit="10" d="M 0.00140625 -0.001 L 55.52875 55.526344 " transform="matrix(1, 0, 0, -1, 31.69, 89.749)"/>
</g>
<path fill-rule="nonzero" fill="rgb(0%, 0%, 100%)" fill-opacity="1" stroke-width="0.99628" stroke-linecap="butt" stroke-linejoin="miter" stroke="rgb(0%, 0%, 100%)" stroke-opacity="1" stroke-miterlimit="10" d="M -6.505123 2.917904 L 0.372661 0.00106067 L -6.505123 -2.921307 Z M -6.505123 2.917904 " transform="matrix(0.7071, -0.7071, -0.7071, -0.7071, 87.21771, 34.22129)"/>
<g fill="rgb(0%, 0%, 100%)" fill-opacity="1">
<use xlink:href="#glyph-0-0" x="50.953" y="55.592"/>
</g>
<path fill="none" stroke-width="0.398" stroke-linecap="butt" stroke-linejoin="miter" stroke="rgb(0%, 0%, 100%)" stroke-opacity="1" stroke-miterlimit="10" d="M 0.000125 -0.00128125 L 5.26575 -0.00128125 " transform="matrix(1, 0, 0, -1, 50.953, 56.987)"/>
<g clip-path="url(#clip-1)">
<path fill="none" stroke-width="0.99628" stroke-linecap="butt" stroke-linejoin="miter" stroke="rgb(100%, 0%, 0%)" stroke-opacity="1" stroke-miterlimit="10" d="M 56.692813 56.694313 L 110.130313 29.975563 " transform="matrix(1, 0, 0, -1, 31.69, 89.749)"/>
</g>
<path fill-rule="nonzero" fill="rgb(100%, 0%, 0%)" fill-opacity="1" d="M 137.308594 54.253906 L 142.15625 59.941406 L 134.699219 59.476562 Z M 137.308594 54.253906 "/>
<g clip-path="url(#clip-2)">
<path fill="none" stroke-width="0.99628" stroke-linecap="butt" stroke-linejoin="miter" stroke="rgb(100%, 0%, 0%)" stroke-opacity="1" stroke-miterlimit="10" d="M -6.504666 2.91971 L 0.375258 0.000299655 L -6.502971 -2.918988 Z M -6.504666 2.91971 " transform="matrix(0.89436, 0.44717, 0.44717, -0.89436, 141.8205, 59.77387)"/>
</g>
<g fill="rgb(100%, 0%, 0%)" fill-opacity="1">
<use xlink:href="#glyph-0-1" x="120.548" y="41.419"/>
</g>
<path fill="none" stroke-width="0.398" stroke-linecap="butt" stroke-linejoin="miter" stroke="rgb(100%, 0%, 0%)" stroke-opacity="1" stroke-miterlimit="10" d="M -0.001125 0.0015 L 4.276219 0.0015 " transform="matrix(1, 0, 0, -1, 120.548, 42.814)"/>
<g clip-path="url(#clip-3)">
<path fill="none" stroke-width="0.99628" stroke-linecap="butt" stroke-linejoin="miter" stroke="rgb(50%, 0%, 50%)" stroke-opacity="1" stroke-miterlimit="10" d="M 0.00140625 -0.001 L 109.852969 27.463844 " transform="matrix(1, 0, 0, -1, 31.69, 89.749)"/>
</g>
<path fill-rule="nonzero" fill="rgb(50%, 0%, 50%)" fill-opacity="1" d="M 134.527344 61.03125 L 141.90625 62.195312 L 135.941406 66.695312 Z M 134.527344 61.03125 "/>
<g clip-path="url(#clip-4)">
<path fill="none" stroke-width="0.99628" stroke-linecap="butt" stroke-linejoin="miter" stroke="rgb(50%, 0%, 50%)" stroke-opacity="1" stroke-miterlimit="10" d="M -6.503702 2.918375 L 0.372693 -0.00043723 L -6.505455 -2.919583 Z M -6.503702 2.918375 " transform="matrix(0.97014, -0.24251, -0.24251, -0.97014, 141.54458, 62.28527)"/>
</g>
<g fill="rgb(50%, 0%, 50%)" fill-opacity="1">
<use xlink:href="#glyph-0-0" x="92.201" y="86.312"/>
</g>
<path fill="none" stroke-width="0.398" stroke-linecap="butt" stroke-linejoin="miter" stroke="rgb(50%, 0%, 50%)" stroke-opacity="1" stroke-miterlimit="10" d="M -0.00178125 -0.00003125 L 5.26775 -0.00003125 " transform="matrix(1, 0, 0, -1, 92.201, 87.707)"/>
<g fill="rgb(50%, 0%, 50%)" fill-opacity="1">
<use xlink:href="#glyph-1-0" x="99.681" y="86.312"/>
</g>
<g fill="rgb(50%, 0%, 50%)" fill-opacity="1">
<use xlink:href="#glyph-0-1" x="109.644" y="86.312"/>
</g>
<path fill="none" stroke-width="0.398" stroke-linecap="butt" stroke-linejoin="miter" stroke="rgb(50%, 0%, 50%)" stroke-opacity="1" stroke-miterlimit="10" d="M 0.00053125 -0.00003125 L 4.277875 -0.00003125 " transform="matrix(1, 0, 0, -1, 109.644, 87.707)"/>
<path fill="none" stroke-width="0.99628" stroke-linecap="butt" stroke-linejoin="miter" stroke="rgb(0%, 0%, 0%)" stroke-opacity="1" stroke-miterlimit="10" d="M 56.692813 56.694313 L 1.474062 84.303688 " transform="matrix(1, 0, 0, -1, 31.69, 89.749)"/>
<path fill-rule="nonzero" fill="rgb(0%, 0%, 0%)" fill-opacity="1" stroke-width="0.99628" stroke-linecap="butt" stroke-linejoin="miter" stroke="rgb(0%, 0%, 0%)" stroke-opacity="1" stroke-miterlimit="10" d="M -6.503517 2.919167 L 0.372914 -0.0019908 L -6.505316 -2.921279 Z M -6.503517 2.919167 " transform="matrix(-0.89436, -0.44717, -0.44717, 0.89436, 33.16466, 5.44588)"/>
<g fill="rgb(0%, 0%, 0%)" fill-opacity="1">
<use xlink:href="#glyph-2-0" x="63.855" y="13.073"/>
</g>
<g fill="rgb(0%, 0%, 0%)" fill-opacity="1">
<use xlink:href="#glyph-0-1" x="71.603" y="13.073"/>
</g>
<path fill="none" stroke-width="0.398" stroke-linecap="butt" stroke-linejoin="miter" stroke="rgb(0%, 0%, 0%)" stroke-opacity="1" stroke-miterlimit="10" d="M -0.0014375 -0.00175 L 4.275906 -0.00175 " transform="matrix(1, 0, 0, -1, 71.603, 14.467)"/>
<path fill="none" stroke-width="0.99628" stroke-linecap="butt" stroke-linejoin="miter" stroke="rgb(0%, 50%, 0%)" stroke-opacity="1" stroke-miterlimit="10" d="M 0.00140625 -0.001 L 0.00140625 81.397438 " transform="matrix(1, 0, 0, -1, 31.69, 89.749)"/>
<path fill-rule="nonzero" fill="rgb(0%, 50%, 0%)" fill-opacity="1" stroke-width="0.99628" stroke-linecap="butt" stroke-linejoin="miter" stroke="rgb(0%, 50%, 0%)" stroke-opacity="1" stroke-miterlimit="10" d="M -6.505499 2.920469 L 0.373408 -0.00140625 L -6.505499 -2.919375 Z M -6.505499 2.920469 " transform="matrix(0, -1, -1, 0, 31.69, 8.34997)"/>
<g fill="rgb(0%, 50%, 0%)" fill-opacity="1">
<use xlink:href="#glyph-0-0" x="6.154" y="49.692"/>
</g>
<path fill="none" stroke-width="0.398" stroke-linecap="butt" stroke-linejoin="miter" stroke="rgb(0%, 50%, 0%)" stroke-opacity="1" stroke-miterlimit="10" d="M -0.00165625 0.0010625 L 5.267875 0.0010625 " transform="matrix(1, 0, 0, -1, 6.154, 51.087)"/>
<g fill="rgb(0%, 50%, 0%)" fill-opacity="1">
<use xlink:href="#glyph-2-0" x="13.634" y="49.692"/>
</g>
<g fill="rgb(0%, 50%, 0%)" fill-opacity="1">
<use xlink:href="#glyph-0-1" x="23.597" y="49.692"/>
</g>
<path fill="none" stroke-width="0.398" stroke-linecap="butt" stroke-linejoin="miter" stroke="rgb(0%, 50%, 0%)" stroke-opacity="1" stroke-miterlimit="10" d="M 0.00065625 0.0010625 L 4.274094 0.0010625 " transform="matrix(1, 0, 0, -1, 23.597, 51.087)"/>
</svg>
