<?xml version="1.0" encoding="UTF-8"?>
<svg xmlns="http://www.w3.org/2000/svg" xmlns:xlink="http://www.w3.org/1999/xlink" width="65.457" height="48.514" viewBox="0 0 65.457 48.514">
<defs>
<g>
<g id="glyph-0-0">
<path d="M 3.71875 -3.765625 C 3.53125 -4.140625 3.25 -4.40625 2.796875 -4.40625 C 1.640625 -4.40625 0.40625 -2.9375 0.40625 -1.484375 C 0.40625 -0.546875 0.953125 0.109375 1.71875 0.109375 C 1.921875 0.109375 2.421875 0.0625 3.015625 -0.640625 C 3.09375 -0.21875 3.453125 0.109375 3.921875 0.109375 C 4.28125 0.109375 4.5 -0.125 4.671875 -0.4375 C 4.828125 -0.796875 4.96875 -1.40625 4.96875 -1.421875 C 4.96875 -1.53125 4.875 -1.53125 4.84375 -1.53125 C 4.75 -1.53125 4.734375 -1.484375 4.703125 -1.34375 C 4.53125 -0.703125 4.359375 -0.109375 3.953125 -0.109375 C 3.671875 -0.109375 3.65625 -0.375 3.65625 -0.5625 C 3.65625 -0.78125 3.671875 -0.875 3.78125 -1.3125 C 3.890625 -1.71875 3.90625 -1.828125 4 -2.203125 L 4.359375 -3.59375 C 4.421875 -3.875 4.421875 -3.890625 4.421875 -3.9375 C 4.421875 -4.109375 4.3125 -4.203125 4.140625 -4.203125 C 3.890625 -4.203125 3.75 -3.984375 3.71875 -3.765625 Z M 3.078125 -1.1875 C 3.015625 -1 3.015625 -0.984375 2.875 -0.8125 C 2.4375 -0.265625 2.03125 -0.109375 1.75 -0.109375 C 1.25 -0.109375 1.109375 -0.65625 1.109375 -1.046875 C 1.109375 -1.546875 1.421875 -2.765625 1.65625 -3.234375 C 1.96875 -3.8125 2.40625 -4.1875 2.8125 -4.1875 C 3.453125 -4.1875 3.59375 -3.375 3.59375 -3.3125 C 3.59375 -3.25 3.578125 -3.1875 3.5625 -3.140625 Z M 3.078125 -1.1875 "/>
</g>
<g id="glyph-1-0">
<path d="M -0.953125 -7.234375 C -1.015625 -7.40625 -1.078125 -7.578125 -1.25 -7.5 C -1.453125 -7.4375 -1.390625 -7.265625 -1.328125 -7.09375 L 1.84375 1.609375 C 1.90625 1.765625 1.96875 1.9375 2.171875 1.875 C 2.34375 1.796875 2.28125 1.625 2.21875 1.46875 Z M -0.953125 -7.234375 "/>
</g>
<g id="glyph-2-0">
<path d="M 2.21875 -4.796875 C 1.890625 -5.09375 1.546875 -5.25 1.125 -5.09375 C 0.046875 -4.703125 -0.625 -2.90625 -0.125 -1.53125 C 0.1875 -0.65625 0.921875 -0.21875 1.640625 -0.484375 C 1.84375 -0.546875 2.296875 -0.765625 2.609375 -1.640625 C 2.828125 -1.265625 3.28125 -1.078125 3.71875 -1.234375 C 4.046875 -1.359375 4.1875 -1.671875 4.234375 -2 C 4.265625 -2.40625 4.1875 -3.03125 4.1875 -3.046875 C 4.140625 -3.140625 4.046875 -3.109375 4.015625 -3.09375 C 3.9375 -3.0625 3.953125 -3.015625 3.96875 -2.875 C 4.03125 -2.203125 4.0625 -1.59375 3.6875 -1.46875 C 3.421875 -1.359375 3.3125 -1.609375 3.25 -1.78125 C 3.171875 -1.984375 3.15625 -2.078125 3.09375 -2.53125 C 3.0625 -2.9375 3.046875 -3.0625 3.015625 -3.4375 L 2.859375 -4.859375 C 2.828125 -5.15625 2.828125 -5.171875 2.8125 -5.21875 C 2.75 -5.375 2.609375 -5.421875 2.453125 -5.375 C 2.21875 -5.28125 2.171875 -5.03125 2.21875 -4.796875 Z M 2.484375 -2.15625 C 2.484375 -1.96875 2.484375 -1.953125 2.421875 -1.75 C 2.203125 -1.078125 1.875 -0.796875 1.609375 -0.703125 C 1.140625 -0.53125 0.828125 -0.984375 0.6875 -1.359375 C 0.515625 -1.828125 0.390625 -3.078125 0.453125 -3.609375 C 0.546875 -4.25 0.828125 -4.765625 1.203125 -4.90625 C 1.8125 -5.125 2.21875 -4.40625 2.234375 -4.34375 C 2.265625 -4.28125 2.265625 -4.21875 2.265625 -4.171875 Z M 2.484375 -2.15625 "/>
</g>
</g>
<clipPath id="clip-0">
<path clip-rule="nonzero" d="M 0 0 L 65.457031 0 L 65.457031 41 L 0 41 Z M 0 0 "/>
</clipPath>
<clipPath id="clip-1">
<path clip-rule="nonzero" d="M 33 0 L 65.457031 0 L 65.457031 27 L 33 27 Z M 33 0 "/>
</clipPath>
<clipPath id="clip-2">
<path clip-rule="nonzero" d="M 0 6 L 65.457031 6 L 65.457031 48 L 0 48 Z M 0 6 "/>
</clipPath>
</defs>
<g clip-path="url(#clip-0)">
<path fill="none" stroke-width="0.99628" stroke-linecap="butt" stroke-linejoin="miter" stroke="rgb(0%, 0%, 100%)" stroke-opacity="1" stroke-miterlimit="10" d="M -0.00096875 -0.00021875 L 51.725594 18.827906 " transform="matrix(1, 0, 0, -1, 3.333, 25.949)"/>
</g>
<path fill-rule="nonzero" fill="rgb(0%, 0%, 100%)" fill-opacity="1" d="M 47.949219 6.605469 L 55.410156 6.996094 L 49.945312 12.089844 Z M 47.949219 6.605469 "/>
<g clip-path="url(#clip-1)">
<path fill="none" stroke-width="0.99628" stroke-linecap="butt" stroke-linejoin="miter" stroke="rgb(0%, 0%, 100%)" stroke-opacity="1" stroke-miterlimit="10" d="M -6.503808 2.91731 L 0.373651 -0.0017173 L -6.50396 -2.919125 Z M -6.503808 2.91731 " transform="matrix(0.93967, -0.34203, -0.34203, -0.93967, 55.05846, 7.12228)"/>
</g>
<g fill="rgb(0%, 0%, 100%)" fill-opacity="1">
<use xlink:href="#glyph-0-0" x="20.886" y="10.444"/>
</g>
<path fill="none" stroke-width="0.398" stroke-linecap="butt" stroke-linejoin="miter" stroke="rgb(0%, 0%, 100%)" stroke-opacity="1" stroke-miterlimit="10" d="M 0.00071875 -0.00084375 L 5.266344 -0.00084375 " transform="matrix(1, 0, 0, -1, 20.886, 11.839)"/>
<path fill="none" stroke-width="0.3985" stroke-linecap="butt" stroke-linejoin="miter" stroke="rgb(0%, 0%, 100%)" stroke-opacity="1" stroke-miterlimit="10" d="M 6.124031 -9.836156 L 54.905281 7.91775 " transform="matrix(1, 0, 0, -1, 3.333, 25.949)"/>
<path fill-rule="nonzero" fill="rgb(0%, 0%, 100%)" fill-opacity="1" d="M 7.210938 36.605469 C 8.214844 36.449219 10.035156 36.210938 11.464844 36.644531 C 10.15625 35.957031 9.882812 35.207031 10.445312 33.835938 C 9.628906 35.089844 8.078125 36.074219 7.210938 36.605469 Z M 7.210938 36.605469 "/>
<path fill-rule="nonzero" fill="rgb(0%, 0%, 100%)" fill-opacity="1" d="M 60.484375 17.214844 C 59.480469 17.367188 57.660156 17.605469 56.230469 17.171875 C 57.539062 17.859375 57.8125 18.609375 57.253906 19.980469 C 58.070312 18.730469 59.617188 17.742188 60.484375 17.214844 Z M 60.484375 17.214844 "/>
<g fill="rgb(0%, 0%, 100%)" fill-opacity="1">
<use xlink:href="#glyph-1-0" x="32.532" y="39.084"/>
</g>
<g fill="rgb(0%, 0%, 100%)" fill-opacity="1">
<use xlink:href="#glyph-2-0" x="35.13215" y="38.137603"/>
</g>
<path fill="none" stroke-width="0.398" stroke-linecap="butt" stroke-linejoin="miter" stroke="rgb(0%, 0%, 100%)" stroke-opacity="1" stroke-miterlimit="10" d="M -0.000163509 -0.000721864 L 5.26643 -0.001309 " transform="matrix(0.9397, -0.34203, -0.34203, -0.9397, 35.609282, 39.448484)"/>
<g fill="rgb(0%, 0%, 100%)" fill-opacity="1">
<use xlink:href="#glyph-1-0" x="40.08061" y="36.336473"/>
</g>
<g clip-path="url(#clip-2)">
<path fill="none" stroke-width="0.3985" stroke-linecap="butt" stroke-linejoin="miter" stroke="rgb(0%, 0%, 100%)" stroke-opacity="1" stroke-miterlimit="10" d="M 1.940438 -5.328344 L 5.815437 -15.980688 M 55.213875 14.062281 L 59.092781 3.409937 " transform="matrix(1, 0, 0, -1, 3.333, 25.949)"/>
</g>
</svg>
