<?xml version="1.0" encoding="UTF-8"?>
<svg xmlns="http://www.w3.org/2000/svg" xmlns:xlink="http://www.w3.org/1999/xlink" width="289.83pt" height="291.252pt" viewBox="0 0 289.83 291.252" version="1.1">
<defs>
<g>
<symbol overflow="visible" id="glyph0-0">
<path style="stroke:none;" d=""/>
</symbol>
<symbol overflow="visible" id="glyph0-1">
<path style="stroke:none;" d="M 3.328125 -3.015625 C 3.390625 -3.265625 3.625 -4.1875 4.3125 -4.1875 C 4.359375 -4.1875 4.609375 -4.1875 4.8125 -4.0625 C 4.53125 -4 4.34375 -3.765625 4.34375 -3.515625 C 4.34375 -3.359375 4.453125 -3.171875 4.71875 -3.171875 C 4.9375 -3.171875 5.25 -3.34375 5.25 -3.75 C 5.25 -4.265625 4.671875 -4.40625 4.328125 -4.40625 C 3.75 -4.40625 3.40625 -3.875 3.28125 -3.65625 C 3.03125 -4.3125 2.5 -4.40625 2.203125 -4.40625 C 1.171875 -4.40625 0.59375 -3.125 0.59375 -2.875 C 0.59375 -2.765625 0.703125 -2.765625 0.71875 -2.765625 C 0.796875 -2.765625 0.828125 -2.796875 0.84375 -2.875 C 1.1875 -3.9375 1.84375 -4.1875 2.1875 -4.1875 C 2.375 -4.1875 2.71875 -4.09375 2.71875 -3.515625 C 2.71875 -3.203125 2.546875 -2.546875 2.1875 -1.140625 C 2.03125 -0.53125 1.671875 -0.109375 1.234375 -0.109375 C 1.171875 -0.109375 0.953125 -0.109375 0.734375 -0.234375 C 0.984375 -0.296875 1.203125 -0.5 1.203125 -0.78125 C 1.203125 -1.046875 0.984375 -1.125 0.84375 -1.125 C 0.53125 -1.125 0.296875 -0.875 0.296875 -0.546875 C 0.296875 -0.09375 0.78125 0.109375 1.21875 0.109375 C 1.890625 0.109375 2.25 -0.59375 2.265625 -0.640625 C 2.390625 -0.28125 2.75 0.109375 3.34375 0.109375 C 4.375 0.109375 4.9375 -1.171875 4.9375 -1.421875 C 4.9375 -1.53125 4.859375 -1.53125 4.828125 -1.53125 C 4.734375 -1.53125 4.71875 -1.484375 4.6875 -1.421875 C 4.359375 -0.34375 3.6875 -0.109375 3.375 -0.109375 C 2.984375 -0.109375 2.828125 -0.421875 2.828125 -0.765625 C 2.828125 -0.984375 2.875 -1.203125 2.984375 -1.640625 Z M 3.328125 -3.015625 "/>
</symbol>
<symbol overflow="visible" id="glyph0-2">
<path style="stroke:none;" d="M 4.84375 -3.796875 C 4.890625 -3.9375 4.890625 -3.953125 4.890625 -4.03125 C 4.890625 -4.203125 4.75 -4.296875 4.59375 -4.296875 C 4.5 -4.296875 4.34375 -4.234375 4.25 -4.09375 C 4.234375 -4.03125 4.140625 -3.734375 4.109375 -3.546875 C 4.03125 -3.296875 3.96875 -3.015625 3.90625 -2.75 L 3.453125 -0.953125 C 3.421875 -0.8125 2.984375 -0.109375 2.328125 -0.109375 C 1.828125 -0.109375 1.71875 -0.546875 1.71875 -0.921875 C 1.71875 -1.375 1.890625 -2 2.21875 -2.875 C 2.375 -3.28125 2.421875 -3.390625 2.421875 -3.59375 C 2.421875 -4.03125 2.109375 -4.40625 1.609375 -4.40625 C 0.65625 -4.40625 0.296875 -2.953125 0.296875 -2.875 C 0.296875 -2.765625 0.390625 -2.765625 0.40625 -2.765625 C 0.515625 -2.765625 0.515625 -2.796875 0.5625 -2.953125 C 0.84375 -3.890625 1.234375 -4.1875 1.578125 -4.1875 C 1.65625 -4.1875 1.828125 -4.1875 1.828125 -3.875 C 1.828125 -3.625 1.71875 -3.359375 1.65625 -3.171875 C 1.25 -2.109375 1.078125 -1.546875 1.078125 -1.078125 C 1.078125 -0.1875 1.703125 0.109375 2.296875 0.109375 C 2.6875 0.109375 3.015625 -0.0625 3.296875 -0.34375 C 3.171875 0.171875 3.046875 0.671875 2.65625 1.203125 C 2.390625 1.53125 2.015625 1.828125 1.5625 1.828125 C 1.421875 1.828125 0.96875 1.796875 0.796875 1.40625 C 0.953125 1.40625 1.09375 1.40625 1.21875 1.28125 C 1.328125 1.203125 1.421875 1.0625 1.421875 0.875 C 1.421875 0.5625 1.15625 0.53125 1.0625 0.53125 C 0.828125 0.53125 0.5 0.6875 0.5 1.171875 C 0.5 1.671875 0.9375 2.046875 1.5625 2.046875 C 2.578125 2.046875 3.609375 1.140625 3.890625 0.015625 Z M 4.84375 -3.796875 "/>
</symbol>
<symbol overflow="visible" id="glyph0-3">
<path style="stroke:none;" d="M 1.328125 -0.828125 C 1.859375 -1.40625 2.15625 -1.65625 2.515625 -1.96875 C 2.515625 -1.96875 3.125 -2.5 3.484375 -2.859375 C 4.4375 -3.78125 4.65625 -4.265625 4.65625 -4.3125 C 4.65625 -4.40625 4.5625 -4.40625 4.546875 -4.40625 C 4.46875 -4.40625 4.453125 -4.390625 4.390625 -4.296875 C 4.09375 -3.8125 3.890625 -3.65625 3.65625 -3.65625 C 3.40625 -3.65625 3.296875 -3.8125 3.140625 -3.984375 C 2.953125 -4.203125 2.78125 -4.40625 2.453125 -4.40625 C 1.703125 -4.40625 1.25 -3.484375 1.25 -3.265625 C 1.25 -3.21875 1.28125 -3.15625 1.359375 -3.15625 C 1.453125 -3.15625 1.46875 -3.203125 1.5 -3.265625 C 1.6875 -3.734375 2.265625 -3.734375 2.34375 -3.734375 C 2.546875 -3.734375 2.734375 -3.671875 2.96875 -3.59375 C 3.375 -3.4375 3.484375 -3.4375 3.734375 -3.4375 C 3.375 -3.015625 2.546875 -2.296875 2.359375 -2.140625 L 1.453125 -1.296875 C 0.78125 -0.625 0.421875 -0.0625 0.421875 0.015625 C 0.421875 0.109375 0.53125 0.109375 0.546875 0.109375 C 0.625 0.109375 0.640625 0.09375 0.703125 -0.015625 C 0.9375 -0.375 1.234375 -0.640625 1.5625 -0.640625 C 1.78125 -0.640625 1.890625 -0.546875 2.140625 -0.265625 C 2.296875 -0.046875 2.484375 0.109375 2.765625 0.109375 C 3.765625 0.109375 4.34375 -1.15625 4.34375 -1.421875 C 4.34375 -1.46875 4.296875 -1.53125 4.21875 -1.53125 C 4.125 -1.53125 4.109375 -1.46875 4.078125 -1.390625 C 3.84375 -0.75 3.203125 -0.5625 2.875 -0.5625 C 2.6875 -0.5625 2.5 -0.625 2.296875 -0.6875 C 1.953125 -0.8125 1.796875 -0.859375 1.59375 -0.859375 C 1.578125 -0.859375 1.421875 -0.859375 1.328125 -0.828125 Z M 1.328125 -0.828125 "/>
</symbol>
<symbol overflow="visible" id="glyph1-0">
<path style="stroke:none;" d=""/>
</symbol>
<symbol overflow="visible" id="glyph1-1">
<path style="stroke:none;" d="M 2.34375 -4.609375 C 1.09375 -4.453125 0.296875 -3.375 0.296875 -2.21875 C 0.296875 -1.109375 1.109375 0.09375 2.5 0.09375 L 2.625 0.09375 C 3.84375 -0.046875 4.609375 -0.96875 4.671875 -2.078125 L 4.671875 -2.21875 C 4.671875 -3.375 3.8125 -4.609375 2.46875 -4.609375 Z M 1.078125 -2.140625 C 1.0625 -2.203125 1.0625 -2.265625 1.0625 -2.328125 C 1.0625 -3.15625 1.59375 -4 2.5 -4 C 3.375 -4 3.890625 -3.1875 3.890625 -2.296875 C 3.890625 -1.53125 3.53125 -0.53125 2.5 -0.53125 C 1.671875 -0.53125 1.171875 -1.25 1.078125 -2.140625 Z M 1.078125 -2.140625 "/>
</symbol>
<symbol overflow="visible" id="glyph1-2">
<path style="stroke:none;" d="M 0.8125 -7.203125 L 0.8125 -0.015625 L 1.59375 -0.015625 L 1.59375 -0.46875 C 1.984375 -0.125 2.390625 0.09375 2.984375 0.09375 C 4.109375 0.09375 4.796875 -1.1875 4.796875 -2.25 C 4.796875 -3.140625 4.3125 -4.5625 3.15625 -4.5625 C 2.59375 -4.5625 2 -4.328125 1.5625 -3.953125 L 1.5625 -7.203125 Z M 4 -2.046875 C 3.9375 -1.265625 3.4375 -0.5 2.5625 -0.5 C 2.15625 -0.5 1.59375 -0.859375 1.59375 -1.25 L 1.59375 -2.765625 C 1.59375 -2.875 1.578125 -3 1.578125 -3.125 C 1.578125 -3.5625 2.171875 -3.9375 2.65625 -3.9375 C 3.65625 -3.9375 4 -2.96875 4 -2.21875 C 4 -2.15625 4 -2.109375 4 -2.046875 Z M 4 -2.046875 "/>
</symbol>
<symbol overflow="visible" id="glyph1-3">
<path style="stroke:none;" d="M 1.09375 -4.4375 L 1.09375 0.65625 C 1.09375 1.171875 0.734375 1.390625 0.3125 1.390625 C 0.015625 1.390625 -0.21875 1.25 -0.453125 1.09375 C -0.484375 1.21875 -0.515625 1.375 -0.5625 1.515625 C -0.5625 1.5625 -0.59375 1.609375 -0.59375 1.640625 C -0.59375 1.859375 0.296875 2.046875 0.5625 2.046875 C 1.25 2.046875 1.765625 1.484375 1.828125 0.734375 L 1.828125 -4.4375 Z M 0.953125 -6.78125 L 0.953125 -5.90625 L 1.828125 -5.90625 L 1.828125 -6.78125 Z M 0.953125 -6.78125 "/>
</symbol>
<symbol overflow="visible" id="glyph1-4">
<path style="stroke:none;" d="M 4.03125 -1.0625 C 3.53125 -0.75 3.125 -0.515625 2.5625 -0.515625 C 1.78125 -0.515625 1.03125 -1.203125 1.03125 -2.1875 L 4.125 -2.1875 C 4.125 -2.875 4.015625 -3.625 3.53125 -4.140625 C 3.21875 -4.453125 2.796875 -4.609375 2.359375 -4.609375 C 1.8125 -4.609375 1.3125 -4.34375 0.953125 -3.953125 C 0.53125 -3.484375 0.34375 -2.84375 0.34375 -2.21875 L 0.34375 -2.171875 C 0.34375 -1 1.25 0.09375 2.515625 0.09375 C 3.015625 0.09375 3.515625 -0.046875 3.9375 -0.3125 C 4 -0.375 4.09375 -0.390625 4.09375 -0.484375 C 4.09375 -0.671875 4.03125 -0.875 4.03125 -1.0625 Z M 1.09375 -2.734375 C 1.21875 -3.34375 1.65625 -3.984375 2.359375 -3.984375 C 3.0625 -3.984375 3.484375 -3.40625 3.5625 -2.734375 Z M 1.09375 -2.734375 "/>
</symbol>
<symbol overflow="visible" id="glyph1-5">
<path style="stroke:none;" d="M 4.078125 -1.0625 C 3.890625 -0.96875 3.71875 -0.84375 3.53125 -0.75 C 3.21875 -0.59375 2.84375 -0.53125 2.5 -0.53125 L 2.40625 -0.53125 C 1.53125 -0.625 1.140625 -1.46875 1.140625 -2.234375 C 1.140625 -3.046875 1.5625 -3.96875 2.53125 -3.96875 C 2.953125 -3.96875 3.390625 -3.890625 3.75 -3.65625 C 3.828125 -3.609375 3.890625 -3.546875 3.984375 -3.515625 C 3.984375 -3.703125 4.078125 -3.90625 4.078125 -4.109375 C 4.078125 -4.53125 2.53125 -4.609375 2.546875 -4.609375 C 1.1875 -4.609375 0.359375 -3.40625 0.359375 -2.203125 L 0.359375 -2.140625 C 0.375 -1 1.265625 0.09375 2.5 0.09375 C 3.03125 0.09375 3.53125 -0.03125 4 -0.3125 C 4.0625 -0.359375 4.140625 -0.375 4.140625 -0.484375 C 4.140625 -0.671875 4.09375 -0.875 4.078125 -1.0625 Z M 4.078125 -1.0625 "/>
</symbol>
<symbol overflow="visible" id="glyph1-6">
<path style="stroke:none;" d="M 1.0625 -5.703125 L 1.0625 -4.4375 L 0.171875 -4.4375 L 0.171875 -3.84375 L 1.03125 -3.84375 L 1.03125 -1.21875 C 1.03125 -0.671875 1.140625 0.09375 1.859375 0.09375 C 2.375 0.09375 2.859375 -0.046875 3.3125 -0.28125 L 3.15625 -0.875 C 2.859375 -0.671875 2.609375 -0.53125 2.25 -0.53125 C 1.796875 -0.53125 1.75 -1.03125 1.75 -1.375 L 1.75 -3.84375 L 3.15625 -3.84375 L 3.15625 -4.4375 L 1.75 -4.4375 L 1.75 -5.703125 Z M 1.0625 -5.703125 "/>
</symbol>
<symbol overflow="visible" id="glyph1-7">
<path style="stroke:none;" d="M 0.40625 -1.03125 C 0.359375 -0.828125 0.296875 -0.59375 0.296875 -0.40625 C 0.296875 -0.140625 1.328125 0.046875 1.453125 0.0625 C 1.609375 0.078125 1.78125 0.09375 1.96875 0.09375 C 2.703125 0.09375 3.59375 -0.1875 3.59375 -1.28125 C 3.59375 -1.921875 3.09375 -2.4375 2.515625 -2.609375 C 2.03125 -2.75 1.046875 -2.71875 1.046875 -3.40625 C 1.046875 -3.8125 1.421875 -4.015625 1.828125 -4.015625 C 2.171875 -4.015625 2.515625 -3.984375 2.84375 -3.84375 C 3.015625 -3.78125 3.15625 -3.6875 3.3125 -3.625 L 3.421875 -4.28125 C 2.9375 -4.5 2.484375 -4.609375 1.96875 -4.609375 C 1.203125 -4.609375 0.328125 -4.296875 0.328125 -3.3125 C 0.328125 -2.53125 1.015625 -2.109375 1.671875 -1.984375 C 2.125 -1.90625 2.875 -1.828125 2.875 -1.203125 C 2.875 -0.734375 2.40625 -0.53125 1.96875 -0.53125 C 1.390625 -0.53125 0.953125 -0.703125 0.40625 -1.03125 Z M 0.40625 -1.03125 "/>
</symbol>
<symbol overflow="visible" id="glyph1-8">
<path style="stroke:none;" d="M 1.5625 -3.953125 L 1.5625 -4.4375 L 0.8125 -4.4375 L 0.8125 1.921875 L 1.59375 1.921875 L 1.59375 -0.46875 C 1.96875 -0.125 2.4375 0.09375 2.953125 0.09375 C 4.109375 0.09375 4.78125 -1.171875 4.78125 -2.21875 C 4.78125 -3.078125 4.375 -4.5625 3.1875 -4.5625 C 2.625 -4.5625 2 -4.34375 1.5625 -3.953125 Z M 4 -2.078125 C 3.921875 -1.328125 3.40625 -0.515625 2.546875 -0.515625 C 2.1875 -0.515625 1.59375 -0.828125 1.59375 -1.25 L 1.59375 -2.75 C 1.59375 -2.859375 1.578125 -2.984375 1.578125 -3.09375 C 1.578125 -3.546875 2.15625 -3.90625 2.65625 -3.90625 C 3.484375 -3.90625 4 -3.015625 4 -2.25 C 4 -2.1875 4 -2.140625 4 -2.078125 Z M 4 -2.078125 "/>
</symbol>
<symbol overflow="visible" id="glyph1-9">
<path style="stroke:none;" d="M 0.8125 -3.515625 C 0.96875 -3.59375 1.09375 -3.6875 1.25 -3.765625 C 1.578125 -3.953125 1.96875 -4.015625 2.359375 -4.015625 C 2.953125 -4.015625 3.203125 -3.34375 3.203125 -2.828125 C 3.203125 -2.703125 3.203125 -2.578125 3.203125 -2.453125 C 2.1875 -2.453125 0.4375 -2.21875 0.4375 -1.140625 C 0.4375 -0.515625 0.875 0.09375 1.5625 0.09375 C 2.140625 0.09375 2.796875 -0.015625 3.234375 -0.375 L 3.234375 -0.015625 L 3.984375 -0.015625 L 3.984375 -2.796875 C 3.984375 -3.625 3.546875 -4.53125 2.46875 -4.609375 L 2.359375 -4.609375 C 1.859375 -4.609375 1.40625 -4.5 0.953125 -4.28125 C 0.875 -4.25 0.75 -4.203125 0.75 -4.09375 C 0.75 -3.890625 0.8125 -3.703125 0.8125 -3.515625 Z M 3.203125 -1.9375 L 3.203125 -1.296875 C 3.203125 -0.71875 2.609375 -0.5 2.09375 -0.5 C 1.671875 -0.5 1.15625 -0.703125 1.15625 -1.171875 C 1.171875 -1.65625 1.953125 -1.8125 2.328125 -1.859375 C 2.609375 -1.90625 2.90625 -1.9375 3.203125 -1.9375 Z M 3.203125 -1.9375 "/>
</symbol>
<symbol overflow="visible" id="glyph1-10">
<path style="stroke:none;" d="M 1.53125 -3.78125 L 1.53125 -4.5 L 0.8125 -4.5 L 0.8125 -0.015625 L 1.578125 -0.015625 L 1.578125 -2.28125 C 1.578125 -2.90625 1.703125 -3.9375 2.578125 -3.9375 C 3.234375 -3.9375 3.578125 -3.5625 3.578125 -2.890625 C 3.578125 -2.765625 3.5625 -2.640625 3.5625 -2.515625 L 3.5625 -0.015625 L 4.34375 -0.015625 L 4.34375 -2.28125 C 4.34375 -2.90625 4.46875 -3.9375 5.34375 -3.9375 C 5.984375 -3.9375 6.34375 -3.5625 6.34375 -2.890625 C 6.34375 -2.765625 6.328125 -2.640625 6.328125 -2.515625 L 6.328125 -0.015625 L 7.109375 -0.015625 L 7.109375 -2.859375 C 7.109375 -3.21875 7.09375 -3.578125 6.9375 -3.90625 C 6.734375 -4.359375 6.234375 -4.546875 5.734375 -4.546875 C 5.15625 -4.546875 4.59375 -4.265625 4.25 -3.734375 C 4 -4.234375 3.703125 -4.546875 2.984375 -4.546875 C 2.4375 -4.546875 1.78125 -4.25 1.53125 -3.78125 Z M 1.53125 -3.78125 "/>
</symbol>
<symbol overflow="visible" id="glyph1-11">
<path style="stroke:none;" d="M 3.578125 -7.203125 L 3.578125 -4 C 3.171875 -4.34375 2.640625 -4.546875 2.109375 -4.546875 C 0.9375 -4.546875 0.359375 -3.203125 0.359375 -2.21875 C 0.359375 -1.171875 0.921875 0.09375 2.140625 0.09375 C 2.671875 0.09375 3.171875 -0.171875 3.546875 -0.53125 L 3.546875 -0.015625 L 4.328125 -0.015625 L 4.328125 -7.203125 Z M 1.140625 -2.046875 C 1.125 -2.109375 1.125 -2.1875 1.125 -2.25 C 1.125 -3.046875 1.59375 -3.9375 2.578125 -3.9375 C 2.96875 -3.9375 3.5625 -3.671875 3.5625 -3.171875 C 3.5625 -3.046875 3.546875 -2.9375 3.546875 -2.828125 L 3.546875 -1.328125 C 3.546875 -0.84375 2.84375 -0.515625 2.484375 -0.515625 C 1.625 -0.515625 1.21875 -1.28125 1.140625 -2.046875 Z M 1.140625 -2.046875 "/>
</symbol>
<symbol overflow="visible" id="glyph1-12">
<path style="stroke:none;" d="M 0.8125 -7.203125 L 0.8125 -0.015625 L 1.5625 -0.015625 L 1.5625 -7.203125 Z M 0.8125 -7.203125 "/>
</symbol>
<symbol overflow="visible" id="glyph1-13">
<path style="stroke:none;" d="M 1.53125 -3.59375 L 1.53125 -4.5 L 0.8125 -4.5 L 0.8125 -0.015625 L 1.5625 -0.015625 L 1.5625 -2 C 1.5625 -2.765625 1.828125 -3.421875 2.6875 -3.765625 C 2.859375 -3.84375 3.0625 -3.875 3.265625 -3.875 L 3.265625 -4.546875 C 2.609375 -4.546875 1.765625 -4.140625 1.53125 -3.59375 Z M 1.53125 -3.59375 "/>
</symbol>
<symbol overflow="visible" id="glyph1-14">
<path style="stroke:none;" d="M 0.8125 -4.4375 L 0.8125 -0.015625 L 1.5625 -0.015625 L 1.5625 -4.4375 Z M 0.734375 -6.78125 L 0.734375 -5.90625 L 1.625 -5.90625 L 1.625 -6.78125 Z M 0.734375 -6.78125 "/>
</symbol>
<symbol overflow="visible" id="glyph1-15">
<path style="stroke:none;" d="M 0.0625 -4.4375 C 0.1875 -4.25 0.359375 -4.078125 0.515625 -3.90625 L 1.421875 -2.875 C 1.578125 -2.6875 1.90625 -2.390625 1.90625 -2.296875 C 1.90625 -2.1875 1.578125 -1.875 1.421875 -1.6875 C 1.109375 -1.328125 0.8125 -0.96875 0.5 -0.59375 C 0.328125 -0.40625 0.15625 -0.203125 0 -0.015625 L 0.8125 -0.015625 L 2.265625 -1.890625 L 3.765625 -0.015625 L 4.578125 -0.015625 L 2.59375 -2.28125 L 4.421875 -4.4375 L 3.59375 -4.4375 L 2.25 -2.796875 L 0.875 -4.421875 L 0.625 -4.4375 Z M 0.0625 -4.4375 "/>
</symbol>
<symbol overflow="visible" id="glyph1-16">
<path style="stroke:none;" d="M 0.140625 -4.4375 L 1.5 -0.015625 L 2.28125 -0.015625 L 3.03125 -2.484375 L 3.3125 -3.65625 L 3.375 -3.9375 L 3.421875 -3.515625 L 3.59375 -2.828125 L 4.34375 -0.296875 L 4.4375 -0.03125 L 4.515625 -0.015625 L 5.296875 -0.015625 L 6.65625 -4.4375 L 5.9375 -4.4375 L 5.109375 -1.703125 L 4.921875 -1 L 4.828125 -0.515625 C 4.8125 -0.671875 4.78125 -0.828125 4.734375 -0.984375 L 4.578125 -1.5625 C 4.34375 -2.4375 4.0625 -3.3125 3.796875 -4.203125 C 3.75 -4.328125 3.78125 -4.4375 3.609375 -4.4375 L 3.125 -4.4375 C 2.953125 -4.4375 2.9375 -4.1875 2.90625 -4.078125 C 2.625 -3.234375 2.375 -2.375 2.15625 -1.5 C 2.078125 -1.171875 1.96875 -0.84375 1.96875 -0.515625 L 1.953125 -0.515625 C 1.921875 -0.90625 1.8125 -1.3125 1.703125 -1.6875 C 1.484375 -2.515625 1.25 -3.3125 0.984375 -4.125 C 0.953125 -4.234375 0.921875 -4.34375 0.890625 -4.4375 Z M 0.140625 -4.4375 "/>
</symbol>
<symbol overflow="visible" id="glyph1-17">
<path style="stroke:none;" d="M 0.140625 -4.4375 C 0.171875 -4.296875 0.234375 -4.171875 0.296875 -4.03125 L 0.59375 -3.234375 C 0.984375 -2.25 1.34375 -1.265625 1.75 -0.296875 C 1.796875 -0.125 1.8125 -0.015625 1.96875 -0.015625 L 2.625 -0.015625 C 2.828125 -0.015625 3.078125 -0.890625 3.25 -1.34375 C 3.515625 -2.03125 3.78125 -2.734375 4.0625 -3.421875 L 4.296875 -4.046875 C 4.34375 -4.171875 4.40625 -4.3125 4.453125 -4.4375 L 3.8125 -4.4375 C 3.703125 -4.4375 3.6875 -4.390625 3.65625 -4.3125 L 3.3125 -3.421875 C 3 -2.609375 2.6875 -1.78125 2.40625 -0.9375 C 2.375 -0.796875 2.328125 -0.65625 2.3125 -0.515625 L 2.234375 -0.828125 L 1.90625 -1.796875 L 1.03125 -4.140625 L 0.890625 -4.421875 L 0.6875 -4.4375 Z M 0.140625 -4.4375 "/>
</symbol>
<symbol overflow="visible" id="glyph1-18">
<path style="stroke:none;" d="M 1.53125 -3.78125 L 1.53125 -4.5 L 0.8125 -4.5 L 0.8125 -0.015625 L 1.578125 -0.015625 L 1.578125 -2.28125 C 1.578125 -2.875 1.6875 -3.9375 2.578125 -3.9375 C 3.234375 -3.9375 3.5625 -3.53125 3.5625 -2.875 C 3.5625 -2.75 3.5625 -2.625 3.5625 -2.515625 L 3.5625 -0.015625 L 4.34375 -0.015625 L 4.34375 -2.375 C 4.34375 -2.546875 4.34375 -2.734375 4.34375 -2.921875 C 4.34375 -3.65625 4.171875 -4.546875 2.984375 -4.546875 C 2.359375 -4.546875 1.90625 -4.234375 1.53125 -3.78125 Z M 1.53125 -3.78125 "/>
</symbol>
</g>
<clipPath id="clip1">
  <path d="M 167 0 L 289.828125 0 L 289.828125 123 L 167 123 Z M 167 0 "/>
</clipPath>
<clipPath id="clip2">
  <path d="M 222.410156 6.433594 L 237.199219 6.433594 L 237.199219 29.109375 L 222.410156 29.109375 Z M 222.410156 6.433594 "/>
</clipPath>
<clipPath id="clip3">
  <path d="M 167 153 L 289.828125 153 L 289.828125 279 L 167 279 Z M 167 153 "/>
</clipPath>
</defs>
<g id="surface1">
<path style="fill-rule:nonzero;fill:rgb(89.99939%,89.99939%,100%);fill-opacity:1;stroke-width:0.3985;stroke-linecap:butt;stroke-linejoin:miter;stroke:rgb(0%,0%,0%);stroke-opacity:1;stroke-miterlimit:10;" d="M 3.985531 -0.000375 L 109.4035 -0.000375 C 111.602719 -0.000375 113.387875 1.784781 113.387875 3.984 L 113.387875 109.401969 C 113.387875 111.601188 111.602719 113.386344 109.4035 113.386344 L 3.985531 113.386344 C 1.782406 113.386344 0.00115625 111.601188 0.00115625 109.401969 L 0.00115625 3.984 C 0.00115625 1.784781 1.782406 -0.000375 3.985531 -0.000375 Z M 3.985531 -0.000375 " transform="matrix(1,0,0,-1,3.034,116.984)"/>
<path style="fill:none;stroke-width:0.79701;stroke-linecap:butt;stroke-linejoin:miter;stroke:rgb(100%,0%,0%);stroke-opacity:1;stroke-miterlimit:10;" d="M 5.669125 56.694938 L 106.282406 56.694938 " transform="matrix(1,0,0,-1,3.034,116.984)"/>
<path style="fill-rule:nonzero;fill:rgb(100%,0%,0%);fill-opacity:1;stroke-width:0.79701;stroke-linecap:butt;stroke-linejoin:round;stroke:rgb(100%,0%,0%);stroke-opacity:1;stroke-miterlimit:10;" d="M 1.034222 0.0013175 C -0.258746 0.25913 -1.555621 0.778661 -3.106403 1.684911 C -1.555621 0.516943 -1.555621 -0.518214 -3.106403 -1.682276 C -1.555621 -0.776026 -0.258746 -0.260401 1.034222 0.0013175 Z M 1.034222 0.0013175 " transform="matrix(1,0,0,-1,109.31734,60.29038)"/>
<g style="fill:rgb(100%,0%,0%);fill-opacity:1;">
  <use xlink:href="#glyph0-1" x="107.903" y="68.299"/>
</g>
<path style="fill:none;stroke-width:0.79701;stroke-linecap:butt;stroke-linejoin:miter;stroke:rgb(0%,79.998779%,0%);stroke-opacity:1;stroke-miterlimit:10;" d="M 56.692563 5.667594 L 56.692563 106.284781 " transform="matrix(1,0,0,-1,3.034,116.984)"/>
<path style="fill-rule:nonzero;fill:rgb(0%,79.998779%,0%);fill-opacity:1;stroke-width:0.79701;stroke-linecap:butt;stroke-linejoin:round;stroke:rgb(0%,79.998779%,0%);stroke-opacity:1;stroke-miterlimit:10;" d="M 1.036598 0.0010575 C -0.260277 0.25887 -1.553246 0.778401 -3.107934 1.684651 C -1.553246 0.516683 -1.553246 -0.518474 -3.107934 -1.682536 C -1.553246 -0.776286 -0.260277 -0.260661 1.036598 0.0010575 Z M 1.036598 0.0010575 " transform="matrix(0,-1,-1,0,59.72762,10.70066)"/>
<g style="fill:rgb(0%,79.998779%,0%);fill-opacity:1;">
  <use xlink:href="#glyph0-2" x="50.767" y="10.443"/>
</g>
<path style="fill:none;stroke-width:0.79701;stroke-linecap:butt;stroke-linejoin:miter;stroke:rgb(0%,0%,100%);stroke-opacity:1;stroke-miterlimit:10;" d="M 92.774594 92.773063 L 21.630063 21.628531 " transform="matrix(1,0,0,-1,3.034,116.984)"/>
<path style="fill-rule:nonzero;fill:rgb(0%,0%,100%);fill-opacity:1;stroke-width:0.79701;stroke-linecap:butt;stroke-linejoin:round;stroke:rgb(0%,0%,100%);stroke-opacity:1;stroke-miterlimit:10;" d="M 1.037177 0.00108277 C -0.258277 0.257964 -1.556493 0.77725 -3.108828 1.68324 C -1.553731 0.520369 -1.553731 -0.518204 -3.106066 -1.683836 C -1.553731 -0.777847 -0.261039 -0.25856 1.037177 0.00108277 Z M 1.037177 0.00108277 " transform="matrix(-0.7071,0.7071,0.7071,0.7071,24.66231,95.35569)"/>
<g style="fill:rgb(0%,0%,100%);fill-opacity:1;">
  <use xlink:href="#glyph0-3" x="14.858" y="98.515"/>
</g>
<path style="fill-rule:nonzero;fill:rgb(100%,100%,100%);fill-opacity:0.75;stroke-width:0.3985;stroke-linecap:butt;stroke-linejoin:miter;stroke:rgb(0%,0%,0%);stroke-opacity:0.75;stroke-miterlimit:10;" d="M 32.969906 35.804313 L 61.317563 35.804313 L 61.317563 64.151969 L 32.969906 64.151969 Z M 32.969906 35.804313 " transform="matrix(1,0,0,-1,3.034,116.984)"/>
<path style="fill-rule:nonzero;fill:rgb(100%,100%,100%);fill-opacity:0.75;stroke-width:0.3985;stroke-linecap:butt;stroke-linejoin:miter;stroke:rgb(0%,0%,0%);stroke-opacity:0.75;stroke-miterlimit:10;" d="M 61.317563 35.804313 L 74.74725 49.234 L 74.74725 77.581656 L 61.317563 64.151969 Z M 61.317563 35.804313 " transform="matrix(1,0,0,-1,3.034,116.984)"/>
<path style="fill-rule:nonzero;fill:rgb(100%,100%,100%);fill-opacity:0.75;stroke-width:0.3985;stroke-linecap:butt;stroke-linejoin:miter;stroke:rgb(0%,0%,0%);stroke-opacity:0.75;stroke-miterlimit:10;" d="M 61.317563 64.151969 L 74.74725 77.581656 L 46.399594 77.581656 L 32.969906 64.151969 Z M 61.317563 64.151969 " transform="matrix(1,0,0,-1,3.034,116.984)"/>
<g style="fill:rgb(0%,0%,0%);fill-opacity:1;">
  <use xlink:href="#glyph1-1" x="34.148" y="127.696"/>
  <use xlink:href="#glyph1-2" x="39.128304" y="127.696"/>
  <use xlink:href="#glyph1-3" x="44.273987" y="127.696"/>
  <use xlink:href="#glyph1-4" x="46.930016" y="127.696"/>
  <use xlink:href="#glyph1-5" x="51.356399" y="127.696"/>
  <use xlink:href="#glyph1-6" x="55.782782" y="127.696"/>
</g>
<g style="fill:rgb(0%,0%,0%);fill-opacity:1;">
  <use xlink:href="#glyph1-7" x="62.696827" y="127.696"/>
  <use xlink:href="#glyph1-8" x="66.514495" y="127.696"/>
  <use xlink:href="#glyph1-9" x="71.660178" y="127.696"/>
</g>
<g style="fill:rgb(0%,0%,0%);fill-opacity:1;">
  <use xlink:href="#glyph1-5" x="76.456173" y="127.696"/>
  <use xlink:href="#glyph1-4" x="80.882557" y="127.696"/>
</g>
<path style="fill:none;stroke-width:2.98883;stroke-linecap:butt;stroke-linejoin:miter;stroke:rgb(0%,0%,0%);stroke-opacity:1;stroke-miterlimit:10;" d="M 117.37225 56.694938 L 164.016781 56.694938 " transform="matrix(1,0,0,-1,3.034,116.984)"/>
<path style="fill:none;stroke-width:2.39107;stroke-linecap:round;stroke-linejoin:round;stroke:rgb(0%,0%,0%);stroke-opacity:1;stroke-miterlimit:10;" d="M -3.525156 4.700536 C -3.232187 2.938818 -0.00171875 0.294286 0.881094 0.0013175 C -0.00171875 -0.295557 -3.232187 -2.940089 -3.525156 -4.701807 " transform="matrix(1,0,0,-1,167.0525,60.29038)"/>
<g style="fill:rgb(0%,0%,0%);fill-opacity:1;">
  <use xlink:href="#glyph1-10" x="130.593" y="43.522"/>
  <use xlink:href="#glyph1-1" x="138.506293" y="43.522"/>
</g>
<g style="fill:rgb(0%,0%,0%);fill-opacity:1;">
  <use xlink:href="#glyph1-11" x="143.76555" y="43.522"/>
  <use xlink:href="#glyph1-4" x="148.911233" y="43.522"/>
  <use xlink:href="#glyph1-12" x="153.337616" y="43.522"/>
</g>
<g style="fill:rgb(0%,0%,0%);fill-opacity:1;">
  <use xlink:href="#glyph1-10" x="130.593" y="55.477"/>
  <use xlink:href="#glyph1-9" x="138.506293" y="55.477"/>
  <use xlink:href="#glyph1-6" x="143.292326" y="55.477"/>
  <use xlink:href="#glyph1-13" x="146.888825" y="55.477"/>
  <use xlink:href="#glyph1-14" x="150.292049" y="55.477"/>
  <use xlink:href="#glyph1-15" x="152.671118" y="55.477"/>
</g>
<path style=" stroke:none;fill-rule:nonzero;fill:rgb(89.99939%,89.99939%,100%);fill-opacity:1;" d="M 177.101562 116.984375 L 282.515625 116.984375 C 284.71875 116.984375 286.503906 115.199219 286.503906 113 L 286.503906 7.582031 C 286.503906 5.382812 284.71875 3.597656 282.515625 3.597656 L 177.101562 3.597656 C 174.898438 3.597656 173.113281 5.382812 173.113281 7.582031 L 173.113281 113 C 173.113281 115.199219 174.898438 116.984375 177.101562 116.984375 Z M 177.101562 116.984375 "/>
<g clip-path="url(#clip1)" clip-rule="nonzero">
<path style="fill:none;stroke-width:0.3985;stroke-linecap:butt;stroke-linejoin:miter;stroke:rgb(0%,0%,0%);stroke-opacity:1;stroke-miterlimit:10;" d="M 174.067563 -0.000375 L 279.481625 -0.000375 C 281.68475 -0.000375 283.469906 1.784781 283.469906 3.984 L 283.469906 109.401969 C 283.469906 111.601188 281.68475 113.386344 279.481625 113.386344 L 174.067563 113.386344 C 171.864438 113.386344 170.079281 111.601188 170.079281 109.401969 L 170.079281 3.984 C 170.079281 1.784781 171.864438 -0.000375 174.067563 -0.000375 Z M 174.067563 -0.000375 " transform="matrix(1,0,0,-1,3.034,116.984)"/>
</g>
<path style="fill:none;stroke-width:0.79701;stroke-linecap:butt;stroke-linejoin:miter;stroke:rgb(100%,0%,0%);stroke-opacity:1;stroke-miterlimit:10;" d="M 175.751156 56.694938 L 276.364438 56.694938 " transform="matrix(1,0,0,-1,3.034,116.984)"/>
<path style="fill-rule:nonzero;fill:rgb(100%,0%,0%);fill-opacity:1;stroke-width:0.79701;stroke-linecap:butt;stroke-linejoin:round;stroke:rgb(100%,0%,0%);stroke-opacity:1;stroke-miterlimit:10;" d="M 1.035384 0.0013175 C -0.257585 0.25913 -1.55446 0.778661 -3.109148 1.684911 C -1.55446 0.516943 -1.55446 -0.518214 -3.109148 -1.682276 C -1.55446 -0.776026 -0.257585 -0.260401 1.035384 0.0013175 Z M 1.035384 0.0013175 " transform="matrix(1,0,0,-1,279.39821,60.29038)"/>
<g style="fill:rgb(100%,0%,0%);fill-opacity:1;">
  <use xlink:href="#glyph0-1" x="277.982" y="68.299"/>
</g>
<path style="fill:none;stroke-width:0.79701;stroke-linecap:butt;stroke-linejoin:miter;stroke:rgb(0%,79.998779%,0%);stroke-opacity:1;stroke-miterlimit:10;" d="M 226.774594 5.667594 L 226.774594 106.284781 " transform="matrix(1,0,0,-1,3.034,116.984)"/>
<path style="fill-rule:nonzero;fill:rgb(0%,79.998779%,0%);fill-opacity:1;stroke-width:0.79701;stroke-linecap:butt;stroke-linejoin:round;stroke:rgb(0%,79.998779%,0%);stroke-opacity:1;stroke-miterlimit:10;" d="M 1.036598 -0.00011375 C -0.260277 0.257699 -1.553246 0.77723 -3.107934 1.68348 C -1.553246 0.519417 -1.553246 -0.519645 -3.107934 -1.683708 C -1.553246 -0.777458 -0.260277 -0.257926 1.036598 -0.00011375 Z M 1.036598 -0.00011375 " transform="matrix(0,-1,-1,0,229.80848,10.70066)"/>
<path style="fill:none;stroke-width:0.79701;stroke-linecap:butt;stroke-linejoin:miter;stroke:rgb(0%,0%,100%);stroke-opacity:1;stroke-miterlimit:10;" d="M 262.852719 92.773063 L 191.708188 21.628531 " transform="matrix(1,0,0,-1,3.034,116.984)"/>
<path style="fill-rule:nonzero;fill:rgb(0%,0%,100%);fill-opacity:1;stroke-width:0.79701;stroke-linecap:butt;stroke-linejoin:round;stroke:rgb(0%,0%,100%);stroke-opacity:1;stroke-miterlimit:10;" d="M 1.036356 0.0019039 C -0.259098 0.258785 -1.554552 0.775309 -3.109649 1.684061 C -1.55179 0.518428 -1.554552 -0.517383 -3.106887 -1.683015 C -1.554552 -0.777026 -0.259098 -0.260502 1.036356 0.0019039 Z M 1.036356 0.0019039 " transform="matrix(-0.7071,0.7071,0.7071,0.7071,194.74318,95.35569)"/>
<g style="fill:rgb(0%,0%,100%);fill-opacity:1;">
  <use xlink:href="#glyph0-3" x="184.937" y="98.515"/>
</g>
<path style="fill-rule:nonzero;fill:rgb(100%,100%,100%);fill-opacity:0.75;stroke-width:0.3985;stroke-linecap:butt;stroke-linejoin:miter;stroke:rgb(0%,0%,0%);stroke-opacity:0.75;stroke-miterlimit:10;" d="M 181.419125 39.687125 L 195.591 39.687125 L 195.591 53.859 L 181.419125 53.859 Z M 181.419125 39.687125 " transform="matrix(1,0,0,-1,3.034,116.984)"/>
<path style="fill-rule:nonzero;fill:rgb(100%,100%,100%);fill-opacity:0.75;stroke-width:0.3985;stroke-linecap:butt;stroke-linejoin:miter;stroke:rgb(0%,0%,0%);stroke-opacity:0.75;stroke-miterlimit:10;" d="M 195.591 39.687125 L 202.208188 46.300406 L 202.208188 60.472281 L 195.591 53.859 Z M 195.591 39.687125 " transform="matrix(1,0,0,-1,3.034,116.984)"/>
<path style="fill-rule:nonzero;fill:rgb(100%,100%,100%);fill-opacity:0.75;stroke-width:0.3985;stroke-linecap:butt;stroke-linejoin:miter;stroke:rgb(0%,0%,0%);stroke-opacity:0.75;stroke-miterlimit:10;" d="M 195.591 53.859 L 202.208188 60.472281 L 188.032406 60.472281 L 181.419125 53.859 Z M 195.591 53.859 " transform="matrix(1,0,0,-1,3.034,116.984)"/>
<path style="fill-rule:nonzero;fill:rgb(100%,100%,100%);fill-opacity:0.75;stroke-width:0.3985;stroke-linecap:butt;stroke-linejoin:miter;stroke:rgb(0%,0%,0%);stroke-opacity:0.75;stroke-miterlimit:10;" d="M 250.969906 66.714469 L 265.141781 66.714469 L 271.758969 73.331656 L 260.657406 81.081656 Z M 250.969906 66.714469 " transform="matrix(1,0,0,-1,3.034,116.984)"/>
<path style="fill:none;stroke-width:0.3985;stroke-linecap:butt;stroke-linejoin:miter;stroke:rgb(0%,0%,0%);stroke-opacity:1;stroke-miterlimit:10;" d="M 265.141781 66.714469 L 260.657406 81.081656 " transform="matrix(1,0,0,-1,3.034,116.984)"/>
<g style="fill:rgb(0%,0%,0%);fill-opacity:1;">
  <use xlink:href="#glyph1-16" x="205.763" y="127.696"/>
</g>
<g style="fill:rgb(0%,0%,0%);fill-opacity:1;">
  <use xlink:href="#glyph1-1" x="212.290496" y="127.696"/>
</g>
<g style="fill:rgb(0%,0%,0%);fill-opacity:1;">
  <use xlink:href="#glyph1-13" x="216.991846" y="127.696"/>
  <use xlink:href="#glyph1-12" x="220.395071" y="127.696"/>
  <use xlink:href="#glyph1-11" x="222.774139" y="127.696"/>
</g>
<g style="fill:rgb(0%,0%,0%);fill-opacity:1;">
  <use xlink:href="#glyph1-7" x="231.247331" y="127.696"/>
  <use xlink:href="#glyph1-8" x="235.064999" y="127.696"/>
  <use xlink:href="#glyph1-9" x="240.210682" y="127.696"/>
  <use xlink:href="#glyph1-5" x="244.996715" y="127.696"/>
  <use xlink:href="#glyph1-4" x="249.423098" y="127.696"/>
</g>
<path style="fill:none;stroke-width:2.98883;stroke-linecap:butt;stroke-linejoin:miter;stroke:rgb(0%,0%,0%);stroke-opacity:1;stroke-miterlimit:10;" d="M 166.891781 -2.391 L 118.235531 -38.883187 " transform="matrix(1,0,0,-1,3.034,116.984)"/>
<path style="fill:none;stroke-width:2.39107;stroke-linecap:round;stroke-linejoin:round;stroke:rgb(0%,0%,0%);stroke-opacity:1;stroke-miterlimit:10;" d="M -3.52763 4.701953 C -3.233888 2.938616 -0.00178661 0.294754 0.880268 -0.00057607 C 0.0013326 -0.293545 -3.233947 -2.940467 -3.526161 -4.703798 " transform="matrix(-0.79997,0.59999,0.59999,0.79997,121.27094,155.86684)"/>
<g style="fill:rgb(0%,0%,0%);fill-opacity:1;">
  <use xlink:href="#glyph1-17" x="123.763" y="125.013"/>
  <use xlink:href="#glyph1-14" x="128.355759" y="125.013"/>
  <use xlink:href="#glyph1-4" x="130.734827" y="125.013"/>
  <use xlink:href="#glyph1-16" x="135.161211" y="125.013"/>
</g>
<g style="fill:rgb(0%,0%,0%);fill-opacity:1;">
  <use xlink:href="#glyph1-10" x="119.53" y="136.968"/>
  <use xlink:href="#glyph1-9" x="127.443293" y="136.968"/>
  <use xlink:href="#glyph1-6" x="132.229326" y="136.968"/>
  <use xlink:href="#glyph1-13" x="135.825825" y="136.968"/>
  <use xlink:href="#glyph1-14" x="139.229049" y="136.968"/>
  <use xlink:href="#glyph1-15" x="141.608118" y="136.968"/>
</g>
<path style=" stroke:none;fill-rule:nonzero;fill:rgb(50%,50%,50%);fill-opacity:1;" d="M 223.890625 9.023438 L 223.890625 22.578125 C 223.890625 23.1875 224.386719 23.683594 225 23.683594 L 226.726562 23.683594 C 227.335938 23.683594 227.484375 24.035156 227.050781 24.46875 L 224.675781 26.84375 C 224.242188 27.277344 224.386719 27.628906 225 27.628906 L 234.609375 27.628906 C 235.222656 27.628906 235.367188 27.277344 234.9375 26.84375 L 232.5625 24.46875 C 232.128906 24.035156 232.273438 23.683594 232.886719 23.683594 L 234.609375 23.683594 C 235.222656 23.683594 235.71875 23.1875 235.71875 22.578125 L 235.71875 9.023438 C 235.71875 8.410156 235.222656 7.914062 234.609375 7.914062 L 225 7.914062 C 224.386719 7.914062 223.890625 8.410156 223.890625 9.023438 Z M 223.890625 9.023438 "/>
<g clip-path="url(#clip2)" clip-rule="nonzero">
<path style="fill:none;stroke-width:4.98138;stroke-linecap:butt;stroke-linejoin:miter;stroke:rgb(0%,0%,0%);stroke-opacity:1;stroke-miterlimit:10;" d="M 3.987091 -0.00245704 L 52.71341 -0.00245704 C 54.903988 -0.00245704 56.687344 1.780898 56.687344 3.985518 L 56.687344 10.192156 C 56.687344 12.382734 57.951139 12.916337 59.509819 11.357656 L 68.047457 2.820019 C 69.606137 1.261338 70.869932 1.780898 70.869932 3.985518 L 70.869932 38.529249 C 70.869932 40.733869 69.606137 41.253429 68.047457 39.708791 L 59.509819 31.171154 C 57.951139 29.612473 56.687344 30.132033 56.687344 32.336653 L 56.687344 38.529249 C 56.687344 40.733869 54.903988 42.517224 52.71341 42.517224 L 3.987091 42.517224 C 1.782471 42.517224 -0.00088432 40.733869 -0.00088432 38.529249 L -0.00088432 3.985518 C -0.00088432 1.780898 1.782471 -0.00245704 3.987091 -0.00245704 Z M 3.987091 -0.00245704 " transform="matrix(0,0.27818,0.27818,0,223.891309,7.914309)"/>
</g>
<path style="fill-rule:nonzero;fill:rgb(89.99939%,89.99939%,100%);fill-opacity:1;stroke-width:0.3985;stroke-linecap:butt;stroke-linejoin:miter;stroke:rgb(0%,0%,0%);stroke-opacity:1;stroke-miterlimit:10;" d="M 3.985531 -155.906625 L 109.4035 -155.906625 C 111.602719 -155.906625 113.387875 -154.121469 113.387875 -151.92225 L 113.387875 -46.504281 C 113.387875 -44.305062 111.602719 -42.519906 109.4035 -42.519906 L 3.985531 -42.519906 C 1.782406 -42.519906 0.00115625 -44.305062 0.00115625 -46.504281 L 0.00115625 -151.92225 C 0.00115625 -154.121469 1.782406 -155.906625 3.985531 -155.906625 Z M 3.985531 -155.906625 " transform="matrix(1,0,0,-1,3.034,116.984)"/>
<g style="fill:rgb(0%,0%,0%);fill-opacity:1;">
  <use xlink:href="#glyph1-17" x="37.662" y="283.161"/>
  <use xlink:href="#glyph1-14" x="42.254759" y="283.161"/>
  <use xlink:href="#glyph1-4" x="44.633827" y="283.161"/>
  <use xlink:href="#glyph1-16" x="49.060211" y="283.161"/>
</g>
<g style="fill:rgb(0%,0%,0%);fill-opacity:1;">
  <use xlink:href="#glyph1-7" x="59.184205" y="283.161"/>
  <use xlink:href="#glyph1-8" x="63.001873" y="283.161"/>
  <use xlink:href="#glyph1-9" x="68.147556" y="283.161"/>
  <use xlink:href="#glyph1-5" x="72.933589" y="283.161"/>
  <use xlink:href="#glyph1-4" x="77.359972" y="283.161"/>
</g>
<path style="fill:none;stroke-width:0.79701;stroke-linecap:butt;stroke-linejoin:miter;stroke:rgb(100%,0%,0%);stroke-opacity:1;stroke-miterlimit:10;" d="M 5.669125 -99.215219 L 106.282406 -99.215219 " transform="matrix(1,0,0,-1,3.034,116.984)"/>
<path style="fill-rule:nonzero;fill:rgb(100%,0%,0%);fill-opacity:1;stroke-width:0.79701;stroke-linecap:butt;stroke-linejoin:round;stroke:rgb(100%,0%,0%);stroke-opacity:1;stroke-miterlimit:10;" d="M 1.034222 -0.00139875 C -0.258746 0.26032 -1.555621 0.775945 -3.106403 1.682195 C -1.555621 0.518133 -1.555621 -0.517024 -3.106403 -1.684992 C -1.555621 -0.778742 -0.258746 -0.259211 1.034222 -0.00139875 Z M 1.034222 -0.00139875 " transform="matrix(1,0,0,-1,109.31734,216.19782)"/>
<g style="fill:rgb(100%,0%,0%);fill-opacity:1;">
  <use xlink:href="#glyph0-1" x="107.904" y="224.204"/>
</g>
<path style="fill:none;stroke-width:0.79701;stroke-linecap:butt;stroke-linejoin:miter;stroke:rgb(0%,79.998779%,0%);stroke-opacity:1;stroke-miterlimit:10;" d="M 56.692563 -150.238656 L 56.692563 -49.625375 " transform="matrix(1,0,0,-1,3.034,116.984)"/>
<path style="fill-rule:nonzero;fill:rgb(0%,79.998779%,0%);fill-opacity:1;stroke-width:0.79701;stroke-linecap:butt;stroke-linejoin:round;stroke:rgb(0%,79.998779%,0%);stroke-opacity:1;stroke-miterlimit:10;" d="M 1.037768 0.0010575 C -0.259107 0.25887 -1.555982 0.778401 -3.106764 1.684651 C -1.555982 0.516683 -1.555982 -0.518474 -3.106764 -1.682536 C -1.555982 -0.776286 -0.259107 -0.260661 1.037768 0.0010575 Z M 1.037768 0.0010575 " transform="matrix(0,-1,-1,0,59.72762,166.60808)"/>
<g style="fill:rgb(0%,79.998779%,0%);fill-opacity:1;">
  <use xlink:href="#glyph0-2" x="50.767" y="166.349"/>
</g>
<path style="fill-rule:nonzero;fill:rgb(100%,100%,100%);fill-opacity:0.75;stroke-width:0.3985;stroke-linecap:butt;stroke-linejoin:miter;stroke:rgb(0%,0%,0%);stroke-opacity:0.75;stroke-miterlimit:10;" d="M 17.008969 -138.898812 L 36.852719 -138.898812 L 36.852719 -119.055062 L 17.008969 -119.055062 Z M 17.008969 -138.898812 " transform="matrix(1,0,0,-1,3.034,116.984)"/>
<path style="fill-rule:nonzero;fill:rgb(100%,100%,100%);fill-opacity:0.75;stroke-width:0.3985;stroke-linecap:butt;stroke-linejoin:miter;stroke:rgb(0%,0%,0%);stroke-opacity:0.75;stroke-miterlimit:10;" d="M 76.536312 -79.371469 L 96.380062 -79.371469 L 96.380062 -59.527719 L 76.536312 -59.527719 Z M 76.536312 -79.371469 " transform="matrix(1,0,0,-1,3.034,116.984)"/>
<path style="fill:none;stroke-width:0.3985;stroke-linecap:butt;stroke-linejoin:miter;stroke:rgb(0%,0%,0%);stroke-opacity:1;stroke-miterlimit:10;" d="M 76.536312 -79.371469 L 96.380062 -59.527719 " transform="matrix(1,0,0,-1,3.034,116.984)"/>
<path style="fill:none;stroke-width:0.3985;stroke-linecap:butt;stroke-linejoin:miter;stroke:rgb(0%,0%,0%);stroke-opacity:1;stroke-miterlimit:10;" d="M 76.536312 -59.527719 L 96.380062 -79.371469 " transform="matrix(1,0,0,-1,3.034,116.984)"/>
<path style="fill:none;stroke-width:2.98883;stroke-linecap:butt;stroke-linejoin:miter;stroke:rgb(0%,0%,0%);stroke-opacity:1;stroke-miterlimit:10;" d="M 117.37225 -99.215219 L 164.016781 -99.215219 " transform="matrix(1,0,0,-1,3.034,116.984)"/>
<path style="fill:none;stroke-width:2.39107;stroke-linecap:round;stroke-linejoin:round;stroke:rgb(0%,0%,0%);stroke-opacity:1;stroke-miterlimit:10;" d="M -3.525156 4.701726 C -3.232187 2.940008 -0.00171875 0.295476 0.881094 -0.00139875 C -0.00171875 -0.294367 -3.232187 -2.938899 -3.525156 -4.700617 " transform="matrix(1,0,0,-1,167.0525,216.19782)"/>
<g style="fill:rgb(0%,0%,0%);fill-opacity:1;">
  <use xlink:href="#glyph1-8" x="124.334" y="199.427"/>
</g>
<g style="fill:rgb(0%,0%,0%);fill-opacity:1;">
  <use xlink:href="#glyph1-13" x="129.20073" y="199.427"/>
  <use xlink:href="#glyph1-1" x="132.603954" y="199.427"/>
  <use xlink:href="#glyph1-3" x="137.584258" y="199.427"/>
  <use xlink:href="#glyph1-4" x="140.240287" y="199.427"/>
  <use xlink:href="#glyph1-5" x="144.66667" y="199.427"/>
  <use xlink:href="#glyph1-6" x="149.093054" y="199.427"/>
  <use xlink:href="#glyph1-14" x="152.689552" y="199.427"/>
  <use xlink:href="#glyph1-1" x="155.068621" y="199.427"/>
  <use xlink:href="#glyph1-18" x="160.048925" y="199.427"/>
</g>
<g style="fill:rgb(0%,0%,0%);fill-opacity:1;">
  <use xlink:href="#glyph1-10" x="131.431" y="211.382"/>
  <use xlink:href="#glyph1-9" x="139.344293" y="211.382"/>
  <use xlink:href="#glyph1-6" x="144.130326" y="211.382"/>
  <use xlink:href="#glyph1-13" x="147.726825" y="211.382"/>
  <use xlink:href="#glyph1-14" x="151.130049" y="211.382"/>
  <use xlink:href="#glyph1-15" x="153.509118" y="211.382"/>
</g>
<path style=" stroke:none;fill-rule:nonzero;fill:rgb(89.99939%,89.99939%,100%);fill-opacity:1;" d="M 177.101562 272.890625 L 282.515625 272.890625 C 284.71875 272.890625 286.503906 271.105469 286.503906 268.90625 L 286.503906 163.488281 C 286.503906 161.289062 284.71875 159.503906 282.515625 159.503906 L 177.101562 159.503906 C 174.898438 159.503906 173.113281 161.289062 173.113281 163.488281 L 173.113281 268.90625 C 173.113281 271.105469 174.898438 272.890625 177.101562 272.890625 Z M 177.101562 272.890625 "/>
<g clip-path="url(#clip3)" clip-rule="nonzero">
<path style="fill:none;stroke-width:0.3985;stroke-linecap:butt;stroke-linejoin:miter;stroke:rgb(0%,0%,0%);stroke-opacity:1;stroke-miterlimit:10;" d="M 174.067563 -155.906625 L 279.481625 -155.906625 C 281.68475 -155.906625 283.469906 -154.121469 283.469906 -151.92225 L 283.469906 -46.504281 C 283.469906 -44.305062 281.68475 -42.519906 279.481625 -42.519906 L 174.067563 -42.519906 C 171.864438 -42.519906 170.079281 -44.305062 170.079281 -46.504281 L 170.079281 -151.92225 C 170.079281 -154.121469 171.864438 -155.906625 174.067563 -155.906625 Z M 174.067563 -155.906625 " transform="matrix(1,0,0,-1,3.034,116.984)"/>
</g>
<g style="fill:rgb(0%,0%,0%);fill-opacity:1;">
  <use xlink:href="#glyph1-7" x="204.02" y="280.807"/>
  <use xlink:href="#glyph1-5" x="207.837668" y="280.807"/>
  <use xlink:href="#glyph1-13" x="212.264051" y="280.807"/>
  <use xlink:href="#glyph1-4" x="215.667276" y="280.807"/>
  <use xlink:href="#glyph1-4" x="220.093659" y="280.807"/>
  <use xlink:href="#glyph1-18" x="224.520042" y="280.807"/>
</g>
<g style="fill:rgb(0%,0%,0%);fill-opacity:1;">
  <use xlink:href="#glyph1-7" x="232.983271" y="280.807"/>
  <use xlink:href="#glyph1-8" x="236.800939" y="280.807"/>
  <use xlink:href="#glyph1-9" x="241.946622" y="280.807"/>
</g>
<g style="fill:rgb(0%,0%,0%);fill-opacity:1;">
  <use xlink:href="#glyph1-5" x="246.742618" y="280.807"/>
  <use xlink:href="#glyph1-4" x="251.169001" y="280.807"/>
</g>
<path style="fill:none;stroke-width:0.79701;stroke-linecap:butt;stroke-linejoin:miter;stroke:rgb(100%,0%,0%);stroke-opacity:1;stroke-miterlimit:10;" d="M 175.751156 -99.215219 L 276.364438 -99.215219 " transform="matrix(1,0,0,-1,3.034,116.984)"/>
<path style="fill-rule:nonzero;fill:rgb(100%,0%,0%);fill-opacity:1;stroke-width:0.79701;stroke-linecap:butt;stroke-linejoin:round;stroke:rgb(100%,0%,0%);stroke-opacity:1;stroke-miterlimit:10;" d="M 1.035384 -0.00139875 C -0.257585 0.26032 -1.55446 0.775945 -3.109148 1.682195 C -1.55446 0.518133 -1.55446 -0.517024 -3.109148 -1.684992 C -1.55446 -0.778742 -0.257585 -0.259211 1.035384 -0.00139875 Z M 1.035384 -0.00139875 " transform="matrix(1,0,0,-1,279.39821,216.19782)"/>
<g style="fill:rgb(100%,0%,0%);fill-opacity:1;">
  <use xlink:href="#glyph0-1" x="277.982" y="224.204"/>
</g>
<path style="fill:none;stroke-width:0.79701;stroke-linecap:butt;stroke-linejoin:miter;stroke:rgb(0%,79.998779%,0%);stroke-opacity:1;stroke-miterlimit:10;" d="M 226.774594 -150.238656 L 226.774594 -49.625375 " transform="matrix(1,0,0,-1,3.034,116.984)"/>
<path style="fill-rule:nonzero;fill:rgb(0%,79.998779%,0%);fill-opacity:1;stroke-width:0.79701;stroke-linecap:butt;stroke-linejoin:round;stroke:rgb(0%,79.998779%,0%);stroke-opacity:1;stroke-miterlimit:10;" d="M 1.037768 -0.00011375 C -0.259107 0.257699 -1.555982 0.77723 -3.106764 1.68348 C -1.555982 0.519417 -1.555982 -0.519645 -3.106764 -1.683708 C -1.555982 -0.777458 -0.259107 -0.257926 1.037768 -0.00011375 Z M 1.037768 -0.00011375 " transform="matrix(0,-1,-1,0,229.80848,166.60808)"/>
<g style="fill:rgb(0%,79.998779%,0%);fill-opacity:1;">
  <use xlink:href="#glyph0-2" x="220.845" y="166.349"/>
</g>
<path style="fill-rule:nonzero;fill:rgb(100%,100%,100%);fill-opacity:0.75;stroke-width:0.3985;stroke-linecap:butt;stroke-linejoin:miter;stroke:rgb(0%,0%,0%);stroke-opacity:0.75;stroke-miterlimit:10;" d="M 187.091 -138.898812 L 206.930844 -138.898812 L 206.930844 -119.055062 L 187.091 -119.055062 Z M 187.091 -138.898812 " transform="matrix(1,0,0,-1,3.034,116.984)"/>
<path style="fill-rule:nonzero;fill:rgb(100%,100%,100%);fill-opacity:0.75;stroke-width:0.3985;stroke-linecap:butt;stroke-linejoin:miter;stroke:rgb(0%,0%,0%);stroke-opacity:0.75;stroke-miterlimit:10;" d="M 206.930844 -138.898812 L 211.891781 -128.976937 L 211.891781 -114.094125 L 206.930844 -119.055062 " transform="matrix(1,0,0,-1,3.034,116.984)"/>
<path style="fill-rule:nonzero;fill:rgb(100%,100%,100%);fill-opacity:0.75;stroke-width:0.3985;stroke-linecap:butt;stroke-linejoin:miter;stroke:rgb(0%,0%,0%);stroke-opacity:0.75;stroke-miterlimit:10;" d="M 187.091 -119.055062 L 197.008969 -114.094125 L 211.891781 -114.094125 L 206.930844 -119.055062 " transform="matrix(1,0,0,-1,3.034,116.984)"/>
<path style="fill-rule:nonzero;fill:rgb(100%,100%,100%);fill-opacity:0.75;stroke-width:0.3985;stroke-linecap:butt;stroke-linejoin:miter;stroke:rgb(0%,0%,0%);stroke-opacity:0.75;stroke-miterlimit:10;" d="M 246.618344 -79.371469 L 266.458188 -79.371469 L 266.458188 -59.527719 L 246.618344 -59.527719 Z M 246.618344 -79.371469 " transform="matrix(1,0,0,-1,3.034,116.984)"/>
<path style="fill:none;stroke-width:0.3985;stroke-linecap:butt;stroke-linejoin:miter;stroke:rgb(0%,0%,0%);stroke-opacity:1;stroke-miterlimit:10;" d="M 246.618344 -79.371469 L 260.508969 -65.480844 M 266.458188 -79.371469 L 260.508969 -65.480844 M 266.458188 -59.527719 L 260.508969 -65.480844 M 246.618344 -59.527719 L 260.508969 -65.480844 " transform="matrix(1,0,0,-1,3.034,116.984)"/>
</g>
</svg>
